<ttFont>
    <TTGlyph name="A" xMin="60" yMin="0" xMax="680" yMax="732">
      <contour>
        <pt x="379" y="675" on="1"/>
        <pt x="377" y="681" on="0"/>
        <pt x="372" y="694" on="0"/>
        <pt x="370" y="700" on="1"/>
        <pt x="335" y="606" on="0"/>
        <pt x="254" y="423" on="0"/>
        <pt x="215" y="330" on="1"/>
        <pt x="525" y="330" on="1"/>
        <pt x="488" y="417" on="0"/>
        <pt x="416" y="588" on="0"/>
      </contour>
      <contour>
        <pt x="680" y="0" on="1"/>
        <pt x="665" y="0" on="1"/>
        <pt x="631" y="79" on="0"/>
        <pt x="565" y="237" on="0"/>
        <pt x="531" y="316" on="1"/>
        <pt x="209" y="316" on="1"/>
        <pt x="175" y="237" on="0"/>
        <pt x="109" y="79" on="0"/>
        <pt x="75" y="0" on="1"/>
        <pt x="60" y="0" on="1"/>
        <pt x="138" y="184" on="0"/>
        <pt x="292" y="548" on="0"/>
        <pt x="370" y="732" on="1"/>
        <pt x="448" y="548" on="0"/>
        <pt x="602" y="184" on="0"/>
      </contour>
    </TTGlyph>
    <TTGlyph name="AE" xMin="60" yMin="0" xMax="694" yMax="700">
      <contour>
        <pt x="356" y="330" on="1"/>
        <pt x="356" y="666" on="1"/>
        <pt x="324" y="580" on="0"/>
        <pt x="250" y="415" on="0"/>
        <pt x="215" y="330" on="1"/>
      </contour>
      <contour>
        <pt x="60" y="0" on="1"/>
        <pt x="135" y="176" on="0"/>
        <pt x="281" y="524" on="0"/>
        <pt x="356" y="700" on="1"/>
        <pt x="680" y="700" on="1"/>
        <pt x="680" y="686" on="1"/>
        <pt x="370" y="686" on="1"/>
        <pt x="370" y="360" on="1"/>
        <pt x="641" y="360" on="1"/>
        <pt x="641" y="346" on="1"/>
        <pt x="370" y="346" on="1"/>
        <pt x="370" y="14" on="1"/>
        <pt x="694" y="14" on="1"/>
        <pt x="694" y="0" on="1"/>
        <pt x="356" y="0" on="1"/>
        <pt x="356" y="316" on="1"/>
        <pt x="209" y="316" on="1"/>
        <pt x="175" y="237" on="0"/>
        <pt x="109" y="79" on="0"/>
        <pt x="75" y="0" on="1"/>
      </contour>
    </TTGlyph>
    <TTGlyph name="Aacute" xMin="60" yMin="0" xMax="680" yMax="883">
      <component glyphName="A" x="0" y="0" flags="0x204"/>
      <component glyphName="acute" x="256" y="271" flags="0x4"/>
    </TTGlyph>
    <TTGlyph name="Acircumflex" xMin="60" yMin="0" xMax="680" yMax="931">
      <component glyphName="A" x="0" y="0" flags="0x204"/>
      <component glyphName="asciicircum" x="139" y="271" flags="0x4"/>
    </TTGlyph>
    <TTGlyph name="Adieresis" xMin="60" yMin="0" xMax="680" yMax="810">
      <component glyphName="A" x="0" y="0" flags="0x204"/>
      <component glyphName="dieresis" x="187" y="290" flags="0x4"/>
    </TTGlyph>
    <TTGlyph name="Agrave" xMin="60" yMin="0" xMax="680" yMax="883">
      <component glyphName="A" x="0" y="0" flags="0x204"/>
      <component glyphName="grave" x="296" y="271" flags="0x4"/>
    </TTGlyph>
    <TTGlyph name="Aring" xMin="60" yMin="0" xMax="680" yMax="897">
      <contour>
        <pt x="322" y="834" on="1"/>
        <pt x="322" y="814" on="0"/>
        <pt x="351" y="785" on="0"/>
        <pt x="371" y="785" on="1"/>
        <pt x="391" y="785" on="0"/>
        <pt x="420" y="814" on="0"/>
        <pt x="420" y="834" on="1"/>
        <pt x="420" y="854" on="0"/>
        <pt x="391" y="883" on="0"/>
        <pt x="371" y="883" on="1"/>
        <pt x="351" y="883" on="0"/>
        <pt x="322" y="854" on="0"/>
      </contour>
      <contour>
        <pt x="308" y="834" on="1"/>
        <pt x="308" y="861" on="0"/>
        <pt x="344" y="897" on="0"/>
        <pt x="371" y="897" on="1"/>
        <pt x="398" y="897" on="0"/>
        <pt x="434" y="861" on="0"/>
        <pt x="434" y="834" on="1"/>
        <pt x="434" y="807" on="0"/>
        <pt x="398" y="771" on="0"/>
        <pt x="371" y="771" on="1"/>
        <pt x="344" y="771" on="0"/>
        <pt x="308" y="807" on="0"/>
      </contour>
      <contour>
        <pt x="379" y="675" on="1"/>
        <pt x="377" y="681" on="0"/>
        <pt x="372" y="694" on="0"/>
        <pt x="370" y="700" on="1"/>
        <pt x="335" y="606" on="0"/>
        <pt x="254" y="423" on="0"/>
        <pt x="215" y="330" on="1"/>
        <pt x="525" y="330" on="1"/>
        <pt x="488" y="417" on="0"/>
        <pt x="416" y="588" on="0"/>
      </contour>
      <contour>
        <pt x="680" y="0" on="1"/>
        <pt x="665" y="0" on="1"/>
        <pt x="631" y="79" on="0"/>
        <pt x="565" y="237" on="0"/>
        <pt x="531" y="316" on="1"/>
        <pt x="209" y="316" on="1"/>
        <pt x="175" y="237" on="0"/>
        <pt x="109" y="79" on="0"/>
        <pt x="75" y="0" on="1"/>
        <pt x="60" y="0" on="1"/>
        <pt x="138" y="184" on="0"/>
        <pt x="292" y="548" on="0"/>
        <pt x="370" y="732" on="1"/>
        <pt x="448" y="548" on="0"/>
        <pt x="602" y="184" on="0"/>
      </contour>
    </TTGlyph>
    <TTGlyph name="Atilde" xMin="60" yMin="0" xMax="680" yMax="829">
      <component glyphName="A" x="0" y="0" flags="0x204"/>
      <component glyphName="asciitilde" x="91" y="288" flags="0x4"/>
    </TTGlyph>
    <TTGlyph name="B" xMin="84" yMin="0" xMax="459" yMax="700">
      <contour>
        <pt x="98" y="686" on="1"/>
        <pt x="98" y="358" on="1"/>
        <pt x="245" y="358" on="1"/>
        <pt x="325" y="358" on="0"/>
        <pt x="418" y="452" on="0"/>
        <pt x="418" y="528" on="1"/>
        <pt x="418" y="570" on="0"/>
        <pt x="392" y="630" on="0"/>
        <pt x="345" y="668" on="0"/>
        <pt x="280" y="686" on="0"/>
        <pt x="241" y="686" on="1"/>
      </contour>
      <contour>
        <pt x="98" y="344" on="1"/>
        <pt x="98" y="14" on="1"/>
        <pt x="246" y="14" on="1"/>
        <pt x="286" y="14" on="0"/>
        <pt x="359" y="34" on="0"/>
        <pt x="413" y="75" on="0"/>
        <pt x="445" y="136" on="0"/>
        <pt x="445" y="177" on="1"/>
        <pt x="445" y="220" on="0"/>
        <pt x="408" y="284" on="0"/>
        <pt x="347" y="324" on="0"/>
        <pt x="269" y="344" on="0"/>
        <pt x="227" y="344" on="1"/>
      </contour>
      <contour>
        <pt x="84" y="0" on="1"/>
        <pt x="84" y="700" on="1"/>
        <pt x="229" y="700" on="1"/>
        <pt x="274" y="700" on="0"/>
        <pt x="349" y="680" on="0"/>
        <pt x="403" y="638" on="0"/>
        <pt x="432" y="571" on="0"/>
        <pt x="432" y="525" on="1"/>
        <pt x="432" y="463" on="0"/>
        <pt x="370" y="369" on="0"/>
        <pt x="305" y="352" on="1"/>
        <pt x="335" y="346" on="0"/>
        <pt x="391" y="318" on="0"/>
        <pt x="434" y="274" on="0"/>
        <pt x="459" y="216" on="0"/>
        <pt x="459" y="180" on="1"/>
        <pt x="459" y="135" on="0"/>
        <pt x="423" y="68" on="0"/>
        <pt x="364" y="23" on="0"/>
        <pt x="288" y="0" on="0"/>
        <pt x="247" y="0" on="1"/>
      </contour>
    </TTGlyph>
    <TTGlyph name="C" xMin="62" yMin="-8" xMax="602" yMax="708">
      <contour>
        <pt x="592" y="54" on="1"/>
        <pt x="601" y="42" on="1"/>
        <pt x="561" y="19" on="0"/>
        <pt x="470" y="-8" on="0"/>
        <pt x="419" y="-8" on="1"/>
        <pt x="345" y="-8" on="0"/>
        <pt x="215" y="48" on="0"/>
        <pt x="118" y="145" on="0"/>
        <pt x="62" y="275" on="0"/>
        <pt x="62" y="349" on="1"/>
        <pt x="62" y="423" on="0"/>
        <pt x="118" y="554" on="0"/>
        <pt x="215" y="651" on="0"/>
        <pt x="345" y="708" on="0"/>
        <pt x="419" y="708" on="1"/>
        <pt x="470" y="708" on="0"/>
        <pt x="561" y="682" on="0"/>
        <pt x="602" y="658" on="1"/>
        <pt x="600" y="655" on="0"/>
        <pt x="596" y="649" on="0"/>
        <pt x="594" y="646" on="1"/>
        <pt x="556" y="669" on="0"/>
        <pt x="467" y="694" on="0"/>
        <pt x="419" y="694" on="1"/>
        <pt x="348" y="694" on="0"/>
        <pt x="223" y="639" on="0"/>
        <pt x="130" y="545" on="0"/>
        <pt x="76" y="419" on="0"/>
        <pt x="76" y="348" on="1"/>
        <pt x="76" y="277" on="0"/>
        <pt x="130" y="153" on="0"/>
        <pt x="222" y="60" on="0"/>
        <pt x="346" y="6" on="0"/>
        <pt x="416" y="6" on="1"/>
        <pt x="464" y="6" on="0"/>
        <pt x="553" y="31" on="0"/>
      </contour>
    </TTGlyph>
    <TTGlyph name="Ccedilla" xMin="62" yMin="-223" xMax="602" yMax="708">
      <contour>
        <pt x="592" y="54" on="1"/>
        <pt x="601" y="42" on="1"/>
        <pt x="561" y="19" on="0"/>
        <pt x="470" y="-8" on="0"/>
        <pt x="419" y="-8" on="1"/>
        <pt x="420" y="-33" on="0"/>
        <pt x="447" y="-53" on="0"/>
        <pt x="460" y="-61" on="1"/>
        <pt x="483" y="-76" on="0"/>
        <pt x="502" y="-113" on="0"/>
        <pt x="502" y="-127" on="1"/>
        <pt x="502" y="-178" on="0"/>
        <pt x="451" y="-223" on="0"/>
        <pt x="418" y="-223" on="1"/>
        <pt x="392" y="-223" on="0"/>
        <pt x="347" y="-194" on="0"/>
        <pt x="337" y="-165" on="1"/>
        <pt x="341" y="-164" on="0"/>
        <pt x="348" y="-162" on="0"/>
        <pt x="352" y="-161" on="1"/>
        <pt x="358" y="-182" on="0"/>
        <pt x="393" y="-209" on="0"/>
        <pt x="418" y="-209" on="1"/>
        <pt x="449" y="-209" on="0"/>
        <pt x="488" y="-168" on="0"/>
        <pt x="488" y="-137" on="1"/>
        <pt x="488" y="-109" on="0"/>
        <pt x="462" y="-79" on="0"/>
        <pt x="431" y="-58" on="0"/>
        <pt x="405" y="-36" on="0"/>
        <pt x="405" y="-16" on="1"/>
        <pt x="405" y="-7" on="1"/>
        <pt x="333" y="-4" on="0"/>
        <pt x="208" y="53" on="0"/>
        <pt x="115" y="149" on="0"/>
        <pt x="62" y="277" on="0"/>
        <pt x="62" y="349" on="1"/>
        <pt x="62" y="423" on="0"/>
        <pt x="118" y="554" on="0"/>
        <pt x="215" y="651" on="0"/>
        <pt x="345" y="708" on="0"/>
        <pt x="419" y="708" on="1"/>
        <pt x="470" y="708" on="0"/>
        <pt x="561" y="682" on="0"/>
        <pt x="602" y="658" on="1"/>
        <pt x="600" y="655" on="0"/>
        <pt x="596" y="649" on="0"/>
        <pt x="594" y="646" on="1"/>
        <pt x="556" y="669" on="0"/>
        <pt x="467" y="694" on="0"/>
        <pt x="419" y="694" on="1"/>
        <pt x="348" y="694" on="0"/>
        <pt x="223" y="639" on="0"/>
        <pt x="130" y="545" on="0"/>
        <pt x="76" y="419" on="0"/>
        <pt x="76" y="348" on="1"/>
        <pt x="76" y="277" on="0"/>
        <pt x="130" y="153" on="0"/>
        <pt x="222" y="60" on="0"/>
        <pt x="346" y="6" on="0"/>
        <pt x="416" y="6" on="1"/>
        <pt x="464" y="6" on="0"/>
        <pt x="553" y="31" on="0"/>
      </contour>
    </TTGlyph>
    <TTGlyph name="D" xMin="86" yMin="0" xMax="575" yMax="700">
      <contour>
        <pt x="86" y="700" on="1"/>
        <pt x="223" y="700" on="1"/>
        <pt x="295" y="700" on="0"/>
        <pt x="423" y="651" on="0"/>
        <pt x="519" y="560" on="0"/>
        <pt x="575" y="430" on="0"/>
        <pt x="575" y="350" on="1"/>
        <pt x="575" y="291" on="0"/>
        <pt x="534" y="167" on="0"/>
        <pt x="442" y="65" on="0"/>
        <pt x="295" y="0" on="0"/>
        <pt x="189" y="0" on="1"/>
        <pt x="86" y="0" on="1"/>
      </contour>
      <contour>
        <pt x="100" y="686" on="1"/>
        <pt x="100" y="15" on="1"/>
        <pt x="198" y="15" on="1"/>
        <pt x="297" y="15" on="0"/>
        <pt x="436" y="77" on="0"/>
        <pt x="523" y="175" on="0"/>
        <pt x="562" y="293" on="0"/>
        <pt x="562" y="350" on="1"/>
        <pt x="562" y="427" on="0"/>
        <pt x="509" y="552" on="0"/>
        <pt x="417" y="639" on="0"/>
        <pt x="296" y="686" on="0"/>
        <pt x="229" y="686" on="1"/>
      </contour>
    </TTGlyph>
    <TTGlyph name="E" xMin="95" yMin="0" xMax="514" yMax="700">
      <contour>
        <pt x="95" y="0" on="1"/>
        <pt x="95" y="700" on="1"/>
        <pt x="500" y="700" on="1"/>
        <pt x="500" y="686" on="1"/>
        <pt x="109" y="686" on="1"/>
        <pt x="109" y="360" on="1"/>
        <pt x="461" y="360" on="1"/>
        <pt x="461" y="346" on="1"/>
        <pt x="109" y="346" on="1"/>
        <pt x="109" y="14" on="1"/>
        <pt x="514" y="14" on="1"/>
        <pt x="514" y="0" on="1"/>
      </contour>
    </TTGlyph>
    <TTGlyph name="Eacute" xMin="95" yMin="0" xMax="514" yMax="883">
      <component glyphName="E" x="0" y="0" flags="0x204"/>
      <component glyphName="acute" x="177" y="271" flags="0x4"/>
    </TTGlyph>
    <TTGlyph name="Ecircumflex" xMin="95" yMin="0" xMax="514" yMax="931">
      <component glyphName="E" x="0" y="0" flags="0x204"/>
      <component glyphName="asciicircum" x="68" y="271" flags="0x4"/>
    </TTGlyph>
    <TTGlyph name="Edieresis" xMin="95" yMin="0" xMax="514" yMax="810">
      <component glyphName="E" x="0" y="0" flags="0x204"/>
      <component glyphName="dieresis" x="112" y="290" flags="0x4"/>
    </TTGlyph>
    <TTGlyph name="Egrave" xMin="95" yMin="0" xMax="514" yMax="883">
      <component glyphName="E" x="0" y="0" flags="0x204"/>
      <component glyphName="grave" x="213" y="271" flags="0x4"/>
    </TTGlyph>
    <TTGlyph name="Eth" xMin="22" yMin="0" xMax="575" yMax="700">
      <contour>
        <pt x="100" y="346" on="1"/>
        <pt x="100" y="14" on="1"/>
        <pt x="200" y="14" on="1"/>
        <pt x="277" y="14" on="0"/>
        <pt x="409" y="61" on="0"/>
        <pt x="507" y="149" on="0"/>
        <pt x="562" y="273" on="0"/>
        <pt x="562" y="350" on="1"/>
        <pt x="562" y="428" on="0"/>
        <pt x="509" y="552" on="0"/>
        <pt x="413" y="639" on="0"/>
        <pt x="280" y="686" on="0"/>
        <pt x="200" y="686" on="1"/>
        <pt x="100" y="686" on="1"/>
        <pt x="100" y="360" on="1"/>
        <pt x="324" y="360" on="1"/>
        <pt x="324" y="346" on="1"/>
      </contour>
      <contour>
        <pt x="86" y="360" on="1"/>
        <pt x="86" y="700" on="1"/>
        <pt x="223" y="700" on="1"/>
        <pt x="295" y="700" on="0"/>
        <pt x="423" y="651" on="0"/>
        <pt x="519" y="560" on="0"/>
        <pt x="575" y="430" on="0"/>
        <pt x="575" y="350" on="1"/>
        <pt x="575" y="291" on="0"/>
        <pt x="534" y="167" on="0"/>
        <pt x="442" y="65" on="0"/>
        <pt x="295" y="0" on="0"/>
        <pt x="189" y="0" on="1"/>
        <pt x="86" y="0" on="1"/>
        <pt x="86" y="346" on="1"/>
        <pt x="22" y="346" on="1"/>
        <pt x="22" y="360" on="1"/>
      </contour>
    </TTGlyph>
    <TTGlyph name="F" xMin="95" yMin="0" xMax="500" yMax="700">
      <contour>
        <pt x="95" y="0" on="1"/>
        <pt x="95" y="700" on="1"/>
        <pt x="500" y="700" on="1"/>
        <pt x="500" y="686" on="1"/>
        <pt x="109" y="686" on="1"/>
        <pt x="109" y="360" on="1"/>
        <pt x="461" y="360" on="1"/>
        <pt x="461" y="346" on="1"/>
        <pt x="109" y="346" on="1"/>
        <pt x="109" y="0" on="1"/>
      </contour>
    </TTGlyph>
    <TTGlyph name="G" xMin="62" yMin="-8" xMax="602" yMax="708">
      <contour>
        <pt x="415" y="286" on="1"/>
        <pt x="415" y="300" on="1"/>
        <pt x="543" y="300" on="1"/>
        <pt x="574" y="300" on="0"/>
        <pt x="601" y="284" on="0"/>
        <pt x="601" y="255" on="1"/>
        <pt x="601" y="42" on="1"/>
        <pt x="561" y="19" on="0"/>
        <pt x="470" y="-8" on="0"/>
        <pt x="419" y="-8" on="1"/>
        <pt x="345" y="-8" on="0"/>
        <pt x="215" y="48" on="0"/>
        <pt x="118" y="145" on="0"/>
        <pt x="62" y="275" on="0"/>
        <pt x="62" y="349" on="1"/>
        <pt x="62" y="423" on="0"/>
        <pt x="118" y="554" on="0"/>
        <pt x="215" y="651" on="0"/>
        <pt x="345" y="708" on="0"/>
        <pt x="419" y="708" on="1"/>
        <pt x="470" y="708" on="0"/>
        <pt x="561" y="682" on="0"/>
        <pt x="602" y="658" on="1"/>
        <pt x="600" y="655" on="0"/>
        <pt x="596" y="649" on="0"/>
        <pt x="594" y="646" on="1"/>
        <pt x="556" y="669" on="0"/>
        <pt x="467" y="694" on="0"/>
        <pt x="419" y="694" on="1"/>
        <pt x="348" y="694" on="0"/>
        <pt x="223" y="639" on="0"/>
        <pt x="130" y="545" on="0"/>
        <pt x="76" y="419" on="0"/>
        <pt x="76" y="348" on="1"/>
        <pt x="76" y="277" on="0"/>
        <pt x="130" y="153" on="0"/>
        <pt x="222" y="60" on="0"/>
        <pt x="346" y="6" on="0"/>
        <pt x="416" y="6" on="1"/>
        <pt x="463" y="6" on="0"/>
        <pt x="549" y="29" on="0"/>
        <pt x="587" y="51" on="1"/>
        <pt x="587" y="192" on="1"/>
        <pt x="587" y="263" on="1"/>
        <pt x="587" y="272" on="0"/>
        <pt x="574" y="286" on="0"/>
        <pt x="557" y="286" on="1"/>
      </contour>
    </TTGlyph>
    <TTGlyph name="H" xMin="104" yMin="0" xMax="600" yMax="700">
      <contour>
        <pt x="104" y="0" on="1"/>
        <pt x="104" y="700" on="1"/>
        <pt x="118" y="700" on="1"/>
        <pt x="118" y="360" on="1"/>
        <pt x="582" y="360" on="1"/>
        <pt x="582" y="700" on="1"/>
        <pt x="600" y="700" on="1"/>
        <pt x="599" y="524" on="0"/>
        <pt x="597" y="176" on="0"/>
        <pt x="596" y="0" on="1"/>
        <pt x="582" y="0" on="1"/>
        <pt x="582" y="346" on="1"/>
        <pt x="118" y="346" on="1"/>
        <pt x="118" y="0" on="1"/>
      </contour>
    </TTGlyph>
    <TTGlyph name="I" xMin="107" yMin="0" xMax="121" yMax="700">
      <contour>
        <pt x="107" y="700" on="1"/>
        <pt x="121" y="700" on="1"/>
        <pt x="121" y="0" on="1"/>
        <pt x="107" y="0" on="1"/>
      </contour>
    </TTGlyph>
    <TTGlyph name="Iacute" xMin="96" yMin="0" xMax="202" yMax="883">
      <component glyphName="I" x="0" y="0" flags="0x4"/>
      <component glyphName="acute" x="-4" y="271" flags="0x4"/>
    </TTGlyph>
    <TTGlyph name="Icircumflex" xMin="-5" yMin="0" xMax="235" yMax="931">
      <component glyphName="I" x="0" y="0" flags="0x4"/>
      <component glyphName="asciicircum" x="-117" y="271" flags="0x4"/>
    </TTGlyph>
    <TTGlyph name="Idieresis" xMin="12" yMin="0" xMax="217" yMax="810">
      <component glyphName="I" x="0" y="0" flags="0x4"/>
      <component glyphName="dieresis" x="-70" y="290" flags="0x4"/>
    </TTGlyph>
    <TTGlyph name="Igrave" xMin="22" yMin="0" xMax="128" yMax="883">
      <component glyphName="I" x="0" y="0" flags="0x4"/>
      <component glyphName="grave" x="36" y="271" flags="0x4"/>
    </TTGlyph>
    <TTGlyph name="J" xMin="18" yMin="-142" xMax="203" yMax="700">
      <contour>
        <pt x="18" y="-142" on="1"/>
        <pt x="18" y="-128" on="1"/>
        <pt x="55" y="-126" on="0"/>
        <pt x="117" y="-95" on="0"/>
        <pt x="163" y="-38" on="0"/>
        <pt x="189" y="42" on="0"/>
        <pt x="189" y="93" on="1"/>
        <pt x="189" y="700" on="1"/>
        <pt x="203" y="700" on="1"/>
        <pt x="203" y="90" on="1"/>
        <pt x="203" y="34" on="0"/>
        <pt x="174" y="-51" on="0"/>
        <pt x="123" y="-109" on="0"/>
        <pt x="56" y="-141" on="0"/>
      </contour>
    </TTGlyph>
    <TTGlyph name="K" xMin="77" yMin="0" xMax="540" yMax="700">
      <contour>
        <pt x="540" y="0" on="1"/>
        <pt x="520" y="0" on="1"/>
        <pt x="438" y="104" on="0"/>
        <pt x="276" y="310" on="0"/>
        <pt x="194" y="414" on="1"/>
        <pt x="168" y="389" on="0"/>
        <pt x="116" y="341" on="0"/>
        <pt x="90" y="316" on="1"/>
        <pt x="90" y="237" on="0"/>
        <pt x="91" y="79" on="0"/>
        <pt x="91" y="0" on="1"/>
        <pt x="77" y="0" on="1"/>
        <pt x="77" y="700" on="1"/>
        <pt x="91" y="700" on="1"/>
        <pt x="91" y="360" on="1"/>
        <pt x="91" y="352" on="0"/>
        <pt x="90" y="339" on="0"/>
        <pt x="90" y="331" on="1"/>
        <pt x="95" y="336" on="0"/>
        <pt x="102" y="346" on="0"/>
        <pt x="107" y="351" on="1"/>
        <pt x="199" y="439" on="0"/>
        <pt x="381" y="612" on="0"/>
        <pt x="473" y="700" on="1"/>
        <pt x="495" y="700" on="1"/>
        <pt x="422" y="631" on="0"/>
        <pt x="278" y="493" on="0"/>
        <pt x="205" y="424" on="1"/>
        <pt x="290" y="318" on="0"/>
        <pt x="455" y="106" on="0"/>
      </contour>
    </TTGlyph>
    <TTGlyph name="L" xMin="95" yMin="0" xMax="514" yMax="700">
      <contour>
        <pt x="95" y="0" on="1"/>
        <pt x="95" y="700" on="1"/>
        <pt x="109" y="700" on="1"/>
        <pt x="109" y="14" on="1"/>
        <pt x="514" y="14" on="1"/>
        <pt x="514" y="0" on="1"/>
      </contour>
    </TTGlyph>
    <TTGlyph name="M" xMin="100" yMin="0" xMax="832" yMax="732">
      <contour>
        <pt x="100" y="732" on="1"/>
        <pt x="192" y="613" on="0"/>
        <pt x="374" y="376" on="0"/>
        <pt x="466" y="257" on="1"/>
        <pt x="558" y="376" on="0"/>
        <pt x="740" y="613" on="0"/>
        <pt x="832" y="732" on="1"/>
        <pt x="832" y="0" on="1"/>
        <pt x="818" y="0" on="1"/>
        <pt x="818" y="430" on="1"/>
        <pt x="818" y="645" on="1"/>
        <pt x="818" y="656" on="0"/>
        <pt x="819" y="679" on="0"/>
        <pt x="819" y="690" on="1"/>
        <pt x="731" y="572" on="0"/>
        <pt x="555" y="344" on="0"/>
        <pt x="466" y="228" on="1"/>
        <pt x="397" y="319" on="0"/>
        <pt x="260" y="496" on="0"/>
        <pt x="191" y="587" on="1"/>
        <pt x="122" y="677" on="1"/>
        <pt x="120" y="680" on="0"/>
        <pt x="115" y="687" on="0"/>
        <pt x="113" y="690" on="1"/>
        <pt x="113" y="679" on="0"/>
        <pt x="114" y="656" on="0"/>
        <pt x="114" y="645" on="1"/>
        <pt x="114" y="0" on="1"/>
        <pt x="100" y="0" on="1"/>
      </contour>
    </TTGlyph>
    <TTGlyph name="N" xMin="100" yMin="-32" xMax="711" yMax="732">
      <contour>
        <pt x="711" y="700" on="1"/>
        <pt x="711" y="-32" on="1"/>
        <pt x="565" y="145" on="0"/>
        <pt x="276" y="493" on="0"/>
        <pt x="130" y="670" on="1"/>
        <pt x="125" y="677" on="0"/>
        <pt x="116" y="689" on="0"/>
        <pt x="111" y="696" on="1"/>
        <pt x="112" y="688" on="0"/>
        <pt x="113" y="672" on="0"/>
        <pt x="114" y="664" on="1"/>
        <pt x="114" y="0" on="1"/>
        <pt x="100" y="0" on="1"/>
        <pt x="100" y="732" on="1"/>
        <pt x="246" y="554" on="0"/>
        <pt x="535" y="205" on="0"/>
        <pt x="681" y="28" on="1"/>
        <pt x="686" y="21" on="0"/>
        <pt x="695" y="9" on="0"/>
        <pt x="700" y="2" on="1"/>
        <pt x="699" y="10" on="0"/>
        <pt x="698" y="26" on="0"/>
        <pt x="697" y="34" on="1"/>
        <pt x="697" y="700" on="1"/>
      </contour>
    </TTGlyph>
    <TTGlyph name="Ntilde" xMin="100" yMin="-32" xMax="711" yMax="834">
      <component glyphName="N" x="0" y="0" flags="0x204"/>
      <component glyphName="asciitilde" x="138" y="293" flags="0x4"/>
    </TTGlyph>
    <TTGlyph name="O" xMin="62" yMin="-8" xMax="778" yMax="708">
      <contour>
        <pt x="62" y="349" on="1"/>
        <pt x="62" y="423" on="0"/>
        <pt x="118" y="554" on="0"/>
        <pt x="215" y="651" on="0"/>
        <pt x="345" y="708" on="0"/>
        <pt x="419" y="708" on="1"/>
        <pt x="493" y="708" on="0"/>
        <pt x="624" y="651" on="0"/>
        <pt x="721" y="554" on="0"/>
        <pt x="778" y="423" on="0"/>
        <pt x="778" y="349" on="1"/>
        <pt x="778" y="275" on="0"/>
        <pt x="721" y="145" on="0"/>
        <pt x="624" y="48" on="0"/>
        <pt x="493" y="-8" on="0"/>
        <pt x="419" y="-8" on="1"/>
        <pt x="345" y="-8" on="0"/>
        <pt x="215" y="48" on="0"/>
        <pt x="118" y="145" on="0"/>
        <pt x="62" y="275" on="0"/>
      </contour>
      <contour>
        <pt x="76" y="348" on="1"/>
        <pt x="76" y="277" on="0"/>
        <pt x="130" y="153" on="0"/>
        <pt x="222" y="60" on="0"/>
        <pt x="346" y="6" on="0"/>
        <pt x="416" y="6" on="1"/>
        <pt x="487" y="6" on="0"/>
        <pt x="614" y="60" on="0"/>
        <pt x="709" y="153" on="0"/>
        <pt x="764" y="278" on="0"/>
        <pt x="764" y="349" on="1"/>
        <pt x="764" y="420" on="0"/>
        <pt x="709" y="545" on="0"/>
        <pt x="615" y="639" on="0"/>
        <pt x="490" y="694" on="0"/>
        <pt x="419" y="694" on="1"/>
        <pt x="348" y="694" on="0"/>
        <pt x="223" y="639" on="0"/>
        <pt x="130" y="545" on="0"/>
        <pt x="76" y="419" on="0"/>
      </contour>
    </TTGlyph>
    <TTGlyph name="Oacute" xMin="63" yMin="-8" xMax="779" yMax="883">
      <component glyphName="O" x="1" y="0" flags="0x204"/>
      <component glyphName="acute" x="300" y="271" flags="0x4"/>
    </TTGlyph>
    <TTGlyph name="Ocircumflex" xMin="63" yMin="-8" xMax="779" yMax="931">
      <component glyphName="O" x="1" y="0" flags="0x4"/>
      <component glyphName="asciicircum" x="184" y="271" flags="0x4"/>
    </TTGlyph>
    <TTGlyph name="Odieresis" xMin="63" yMin="-8" xMax="779" yMax="810">
      <component glyphName="O" x="1" y="0" flags="0x4"/>
      <component glyphName="dieresis" x="235" y="290" flags="0x4"/>
    </TTGlyph>
    <TTGlyph name="Ograve" xMin="63" yMin="-8" xMax="779" yMax="883">
      <component glyphName="O" x="1" y="0" flags="0x4"/>
      <component glyphName="grave" x="342" y="271" flags="0x4"/>
    </TTGlyph>
    <TTGlyph name="Oslash" xMin="62" yMin="-8" xMax="778" yMax="708">
      <contour>
        <pt x="76" y="348" on="1"/>
        <pt x="76" y="272" on="0"/>
        <pt x="136" y="142" on="0"/>
        <pt x="187" y="95" on="1"/>
        <pt x="298" y="228" on="0"/>
        <pt x="517" y="489" on="0"/>
        <pt x="628" y="622" on="1"/>
        <pt x="584" y="656" on="0"/>
        <pt x="478" y="694" on="0"/>
        <pt x="419" y="694" on="1"/>
        <pt x="348" y="694" on="0"/>
        <pt x="223" y="639" on="0"/>
        <pt x="130" y="545" on="0"/>
        <pt x="76" y="419" on="0"/>
      </contour>
      <contour>
        <pt x="416" y="6" on="1"/>
        <pt x="487" y="6" on="0"/>
        <pt x="614" y="60" on="0"/>
        <pt x="709" y="153" on="0"/>
        <pt x="764" y="278" on="0"/>
        <pt x="764" y="349" on="1"/>
        <pt x="764" y="429" on="0"/>
        <pt x="695" y="567" on="0"/>
        <pt x="637" y="615" on="1"/>
        <pt x="196" y="87" on="1"/>
        <pt x="241" y="49" on="0"/>
        <pt x="353" y="6" on="0"/>
      </contour>
      <contour>
        <pt x="62" y="349" on="1"/>
        <pt x="62" y="423" on="0"/>
        <pt x="118" y="554" on="0"/>
        <pt x="215" y="651" on="0"/>
        <pt x="345" y="708" on="0"/>
        <pt x="419" y="708" on="1"/>
        <pt x="481" y="708" on="0"/>
        <pt x="592" y="668" on="0"/>
        <pt x="638" y="633" on="1"/>
        <pt x="654" y="652" on="0"/>
        <pt x="684" y="689" on="0"/>
        <pt x="700" y="708" on="1"/>
        <pt x="702" y="706" on="0"/>
        <pt x="707" y="702" on="0"/>
        <pt x="709" y="700" on="1"/>
        <pt x="693" y="681" on="0"/>
        <pt x="663" y="645" on="0"/>
        <pt x="647" y="626" on="1"/>
        <pt x="707" y="576" on="0"/>
        <pt x="778" y="433" on="0"/>
        <pt x="778" y="349" on="1"/>
        <pt x="778" y="275" on="0"/>
        <pt x="721" y="145" on="0"/>
        <pt x="624" y="48" on="0"/>
        <pt x="493" y="-8" on="0"/>
        <pt x="419" y="-8" on="1"/>
        <pt x="353" y="-8" on="0"/>
        <pt x="235" y="37" on="0"/>
        <pt x="188" y="77" on="1"/>
        <pt x="170" y="56" on="0"/>
        <pt x="135" y="13" on="0"/>
        <pt x="117" y="-8" on="1"/>
        <pt x="115" y="-6" on="0"/>
        <pt x="110" y="-2" on="0"/>
        <pt x="108" y="0" on="1"/>
        <pt x="126" y="21" on="0"/>
        <pt x="161" y="64" on="0"/>
        <pt x="179" y="85" on="1"/>
        <pt x="125" y="134" on="0"/>
        <pt x="62" y="270" on="0"/>
      </contour>
    </TTGlyph>
    <TTGlyph name="Otilde" xMin="63" yMin="-8" xMax="779" yMax="868">
      <component glyphName="O" x="1" y="0" flags="0x4"/>
      <component glyphName="asciitilde" x="141" y="327" flags="0x4"/>
    </TTGlyph>
    <TTGlyph name="P" xMin="84" yMin="0" xMax="424" yMax="700">
      <contour>
        <pt x="98" y="355" on="1"/>
        <pt x="213" y="355" on="1"/>
        <pt x="271" y="355" on="0"/>
        <pt x="347" y="387" on="0"/>
        <pt x="392" y="436" on="0"/>
        <pt x="410" y="495" on="0"/>
        <pt x="410" y="522" on="1"/>
        <pt x="410" y="555" on="0"/>
        <pt x="380" y="614" on="0"/>
        <pt x="327" y="659" on="0"/>
        <pt x="256" y="686" on="0"/>
        <pt x="214" y="686" on="1"/>
        <pt x="98" y="686" on="1"/>
      </contour>
      <contour>
        <pt x="84" y="0" on="1"/>
        <pt x="84" y="700" on="1"/>
        <pt x="224" y="700" on="1"/>
        <pt x="253" y="700" on="0"/>
        <pt x="323" y="680" on="0"/>
        <pt x="383" y="638" on="0"/>
        <pt x="424" y="570" on="0"/>
        <pt x="424" y="522" on="1"/>
        <pt x="424" y="439" on="0"/>
        <pt x="313" y="341" on="0"/>
        <pt x="210" y="341" on="1"/>
        <pt x="98" y="341" on="1"/>
        <pt x="98" y="0" on="1"/>
      </contour>
    </TTGlyph>
    <TTGlyph name="Q" xMin="62" yMin="-8" xMax="800" yMax="708">
      <contour>
        <pt x="76" y="348" on="1"/>
        <pt x="76" y="277" on="0"/>
        <pt x="130" y="153" on="0"/>
        <pt x="222" y="60" on="0"/>
        <pt x="346" y="6" on="0"/>
        <pt x="416" y="6" on="1"/>
        <pt x="487" y="6" on="0"/>
        <pt x="614" y="60" on="0"/>
        <pt x="709" y="153" on="0"/>
        <pt x="764" y="278" on="0"/>
        <pt x="764" y="349" on="1"/>
        <pt x="764" y="420" on="0"/>
        <pt x="709" y="545" on="0"/>
        <pt x="615" y="639" on="0"/>
        <pt x="490" y="694" on="0"/>
        <pt x="419" y="694" on="1"/>
        <pt x="348" y="694" on="0"/>
        <pt x="223" y="639" on="0"/>
        <pt x="130" y="545" on="0"/>
        <pt x="76" y="419" on="0"/>
      </contour>
      <contour>
        <pt x="62" y="349" on="1"/>
        <pt x="62" y="423" on="0"/>
        <pt x="118" y="554" on="0"/>
        <pt x="215" y="651" on="0"/>
        <pt x="345" y="708" on="0"/>
        <pt x="419" y="708" on="1"/>
        <pt x="493" y="708" on="0"/>
        <pt x="624" y="651" on="0"/>
        <pt x="721" y="554" on="0"/>
        <pt x="778" y="423" on="0"/>
        <pt x="778" y="349" on="1"/>
        <pt x="778" y="291" on="0"/>
        <pt x="743" y="186" on="0"/>
        <pt x="681" y="99" on="0"/>
        <pt x="594" y="33" on="0"/>
        <pt x="543" y="14" on="1"/>
        <pt x="800" y="14" on="1"/>
        <pt x="800" y="0" on="1"/>
        <pt x="493" y="0" on="1"/>
        <pt x="455" y="-8" on="0"/>
        <pt x="419" y="-8" on="1"/>
        <pt x="345" y="-8" on="0"/>
        <pt x="215" y="48" on="0"/>
        <pt x="118" y="145" on="0"/>
        <pt x="62" y="275" on="0"/>
      </contour>
    </TTGlyph>
    <TTGlyph name="R" xMin="84" yMin="0" xMax="435" yMax="700">
      <contour>
        <pt x="98" y="355" on="1"/>
        <pt x="213" y="355" on="1"/>
        <pt x="271" y="355" on="0"/>
        <pt x="347" y="387" on="0"/>
        <pt x="392" y="436" on="0"/>
        <pt x="410" y="495" on="0"/>
        <pt x="410" y="522" on="1"/>
        <pt x="410" y="555" on="0"/>
        <pt x="380" y="614" on="0"/>
        <pt x="327" y="659" on="0"/>
        <pt x="256" y="686" on="0"/>
        <pt x="214" y="686" on="1"/>
        <pt x="98" y="686" on="1"/>
      </contour>
      <contour>
        <pt x="84" y="0" on="1"/>
        <pt x="84" y="700" on="1"/>
        <pt x="224" y="700" on="1"/>
        <pt x="253" y="700" on="0"/>
        <pt x="323" y="680" on="0"/>
        <pt x="383" y="638" on="0"/>
        <pt x="424" y="570" on="0"/>
        <pt x="424" y="522" on="1"/>
        <pt x="424" y="453" on="0"/>
        <pt x="346" y="360" on="0"/>
        <pt x="272" y="346" on="1"/>
        <pt x="313" y="259" on="0"/>
        <pt x="394" y="87" on="0"/>
        <pt x="435" y="0" on="1"/>
        <pt x="420" y="0" on="1"/>
        <pt x="379" y="87" on="0"/>
        <pt x="298" y="257" on="0"/>
        <pt x="257" y="344" on="1"/>
        <pt x="234" y="341" on="0"/>
        <pt x="210" y="341" on="1"/>
        <pt x="98" y="341" on="1"/>
        <pt x="98" y="0" on="1"/>
      </contour>
    </TTGlyph>
    <TTGlyph name="S" xMin="80" yMin="-8" xMax="484" yMax="704">
      <contour>
        <pt x="420" y="647" on="1"/>
        <pt x="418" y="644" on="0"/>
        <pt x="414" y="638" on="0"/>
        <pt x="412" y="635" on="1"/>
        <pt x="403" y="643" on="0"/>
        <pt x="376" y="662" on="0"/>
        <pt x="340" y="679" on="0"/>
        <pt x="296" y="690" on="0"/>
        <pt x="270" y="690" on="1"/>
        <pt x="231" y="690" on="0"/>
        <pt x="172" y="663" on="0"/>
        <pt x="133" y="618" on="0"/>
        <pt x="114" y="561" on="0"/>
        <pt x="114" y="530" on="1"/>
        <pt x="114" y="498" on="0"/>
        <pt x="133" y="454" on="0"/>
        <pt x="167" y="422" on="0"/>
        <pt x="217" y="398" on="0"/>
        <pt x="249" y="388" on="1"/>
        <pt x="280" y="378" on="0"/>
        <pt x="361" y="354" on="0"/>
        <pt x="434" y="310" on="0"/>
        <pt x="484" y="241" on="0"/>
        <pt x="484" y="186" on="1"/>
        <pt x="484" y="142" on="0"/>
        <pt x="451" y="70" on="0"/>
        <pt x="393" y="19" on="0"/>
        <pt x="316" y="-8" on="0"/>
        <pt x="272" y="-8" on="1"/>
        <pt x="232" y="-8" on="0"/>
        <pt x="169" y="12" on="0"/>
        <pt x="122" y="40" on="0"/>
        <pt x="89" y="69" on="0"/>
        <pt x="80" y="78" on="1"/>
        <pt x="92" y="90" on="1"/>
        <pt x="106" y="75" on="0"/>
        <pt x="142" y="45" on="0"/>
        <pt x="186" y="21" on="0"/>
        <pt x="239" y="6" on="0"/>
        <pt x="270" y="6" on="1"/>
        <pt x="309" y="6" on="0"/>
        <pt x="381" y="31" on="0"/>
        <pt x="436" y="77" on="0"/>
        <pt x="470" y="142" on="0"/>
        <pt x="470" y="182" on="1"/>
        <pt x="470" y="230" on="0"/>
        <pt x="430" y="293" on="0"/>
        <pt x="368" y="335" on="0"/>
        <pt x="293" y="360" on="0"/>
        <pt x="258" y="371" on="1"/>
        <pt x="239" y="376" on="0"/>
        <pt x="187" y="394" on="0"/>
        <pt x="138" y="427" on="0"/>
        <pt x="102" y="478" on="0"/>
        <pt x="100" y="517" on="1"/>
        <pt x="98" y="550" on="0"/>
        <pt x="116" y="617" on="0"/>
        <pt x="158" y="671" on="0"/>
        <pt x="225" y="704" on="0"/>
        <pt x="272" y="704" on="1"/>
        <pt x="310" y="704" on="0"/>
        <pt x="384" y="679" on="0"/>
      </contour>
    </TTGlyph>
    <TTGlyph name="T" xMin="0" yMin="0" xMax="553" yMax="700">
      <contour>
        <pt x="553" y="700" on="1"/>
        <pt x="553" y="686" on="1"/>
        <pt x="283" y="686" on="1"/>
        <pt x="283" y="0" on="1"/>
        <pt x="269" y="0" on="1"/>
        <pt x="269" y="686" on="1"/>
        <pt x="0" y="686" on="1"/>
        <pt x="0" y="700" on="1"/>
      </contour>
    </TTGlyph>
    <TTGlyph name="Thorn" xMin="100" yMin="0" xMax="440" yMax="700">
      <contour>
        <pt x="114" y="190" on="1"/>
        <pt x="229" y="190" on="1"/>
        <pt x="287" y="190" on="0"/>
        <pt x="363" y="222" on="0"/>
        <pt x="408" y="271" on="0"/>
        <pt x="426" y="330" on="0"/>
        <pt x="426" y="357" on="1"/>
        <pt x="426" y="390" on="0"/>
        <pt x="396" y="449" on="0"/>
        <pt x="343" y="494" on="0"/>
        <pt x="272" y="521" on="0"/>
        <pt x="230" y="521" on="1"/>
        <pt x="114" y="521" on="1"/>
      </contour>
      <contour>
        <pt x="114" y="0" on="1"/>
        <pt x="100" y="0" on="1"/>
        <pt x="100" y="700" on="1"/>
        <pt x="114" y="700" on="1"/>
        <pt x="114" y="535" on="1"/>
        <pt x="240" y="535" on="1"/>
        <pt x="269" y="535" on="0"/>
        <pt x="339" y="515" on="0"/>
        <pt x="399" y="473" on="0"/>
        <pt x="440" y="405" on="0"/>
        <pt x="440" y="357" on="1"/>
        <pt x="440" y="274" on="0"/>
        <pt x="329" y="176" on="0"/>
        <pt x="226" y="176" on="1"/>
        <pt x="114" y="176" on="1"/>
      </contour>
    </TTGlyph>
    <TTGlyph name="U" xMin="102" yMin="-8" xMax="552" yMax="700">
      <contour>
        <pt x="327" y="-8" on="1"/>
        <pt x="279" y="-8" on="0"/>
        <pt x="196" y="22" on="0"/>
        <pt x="136" y="81" on="0"/>
        <pt x="102" y="169" on="0"/>
        <pt x="102" y="226" on="1"/>
        <pt x="102" y="700" on="1"/>
        <pt x="116" y="700" on="1"/>
        <pt x="116" y="229" on="1"/>
        <pt x="116" y="175" on="0"/>
        <pt x="147" y="92" on="0"/>
        <pt x="203" y="35" on="0"/>
        <pt x="281" y="6" on="0"/>
        <pt x="327" y="6" on="1"/>
        <pt x="372" y="6" on="0"/>
        <pt x="450" y="35" on="0"/>
        <pt x="506" y="92" on="0"/>
        <pt x="538" y="175" on="0"/>
        <pt x="538" y="229" on="1"/>
        <pt x="538" y="700" on="1"/>
        <pt x="552" y="700" on="1"/>
        <pt x="552" y="226" on="1"/>
        <pt x="552" y="169" on="0"/>
        <pt x="517" y="81" on="0"/>
        <pt x="457" y="22" on="0"/>
        <pt x="375" y="-8" on="0"/>
      </contour>
    </TTGlyph>
    <TTGlyph name="Uacute" xMin="104" yMin="-8" xMax="554" yMax="883">
      <component glyphName="U" x="2" y="0" flags="0x204"/>
      <component glyphName="acute" x="200" y="271" flags="0x4"/>
    </TTGlyph>
    <TTGlyph name="Ucircumflex" xMin="104" yMin="-8" xMax="554" yMax="981">
      <component glyphName="U" x="2" y="0" flags="0x204"/>
      <component glyphName="asciicircum" x="94" y="321" flags="0x4"/>
    </TTGlyph>
    <TTGlyph name="Udieresis" xMin="104" yMin="-8" xMax="554" yMax="810">
      <component glyphName="U" x="2" y="0" flags="0x204"/>
      <component glyphName="dieresis" x="145" y="290" flags="0x4"/>
    </TTGlyph>
    <TTGlyph name="Ugrave" xMin="104" yMin="-8" xMax="554" yMax="883">
      <component glyphName="U" x="2" y="0" flags="0x204"/>
      <component glyphName="grave" x="247" y="271" flags="0x4"/>
    </TTGlyph>
    <TTGlyph name="V" xMin="54" yMin="-32" xMax="674" yMax="700">
      <contour>
        <pt x="659" y="700" on="1"/>
        <pt x="674" y="700" on="1"/>
        <pt x="596" y="516" on="0"/>
        <pt x="442" y="152" on="0"/>
        <pt x="364" y="-32" on="1"/>
        <pt x="286" y="152" on="0"/>
        <pt x="132" y="516" on="0"/>
        <pt x="54" y="700" on="1"/>
        <pt x="69" y="700" on="1"/>
        <pt x="141" y="530" on="0"/>
        <pt x="283" y="195" on="0"/>
        <pt x="355" y="25" on="1"/>
        <pt x="357" y="19" on="0"/>
        <pt x="362" y="6" on="0"/>
        <pt x="364" y="0" on="1"/>
        <pt x="366" y="6" on="0"/>
        <pt x="371" y="19" on="0"/>
        <pt x="373" y="25" on="1"/>
        <pt x="445" y="195" on="0"/>
        <pt x="587" y="530" on="0"/>
      </contour>
    </TTGlyph>
    <TTGlyph name="W" xMin="54" yMin="-32" xMax="1046" yMax="700">
      <contour>
        <pt x="1031" y="700" on="1"/>
        <pt x="1046" y="700" on="1"/>
        <pt x="968" y="516" on="0"/>
        <pt x="814" y="152" on="0"/>
        <pt x="736" y="-32" on="1"/>
        <pt x="559" y="385" on="1"/>
        <pt x="557" y="390" on="0"/>
        <pt x="552" y="402" on="0"/>
        <pt x="550" y="407" on="1"/>
        <pt x="502" y="297" on="0"/>
        <pt x="411" y="78" on="0"/>
        <pt x="364" y="-32" on="1"/>
        <pt x="286" y="152" on="0"/>
        <pt x="132" y="516" on="0"/>
        <pt x="54" y="700" on="1"/>
        <pt x="69" y="700" on="1"/>
        <pt x="140" y="530" on="0"/>
        <pt x="281" y="194" on="0"/>
        <pt x="355" y="25" on="1"/>
        <pt x="357" y="19" on="0"/>
        <pt x="362" y="6" on="0"/>
        <pt x="364" y="0" on="1"/>
        <pt x="404" y="108" on="0"/>
        <pt x="497" y="319" on="0"/>
        <pt x="542" y="425" on="1"/>
        <pt x="513" y="494" on="0"/>
        <pt x="455" y="631" on="0"/>
        <pt x="426" y="700" on="1"/>
        <pt x="441" y="700" on="1"/>
        <pt x="512" y="530" on="0"/>
        <pt x="653" y="194" on="0"/>
        <pt x="727" y="25" on="1"/>
        <pt x="729" y="19" on="0"/>
        <pt x="734" y="6" on="0"/>
        <pt x="736" y="0" on="1"/>
        <pt x="738" y="6" on="0"/>
        <pt x="743" y="19" on="0"/>
        <pt x="745" y="25" on="1"/>
        <pt x="817" y="195" on="0"/>
        <pt x="959" y="530" on="0"/>
      </contour>
    </TTGlyph>
    <TTGlyph name="X" xMin="93" yMin="0" xMax="575" yMax="700">
      <contour>
        <pt x="323" y="360" on="1"/>
        <pt x="268" y="445" on="0"/>
        <pt x="158" y="615" on="0"/>
        <pt x="103" y="700" on="1"/>
        <pt x="119" y="700" on="1"/>
        <pt x="171" y="620" on="0"/>
        <pt x="275" y="461" on="0"/>
        <pt x="327" y="381" on="1"/>
        <pt x="329" y="378" on="0"/>
        <pt x="333" y="371" on="0"/>
        <pt x="335" y="368" on="1"/>
        <pt x="337" y="371" on="0"/>
        <pt x="341" y="378" on="0"/>
        <pt x="343" y="381" on="1"/>
        <pt x="394" y="461" on="0"/>
        <pt x="496" y="620" on="0"/>
        <pt x="547" y="700" on="1"/>
        <pt x="563" y="700" on="1"/>
        <pt x="508" y="613" on="0"/>
        <pt x="398" y="443" on="0"/>
        <pt x="343" y="356" on="1"/>
        <pt x="401" y="266" on="0"/>
        <pt x="517" y="90" on="0"/>
        <pt x="575" y="0" on="1"/>
        <pt x="558" y="0" on="1"/>
        <pt x="375" y="279" on="1"/>
        <pt x="364" y="296" on="0"/>
        <pt x="343" y="332" on="0"/>
        <pt x="331" y="348" on="1"/>
        <pt x="329" y="345" on="0"/>
        <pt x="325" y="338" on="0"/>
        <pt x="323" y="335" on="1"/>
        <pt x="269" y="250" on="0"/>
        <pt x="163" y="85" on="0"/>
        <pt x="109" y="0" on="1"/>
        <pt x="93" y="0" on="1"/>
        <pt x="151" y="91" on="0"/>
        <pt x="265" y="269" on="0"/>
      </contour>
    </TTGlyph>
    <TTGlyph name="Y" xMin="48" yMin="0" xMax="587" yMax="700">
      <contour>
        <pt x="325" y="262" on="1"/>
        <pt x="325" y="0" on="1"/>
        <pt x="311" y="0" on="1"/>
        <pt x="311" y="262" on="1"/>
        <pt x="245" y="372" on="0"/>
        <pt x="114" y="590" on="0"/>
        <pt x="48" y="700" on="1"/>
        <pt x="65" y="700" on="1"/>
        <pt x="125" y="599" on="0"/>
        <pt x="247" y="400" on="0"/>
        <pt x="306" y="298" on="1"/>
        <pt x="309" y="291" on="0"/>
        <pt x="315" y="279" on="0"/>
        <pt x="318" y="272" on="1"/>
        <pt x="319" y="272" on="1"/>
        <pt x="322" y="279" on="0"/>
        <pt x="327" y="291" on="0"/>
        <pt x="330" y="298" on="1"/>
        <pt x="570" y="700" on="1"/>
        <pt x="587" y="700" on="1"/>
        <pt x="521" y="590" on="0"/>
        <pt x="391" y="372" on="0"/>
      </contour>
    </TTGlyph>
    <TTGlyph name="Yacute" xMin="48" yMin="0" xMax="587" yMax="883">
      <component glyphName="Y" x="0" y="0" flags="0x204"/>
      <component glyphName="acute" x="204" y="271" flags="0x4"/>
    </TTGlyph>
    <TTGlyph name="Z" xMin="81" yMin="0" xMax="640" yMax="735">
      <contour>
        <pt x="144" y="700" on="1"/>
        <pt x="611" y="700" on="1"/>
        <pt x="611" y="686" on="1"/>
        <pt x="101" y="14" on="1"/>
        <pt x="640" y="14" on="1"/>
        <pt x="640" y="0" on="1"/>
        <pt x="81" y="0" on="1"/>
        <pt x="81" y="14" on="1"/>
        <pt x="591" y="686" on="1"/>
        <pt x="158" y="686" on="1"/>
        <pt x="127" y="686" on="0"/>
        <pt x="98" y="702" on="0"/>
        <pt x="98" y="731" on="1"/>
        <pt x="98" y="735" on="1"/>
        <pt x="114" y="735" on="1"/>
        <pt x="114" y="723" on="1"/>
        <pt x="114" y="714" on="0"/>
        <pt x="127" y="700" on="0"/>
      </contour>
    </TTGlyph>
    <TTGlyph name="a" xMin="49" yMin="-6" xMax="438" yMax="383">
      <contour>
        <pt x="63" y="188" on="1"/>
        <pt x="63" y="150" on="0"/>
        <pt x="91" y="85" on="0"/>
        <pt x="140" y="36" on="0"/>
        <pt x="205" y="8" on="0"/>
        <pt x="243" y="8" on="1"/>
        <pt x="280" y="8" on="0"/>
        <pt x="346" y="36" on="0"/>
        <pt x="396" y="85" on="0"/>
        <pt x="424" y="150" on="0"/>
        <pt x="424" y="188" on="1"/>
        <pt x="424" y="225" on="0"/>
        <pt x="396" y="291" on="0"/>
        <pt x="346" y="341" on="0"/>
        <pt x="280" y="369" on="0"/>
        <pt x="243" y="369" on="1"/>
        <pt x="205" y="369" on="0"/>
        <pt x="140" y="341" on="0"/>
        <pt x="91" y="291" on="0"/>
        <pt x="63" y="225" on="0"/>
      </contour>
      <contour>
        <pt x="49" y="188" on="1"/>
        <pt x="49" y="228" on="0"/>
        <pt x="79" y="300" on="0"/>
        <pt x="132" y="352" on="0"/>
        <pt x="202" y="383" on="0"/>
        <pt x="243" y="383" on="1"/>
        <pt x="305" y="383" on="0"/>
        <pt x="402" y="314" on="0"/>
        <pt x="424" y="260" on="1"/>
        <pt x="424" y="289" on="0"/>
        <pt x="426" y="346" on="0"/>
        <pt x="428" y="375" on="1"/>
        <pt x="438" y="375" on="1"/>
        <pt x="438" y="0" on="1"/>
        <pt x="424" y="0" on="1"/>
        <pt x="424" y="54" on="1"/>
        <pt x="424" y="70" on="0"/>
        <pt x="425" y="101" on="0"/>
        <pt x="425" y="117" on="1"/>
        <pt x="414" y="90" on="0"/>
        <pt x="378" y="45" on="0"/>
        <pt x="331" y="12" on="0"/>
        <pt x="274" y="-6" on="0"/>
        <pt x="243" y="-6" on="1"/>
        <pt x="202" y="-6" on="0"/>
        <pt x="132" y="24" on="0"/>
        <pt x="79" y="77" on="0"/>
        <pt x="49" y="147" on="0"/>
      </contour>
    </TTGlyph>
    <TTGlyph name="aacute" xMin="49" yMin="-6" xMax="438" yMax="612">
      <component glyphName="a" x="0" y="0" flags="0x4"/>
      <component glyphName="acute" x="132" y="0" flags="0x4"/>
    </TTGlyph>
    <TTGlyph name="acircumflex" xMin="49" yMin="-6" xMax="438" yMax="660">
      <component glyphName="a" x="0" y="0" flags="0x4"/>
      <component glyphName="asciicircum" x="29" y="0" flags="0x4"/>
    </TTGlyph>
    <TTGlyph name="acute" xMin="100" yMin="479" xMax="206" yMax="612">
      <contour>
        <pt x="100" y="479" on="1"/>
        <pt x="123" y="512" on="0"/>
        <pt x="167" y="579" on="0"/>
        <pt x="190" y="612" on="1"/>
        <pt x="206" y="612" on="1"/>
        <pt x="183" y="579" on="0"/>
        <pt x="139" y="512" on="0"/>
        <pt x="116" y="479" on="1"/>
      </contour>
    </TTGlyph>
    <TTGlyph name="adieresis" xMin="49" yMin="-6" xMax="438" yMax="520">
      <component glyphName="a" x="0" y="0" flags="0x4"/>
      <component glyphName="dieresis" x="79" y="0" flags="0x4"/>
    </TTGlyph>
    <TTGlyph name="ae" xMin="49" yMin="-8" xMax="559" yMax="383">
      <contour>
        <pt x="360" y="243" on="1"/>
        <pt x="360" y="193" on="1"/>
        <pt x="405" y="211" on="0"/>
        <pt x="496" y="248" on="0"/>
        <pt x="541" y="266" on="1"/>
        <pt x="521" y="312" on="0"/>
        <pt x="440" y="369" on="0"/>
        <pt x="390" y="369" on="1"/>
        <pt x="356" y="369" on="0"/>
        <pt x="324" y="356" on="1"/>
        <pt x="344" y="340" on="0"/>
        <pt x="360" y="285" on="0"/>
      </contour>
      <contour>
        <pt x="346" y="179" on="1"/>
        <pt x="252" y="179" on="1"/>
        <pt x="236" y="179" on="0"/>
        <pt x="173" y="180" on="0"/>
        <pt x="110" y="167" on="0"/>
        <pt x="63" y="133" on="0"/>
        <pt x="63" y="99" on="1"/>
        <pt x="63" y="70" on="0"/>
        <pt x="91" y="33" on="0"/>
        <pt x="134" y="13" on="0"/>
        <pt x="185" y="6" on="0"/>
        <pt x="208" y="6" on="1"/>
        <pt x="233" y="6" on="0"/>
        <pt x="283" y="15" on="0"/>
        <pt x="322" y="38" on="0"/>
        <pt x="346" y="77" on="0"/>
        <pt x="346" y="107" on="1"/>
      </contour>
      <contour>
        <pt x="94" y="334" on="1"/>
        <pt x="91" y="337" on="0"/>
        <pt x="84" y="343" on="0"/>
        <pt x="81" y="346" on="1"/>
        <pt x="90" y="354" on="0"/>
        <pt x="119" y="367" on="0"/>
        <pt x="153" y="377" on="0"/>
        <pt x="189" y="383" on="0"/>
        <pt x="205" y="383" on="1"/>
        <pt x="276" y="383" on="0"/>
        <pt x="310" y="366" on="1"/>
        <pt x="347" y="383" on="0"/>
        <pt x="390" y="383" on="1"/>
        <pt x="448" y="383" on="0"/>
        <pt x="539" y="314" on="0"/>
        <pt x="559" y="259" on="1"/>
        <pt x="509" y="239" on="0"/>
        <pt x="410" y="198" on="0"/>
        <pt x="360" y="178" on="1"/>
        <pt x="360" y="154" on="1"/>
        <pt x="360" y="130" on="1"/>
        <pt x="360" y="91" on="0"/>
        <pt x="342" y="40" on="0"/>
        <pt x="319" y="22" on="1"/>
        <pt x="353" y="8" on="0"/>
        <pt x="390" y="8" on="1"/>
        <pt x="426" y="8" on="0"/>
        <pt x="490" y="34" on="0"/>
        <pt x="514" y="57" on="1"/>
        <pt x="516" y="54" on="0"/>
        <pt x="521" y="49" on="0"/>
        <pt x="523" y="46" on="1"/>
        <pt x="497" y="22" on="0"/>
        <pt x="429" y="-6" on="0"/>
        <pt x="390" y="-6" on="1"/>
        <pt x="343" y="-6" on="0"/>
        <pt x="306" y="12" on="1"/>
        <pt x="269" y="-8" on="0"/>
        <pt x="206" y="-8" on="1"/>
        <pt x="171" y="-8" on="0"/>
        <pt x="113" y="2" on="0"/>
        <pt x="72" y="26" on="0"/>
        <pt x="49" y="67" on="0"/>
        <pt x="49" y="98" on="1"/>
        <pt x="49" y="125" on="0"/>
        <pt x="75" y="161" on="0"/>
        <pt x="117" y="184" on="0"/>
        <pt x="171" y="193" on="0"/>
        <pt x="200" y="193" on="1"/>
        <pt x="346" y="193" on="1"/>
        <pt x="346" y="245" on="1"/>
        <pt x="346" y="276" on="0"/>
        <pt x="336" y="323" on="0"/>
        <pt x="306" y="354" on="0"/>
        <pt x="250" y="369" on="0"/>
        <pt x="204" y="369" on="1"/>
        <pt x="190" y="369" on="0"/>
        <pt x="158" y="363" on="0"/>
        <pt x="128" y="353" on="0"/>
        <pt x="102" y="340" on="0"/>
      </contour>
    </TTGlyph>
    <TTGlyph name="agrave" xMin="49" yMin="-6" xMax="438" yMax="612">
      <component glyphName="a" x="0" y="0" flags="0x4"/>
      <component glyphName="grave" x="168" y="0" flags="0x4"/>
    </TTGlyph>
    <TTGlyph name="ampersand" xMin="106" yMin="-19" xMax="604" yMax="750">
      <contour>
        <pt x="120" y="187" on="1"/>
        <pt x="120" y="149" on="0"/>
        <pt x="148" y="84" on="0"/>
        <pt x="197" y="35" on="0"/>
        <pt x="262" y="7" on="0"/>
        <pt x="300" y="7" on="1"/>
        <pt x="347" y="7" on="0"/>
        <pt x="425" y="50" on="0"/>
        <pt x="449" y="85" on="1"/>
        <pt x="406" y="156" on="0"/>
        <pt x="320" y="295" on="0"/>
        <pt x="277" y="366" on="1"/>
        <pt x="244" y="362" on="0"/>
        <pt x="186" y="331" on="0"/>
        <pt x="144" y="283" on="0"/>
        <pt x="120" y="221" on="0"/>
      </contour>
      <contour>
        <pt x="495" y="249" on="1"/>
        <pt x="495" y="187" on="1"/>
        <pt x="495" y="158" on="0"/>
        <pt x="480" y="107" on="0"/>
        <pt x="466" y="84" on="1"/>
        <pt x="481" y="60" on="0"/>
        <pt x="510" y="13" on="0"/>
        <pt x="525" y="-11" on="1"/>
        <pt x="522" y="-13" on="0"/>
        <pt x="517" y="-17" on="0"/>
        <pt x="514" y="-19" on="1"/>
        <pt x="500" y="4" on="0"/>
        <pt x="471" y="49" on="0"/>
        <pt x="457" y="72" on="1"/>
        <pt x="431" y="36" on="0"/>
        <pt x="349" y="-7" on="0"/>
        <pt x="300" y="-7" on="1"/>
        <pt x="259" y="-7" on="0"/>
        <pt x="189" y="23" on="0"/>
        <pt x="136" y="76" on="0"/>
        <pt x="106" y="146" on="0"/>
        <pt x="106" y="187" on="1"/>
        <pt x="106" y="223" on="0"/>
        <pt x="131" y="288" on="0"/>
        <pt x="174" y="339" on="0"/>
        <pt x="234" y="373" on="0"/>
        <pt x="269" y="379" on="1"/>
        <pt x="197" y="496" on="1"/>
        <pt x="179" y="526" on="0"/>
        <pt x="164" y="590" on="0"/>
        <pt x="174" y="652" on="0"/>
        <pt x="210" y="706" on="0"/>
        <pt x="243" y="726" on="1"/>
        <pt x="271" y="743" on="0"/>
        <pt x="330" y="750" on="0"/>
        <pt x="386" y="740" on="0"/>
        <pt x="435" y="718" on="0"/>
        <pt x="454" y="706" on="1"/>
        <pt x="452" y="703" on="0"/>
        <pt x="450" y="696" on="0"/>
        <pt x="448" y="693" on="1"/>
        <pt x="425" y="706" on="0"/>
        <pt x="377" y="728" on="0"/>
        <pt x="327" y="738" on="0"/>
        <pt x="276" y="731" on="0"/>
        <pt x="251" y="715" on="1"/>
        <pt x="220" y="695" on="0"/>
        <pt x="186" y="645" on="0"/>
        <pt x="177" y="590" on="0"/>
        <pt x="191" y="531" on="0"/>
        <pt x="208" y="504" on="1"/>
        <pt x="271" y="402" on="0"/>
        <pt x="394" y="200" on="0"/>
        <pt x="457" y="98" on="1"/>
        <pt x="468" y="118" on="0"/>
        <pt x="481" y="162" on="0"/>
        <pt x="481" y="187" on="1"/>
        <pt x="481" y="257" on="1"/>
        <pt x="481" y="303" on="0"/>
        <pt x="495" y="351" on="0"/>
        <pt x="519" y="372" on="0"/>
        <pt x="550" y="375" on="0"/>
        <pt x="567" y="375" on="1"/>
        <pt x="604" y="375" on="1"/>
        <pt x="604" y="361" on="1"/>
        <pt x="547" y="361" on="1"/>
        <pt x="516" y="361" on="0"/>
        <pt x="495" y="309" on="0"/>
      </contour>
    </TTGlyph>
    <TTGlyph name="aring" xMin="49" yMin="-6" xMax="438" yMax="603">
      <contour>
        <pt x="201" y="540" on="1"/>
        <pt x="201" y="520" on="0"/>
        <pt x="230" y="491" on="0"/>
        <pt x="250" y="491" on="1"/>
        <pt x="270" y="491" on="0"/>
        <pt x="299" y="520" on="0"/>
        <pt x="299" y="540" on="1"/>
        <pt x="299" y="560" on="0"/>
        <pt x="270" y="589" on="0"/>
        <pt x="250" y="589" on="1"/>
        <pt x="230" y="589" on="0"/>
        <pt x="201" y="560" on="0"/>
      </contour>
      <contour>
        <pt x="187" y="540" on="1"/>
        <pt x="187" y="567" on="0"/>
        <pt x="223" y="603" on="0"/>
        <pt x="250" y="603" on="1"/>
        <pt x="277" y="603" on="0"/>
        <pt x="313" y="567" on="0"/>
        <pt x="313" y="540" on="1"/>
        <pt x="313" y="513" on="0"/>
        <pt x="277" y="477" on="0"/>
        <pt x="250" y="477" on="1"/>
        <pt x="223" y="477" on="0"/>
        <pt x="187" y="513" on="0"/>
      </contour>
      <contour>
        <pt x="63" y="188" on="1"/>
        <pt x="63" y="150" on="0"/>
        <pt x="91" y="85" on="0"/>
        <pt x="140" y="36" on="0"/>
        <pt x="205" y="8" on="0"/>
        <pt x="243" y="8" on="1"/>
        <pt x="280" y="8" on="0"/>
        <pt x="346" y="36" on="0"/>
        <pt x="396" y="85" on="0"/>
        <pt x="424" y="150" on="0"/>
        <pt x="424" y="188" on="1"/>
        <pt x="424" y="225" on="0"/>
        <pt x="396" y="291" on="0"/>
        <pt x="346" y="341" on="0"/>
        <pt x="280" y="369" on="0"/>
        <pt x="243" y="369" on="1"/>
        <pt x="205" y="369" on="0"/>
        <pt x="140" y="341" on="0"/>
        <pt x="91" y="291" on="0"/>
        <pt x="63" y="225" on="0"/>
      </contour>
      <contour>
        <pt x="49" y="188" on="1"/>
        <pt x="49" y="228" on="0"/>
        <pt x="79" y="300" on="0"/>
        <pt x="132" y="352" on="0"/>
        <pt x="202" y="383" on="0"/>
        <pt x="243" y="383" on="1"/>
        <pt x="305" y="383" on="0"/>
        <pt x="402" y="314" on="0"/>
        <pt x="424" y="260" on="1"/>
        <pt x="424" y="289" on="0"/>
        <pt x="426" y="346" on="0"/>
        <pt x="428" y="375" on="1"/>
        <pt x="438" y="375" on="1"/>
        <pt x="438" y="0" on="1"/>
        <pt x="424" y="0" on="1"/>
        <pt x="424" y="54" on="1"/>
        <pt x="424" y="70" on="0"/>
        <pt x="425" y="101" on="0"/>
        <pt x="425" y="117" on="1"/>
        <pt x="414" y="90" on="0"/>
        <pt x="378" y="45" on="0"/>
        <pt x="331" y="12" on="0"/>
        <pt x="274" y="-6" on="0"/>
        <pt x="243" y="-6" on="1"/>
        <pt x="202" y="-6" on="0"/>
        <pt x="132" y="24" on="0"/>
        <pt x="79" y="77" on="0"/>
        <pt x="49" y="147" on="0"/>
      </contour>
    </TTGlyph>
    <TTGlyph name="asciicircum" xMin="112" yMin="479" xMax="352" yMax="660">
      <contour>
        <pt x="232" y="660" on="1"/>
        <pt x="262" y="615" on="0"/>
        <pt x="322" y="524" on="0"/>
        <pt x="352" y="479" on="1"/>
        <pt x="336" y="479" on="1"/>
        <pt x="310" y="517" on="0"/>
        <pt x="258" y="595" on="0"/>
        <pt x="232" y="633" on="1"/>
        <pt x="206" y="595" on="0"/>
        <pt x="154" y="517" on="0"/>
        <pt x="128" y="479" on="1"/>
        <pt x="112" y="479" on="1"/>
        <pt x="142" y="524" on="0"/>
        <pt x="202" y="615" on="0"/>
      </contour>
    </TTGlyph>
    <TTGlyph name="asciitilde" xMin="132" yMin="459" xMax="416" yMax="541">
      <contour>
        <pt x="265" y="497" on="1"/>
        <pt x="249" y="515" on="0"/>
        <pt x="225" y="527" on="0"/>
        <pt x="211" y="527" on="1"/>
        <pt x="203" y="527" on="0"/>
        <pt x="182" y="522" on="0"/>
        <pt x="162" y="510" on="0"/>
        <pt x="147" y="489" on="0"/>
        <pt x="145" y="472" on="1"/>
        <pt x="142" y="473" on="0"/>
        <pt x="135" y="473" on="0"/>
        <pt x="132" y="474" on="1"/>
        <pt x="133" y="492" on="0"/>
        <pt x="149" y="518" on="0"/>
        <pt x="172" y="534" on="0"/>
        <pt x="200" y="541" on="0"/>
        <pt x="214" y="541" on="1"/>
        <pt x="234" y="541" on="0"/>
        <pt x="267" y="520" on="0"/>
        <pt x="283" y="503" on="1"/>
        <pt x="299" y="485" on="0"/>
        <pt x="323" y="473" on="0"/>
        <pt x="337" y="473" on="1"/>
        <pt x="345" y="473" on="0"/>
        <pt x="366" y="478" on="0"/>
        <pt x="386" y="490" on="0"/>
        <pt x="401" y="511" on="0"/>
        <pt x="403" y="528" on="1"/>
        <pt x="406" y="527" on="0"/>
        <pt x="413" y="527" on="0"/>
        <pt x="416" y="526" on="1"/>
        <pt x="415" y="508" on="0"/>
        <pt x="399" y="482" on="0"/>
        <pt x="376" y="466" on="0"/>
        <pt x="348" y="459" on="0"/>
        <pt x="334" y="459" on="1"/>
        <pt x="314" y="459" on="0"/>
        <pt x="281" y="480" on="0"/>
      </contour>
    </TTGlyph>
    <TTGlyph name="asterisk" xMin="39" yMin="434" xMax="295" yMax="720">
      <contour>
        <pt x="182" y="575" on="1"/>
        <pt x="210" y="559" on="0"/>
        <pt x="266" y="527" on="0"/>
        <pt x="294" y="511" on="1"/>
        <pt x="285" y="496" on="1"/>
        <pt x="174" y="562" on="1"/>
        <pt x="173" y="530" on="0"/>
        <pt x="173" y="466" on="0"/>
        <pt x="172" y="434" on="1"/>
        <pt x="158" y="434" on="1"/>
        <pt x="158" y="561" on="1"/>
        <pt x="130" y="545" on="0"/>
        <pt x="76" y="514" on="0"/>
        <pt x="48" y="498" on="1"/>
        <pt x="39" y="513" on="1"/>
        <pt x="150" y="576" on="1"/>
        <pt x="39" y="642" on="1"/>
        <pt x="41" y="645" on="0"/>
        <pt x="44" y="651" on="0"/>
        <pt x="46" y="654" on="1"/>
        <pt x="74" y="637" on="0"/>
        <pt x="130" y="606" on="0"/>
        <pt x="158" y="589" on="1"/>
        <pt x="158" y="720" on="1"/>
        <pt x="176" y="720" on="1"/>
        <pt x="175" y="687" on="0"/>
        <pt x="175" y="622" on="0"/>
        <pt x="174" y="589" on="1"/>
        <pt x="203" y="605" on="0"/>
        <pt x="259" y="637" on="0"/>
        <pt x="288" y="653" on="1"/>
        <pt x="290" y="650" on="0"/>
        <pt x="293" y="644" on="0"/>
        <pt x="295" y="641" on="1"/>
        <pt x="266" y="624" on="0"/>
        <pt x="211" y="592" on="0"/>
      </contour>
    </TTGlyph>
    <TTGlyph name="at" xMin="94" yMin="-207" xMax="885" yMax="585">
      <contour>
        <pt x="310" y="188" on="1"/>
        <pt x="310" y="150" on="0"/>
        <pt x="338" y="85" on="0"/>
        <pt x="387" y="36" on="0"/>
        <pt x="452" y="8" on="0"/>
        <pt x="490" y="8" on="1"/>
        <pt x="527" y="8" on="0"/>
        <pt x="593" y="36" on="0"/>
        <pt x="643" y="85" on="0"/>
        <pt x="671" y="150" on="0"/>
        <pt x="671" y="188" on="1"/>
        <pt x="671" y="225" on="0"/>
        <pt x="643" y="291" on="0"/>
        <pt x="593" y="341" on="0"/>
        <pt x="527" y="369" on="0"/>
        <pt x="490" y="369" on="1"/>
        <pt x="452" y="369" on="0"/>
        <pt x="387" y="341" on="0"/>
        <pt x="338" y="291" on="0"/>
        <pt x="310" y="225" on="0"/>
      </contour>
      <contour>
        <pt x="885" y="188" on="1"/>
        <pt x="883" y="129" on="0"/>
        <pt x="859" y="55" on="0"/>
        <pt x="821" y="14" on="0"/>
        <pt x="774" y="0" on="0"/>
        <pt x="749" y="0" on="1"/>
        <pt x="671" y="0" on="1"/>
        <pt x="671" y="54" on="1"/>
        <pt x="671" y="70" on="0"/>
        <pt x="672" y="101" on="0"/>
        <pt x="672" y="117" on="1"/>
        <pt x="661" y="90" on="0"/>
        <pt x="625" y="45" on="0"/>
        <pt x="578" y="12" on="0"/>
        <pt x="521" y="-6" on="0"/>
        <pt x="490" y="-6" on="1"/>
        <pt x="449" y="-6" on="0"/>
        <pt x="379" y="24" on="0"/>
        <pt x="326" y="77" on="0"/>
        <pt x="296" y="147" on="0"/>
        <pt x="296" y="188" on="1"/>
        <pt x="296" y="228" on="0"/>
        <pt x="326" y="300" on="0"/>
        <pt x="379" y="352" on="0"/>
        <pt x="449" y="383" on="0"/>
        <pt x="490" y="383" on="1"/>
        <pt x="552" y="383" on="0"/>
        <pt x="649" y="314" on="0"/>
        <pt x="671" y="260" on="1"/>
        <pt x="671" y="289" on="0"/>
        <pt x="673" y="346" on="0"/>
        <pt x="675" y="375" on="1"/>
        <pt x="685" y="375" on="1"/>
        <pt x="685" y="13" on="1"/>
        <pt x="756" y="13" on="1"/>
        <pt x="810" y="13" on="0"/>
        <pt x="869" y="97" on="0"/>
        <pt x="871" y="188" on="1"/>
        <pt x="871" y="267" on="0"/>
        <pt x="811" y="407" on="0"/>
        <pt x="707" y="511" on="0"/>
        <pt x="568" y="571" on="0"/>
        <pt x="489" y="571" on="1"/>
        <pt x="410" y="571" on="0"/>
        <pt x="271" y="511" on="0"/>
        <pt x="168" y="407" on="0"/>
        <pt x="108" y="267" on="0"/>
        <pt x="108" y="188" on="1"/>
        <pt x="108" y="109" on="0"/>
        <pt x="168" y="-30" on="0"/>
        <pt x="271" y="-133" on="0"/>
        <pt x="410" y="-193" on="0"/>
        <pt x="489" y="-193" on="1"/>
        <pt x="551" y="-193" on="0"/>
        <pt x="661" y="-155" on="0"/>
        <pt x="708" y="-123" on="1"/>
        <pt x="710" y="-126" on="0"/>
        <pt x="715" y="-131" on="0"/>
        <pt x="717" y="-134" on="1"/>
        <pt x="667" y="-168" on="0"/>
        <pt x="555" y="-207" on="0"/>
        <pt x="489" y="-207" on="1"/>
        <pt x="407" y="-207" on="0"/>
        <pt x="263" y="-145" on="0"/>
        <pt x="156" y="-37" on="0"/>
        <pt x="94" y="107" on="0"/>
        <pt x="94" y="189" on="1"/>
        <pt x="94" y="271" on="0"/>
        <pt x="156" y="415" on="0"/>
        <pt x="263" y="523" on="0"/>
        <pt x="407" y="585" on="0"/>
        <pt x="489" y="585" on="1"/>
        <pt x="571" y="585" on="0"/>
        <pt x="715" y="523" on="0"/>
        <pt x="823" y="415" on="0"/>
        <pt x="885" y="270" on="0"/>
      </contour>
    </TTGlyph>
    <TTGlyph name="atilde" xMin="49" yMin="-6" xMax="438" yMax="541">
      <component glyphName="a" x="0" y="0" flags="0x4"/>
      <component glyphName="asciitilde" x="-5" y="0" flags="0x4"/>
    </TTGlyph>
    <TTGlyph name="b" xMin="82" yMin="-6" xMax="471" yMax="750">
      <contour>
        <pt x="457" y="188" on="1"/>
        <pt x="457" y="225" on="0"/>
        <pt x="429" y="291" on="0"/>
        <pt x="380" y="341" on="0"/>
        <pt x="314" y="369" on="0"/>
        <pt x="277" y="369" on="1"/>
        <pt x="239" y="369" on="0"/>
        <pt x="174" y="341" on="0"/>
        <pt x="124" y="291" on="0"/>
        <pt x="96" y="225" on="0"/>
        <pt x="96" y="188" on="1"/>
        <pt x="96" y="150" on="0"/>
        <pt x="124" y="85" on="0"/>
        <pt x="174" y="36" on="0"/>
        <pt x="239" y="8" on="0"/>
        <pt x="277" y="8" on="1"/>
        <pt x="314" y="8" on="0"/>
        <pt x="380" y="36" on="0"/>
        <pt x="429" y="85" on="0"/>
        <pt x="457" y="150" on="0"/>
      </contour>
      <contour>
        <pt x="471" y="188" on="1"/>
        <pt x="471" y="147" on="0"/>
        <pt x="441" y="77" on="0"/>
        <pt x="388" y="24" on="0"/>
        <pt x="317" y="-6" on="0"/>
        <pt x="277" y="-6" on="1"/>
        <pt x="246" y="-6" on="0"/>
        <pt x="189" y="12" on="0"/>
        <pt x="142" y="45" on="0"/>
        <pt x="105" y="90" on="0"/>
        <pt x="95" y="117" on="1"/>
        <pt x="95" y="101" on="0"/>
        <pt x="96" y="70" on="0"/>
        <pt x="96" y="54" on="1"/>
        <pt x="96" y="0" on="1"/>
        <pt x="82" y="0" on="1"/>
        <pt x="82" y="750" on="1"/>
        <pt x="96" y="750" on="1"/>
        <pt x="96" y="314" on="1"/>
        <pt x="96" y="260" on="1"/>
        <pt x="106" y="287" on="0"/>
        <pt x="142" y="332" on="0"/>
        <pt x="189" y="365" on="0"/>
        <pt x="246" y="383" on="0"/>
        <pt x="277" y="383" on="1"/>
        <pt x="317" y="383" on="0"/>
        <pt x="388" y="352" on="0"/>
        <pt x="441" y="300" on="0"/>
        <pt x="471" y="228" on="0"/>
      </contour>
    </TTGlyph>
    <TTGlyph name="backslash" xMin="17" yMin="-19" xMax="309" yMax="736">
      <contour>
        <pt x="31" y="736" on="1"/>
        <pt x="101" y="546" on="0"/>
        <pt x="239" y="171" on="0"/>
        <pt x="309" y="-19" on="1"/>
        <pt x="295" y="-19" on="1"/>
        <pt x="225" y="171" on="0"/>
        <pt x="87" y="546" on="0"/>
        <pt x="17" y="736" on="1"/>
      </contour>
    </TTGlyph>
    <TTGlyph name="bar" xMin="99" yMin="-232" xMax="113" yMax="700">
      <contour>
        <pt x="99" y="-232" on="1"/>
        <pt x="99" y="700" on="1"/>
        <pt x="113" y="700" on="1"/>
        <pt x="113" y="-232" on="1"/>
      </contour>
    </TTGlyph>
    <TTGlyph name="braceleft" xMin="30" yMin="-148" xMax="232" yMax="746">
      <contour>
        <pt x="30" y="287" on="1"/>
        <pt x="30" y="311" on="1"/>
        <pt x="54" y="312" on="0"/>
        <pt x="85" y="339" on="0"/>
        <pt x="103" y="379" on="0"/>
        <pt x="109" y="426" on="0"/>
        <pt x="109" y="446" on="1"/>
        <pt x="109" y="628" on="1"/>
        <pt x="109" y="673" on="0"/>
        <pt x="124" y="722" on="0"/>
        <pt x="148" y="743" on="0"/>
        <pt x="179" y="746" on="0"/>
        <pt x="195" y="746" on="1"/>
        <pt x="232" y="746" on="1"/>
        <pt x="232" y="732" on="1"/>
        <pt x="175" y="732" on="1"/>
        <pt x="144" y="732" on="0"/>
        <pt x="123" y="680" on="0"/>
        <pt x="123" y="620" on="1"/>
        <pt x="123" y="470" on="1"/>
        <pt x="123" y="423" on="0"/>
        <pt x="112" y="363" on="0"/>
        <pt x="94" y="326" on="0"/>
        <pt x="70" y="306" on="0"/>
        <pt x="57" y="299" on="1"/>
        <pt x="70" y="291" on="0"/>
        <pt x="94" y="271" on="0"/>
        <pt x="112" y="233" on="0"/>
        <pt x="123" y="174" on="0"/>
        <pt x="123" y="128" on="1"/>
        <pt x="123" y="-22" on="1"/>
        <pt x="123" y="-82" on="0"/>
        <pt x="144" y="-134" on="0"/>
        <pt x="175" y="-134" on="1"/>
        <pt x="232" y="-134" on="1"/>
        <pt x="232" y="-148" on="1"/>
        <pt x="195" y="-148" on="1"/>
        <pt x="175" y="-148" on="0"/>
        <pt x="143" y="-144" on="0"/>
        <pt x="121" y="-116" on="0"/>
        <pt x="109" y="-53" on="0"/>
        <pt x="109" y="6" on="1"/>
        <pt x="109" y="152" on="1"/>
        <pt x="109" y="172" on="0"/>
        <pt x="103" y="219" on="0"/>
        <pt x="85" y="259" on="0"/>
        <pt x="54" y="286" on="0"/>
      </contour>
    </TTGlyph>
    <TTGlyph name="braceright" xMin="88" yMin="-148" xMax="290" yMax="746">
      <contour>
        <pt x="290" y="311" on="1"/>
        <pt x="290" y="287" on="1"/>
        <pt x="258" y="285" on="0"/>
        <pt x="226" y="244" on="0"/>
        <pt x="212" y="189" on="0"/>
        <pt x="211" y="133" on="0"/>
        <pt x="211" y="116" on="1"/>
        <pt x="211" y="-30" on="1"/>
        <pt x="211" y="-76" on="0"/>
        <pt x="196" y="-125" on="0"/>
        <pt x="172" y="-146" on="0"/>
        <pt x="141" y="-148" on="0"/>
        <pt x="125" y="-148" on="1"/>
        <pt x="88" y="-148" on="1"/>
        <pt x="88" y="-134" on="1"/>
        <pt x="145" y="-134" on="1"/>
        <pt x="176" y="-134" on="0"/>
        <pt x="197" y="-82" on="0"/>
        <pt x="197" y="-22" on="1"/>
        <pt x="197" y="165" on="1"/>
        <pt x="197" y="199" on="0"/>
        <pt x="211" y="245" on="0"/>
        <pt x="231" y="276" on="0"/>
        <pt x="254" y="294" on="0"/>
        <pt x="263" y="299" on="1"/>
        <pt x="250" y="306" on="0"/>
        <pt x="226" y="326" on="0"/>
        <pt x="208" y="363" on="0"/>
        <pt x="197" y="423" on="0"/>
        <pt x="197" y="470" on="1"/>
        <pt x="197" y="620" on="1"/>
        <pt x="197" y="680" on="0"/>
        <pt x="176" y="732" on="0"/>
        <pt x="145" y="732" on="1"/>
        <pt x="88" y="732" on="1"/>
        <pt x="88" y="746" on="1"/>
        <pt x="125" y="746" on="1"/>
        <pt x="141" y="746" on="0"/>
        <pt x="172" y="743" on="0"/>
        <pt x="196" y="722" on="0"/>
        <pt x="211" y="674" on="0"/>
        <pt x="211" y="628" on="1"/>
        <pt x="211" y="482" on="1"/>
        <pt x="211" y="470" on="0"/>
        <pt x="211" y="437" on="0"/>
        <pt x="215" y="399" on="0"/>
        <pt x="223" y="362" on="0"/>
        <pt x="241" y="332" on="0"/>
        <pt x="269" y="312" on="0"/>
      </contour>
    </TTGlyph>
    <TTGlyph name="bracketleft" xMin="83" yMin="-149" xMax="246" yMax="746">
      <contour>
        <pt x="83" y="-149" on="1"/>
        <pt x="83" y="746" on="1"/>
        <pt x="246" y="746" on="1"/>
        <pt x="246" y="732" on="1"/>
        <pt x="99" y="732" on="1"/>
        <pt x="99" y="-135" on="1"/>
        <pt x="246" y="-135" on="1"/>
        <pt x="246" y="-149" on="1"/>
      </contour>
    </TTGlyph>
    <TTGlyph name="bracketright" xMin="88" yMin="-149" xMax="251" yMax="746">
      <contour>
        <pt x="251" y="746" on="1"/>
        <pt x="251" y="-149" on="1"/>
        <pt x="88" y="-149" on="1"/>
        <pt x="88" y="-135" on="1"/>
        <pt x="235" y="-135" on="1"/>
        <pt x="235" y="732" on="1"/>
        <pt x="88" y="732" on="1"/>
        <pt x="88" y="746" on="1"/>
      </contour>
    </TTGlyph>
    <TTGlyph name="brokenbar" xMin="102" yMin="-233" xMax="116" yMax="700">
      <contour>
        <pt x="116" y="-233" on="1"/>
        <pt x="102" y="-233" on="1"/>
        <pt x="102" y="117" on="1"/>
        <pt x="116" y="117" on="1"/>
      </contour>
      <contour>
        <pt x="116" y="350" on="1"/>
        <pt x="102" y="350" on="1"/>
        <pt x="102" y="700" on="1"/>
        <pt x="116" y="700" on="1"/>
      </contour>
    </TTGlyph>
    <TTGlyph name="bullet" xMin="174" yMin="235" xMax="305" yMax="366">
      <contour>
        <pt x="174" y="300" on="1"/>
        <pt x="174" y="328" on="0"/>
        <pt x="212" y="366" on="0"/>
        <pt x="239" y="366" on="1"/>
        <pt x="267" y="366" on="0"/>
        <pt x="305" y="328" on="0"/>
        <pt x="305" y="300" on="1"/>
        <pt x="305" y="273" on="0"/>
        <pt x="267" y="235" on="0"/>
        <pt x="239" y="235" on="1"/>
        <pt x="212" y="235" on="0"/>
        <pt x="174" y="273" on="0"/>
      </contour>
    </TTGlyph>
    <TTGlyph name="c" xMin="36" yMin="-6" xMax="353" yMax="383">
      <contour>
        <pt x="343" y="47" on="1"/>
        <pt x="353" y="37" on="1"/>
        <pt x="327" y="17" on="0"/>
        <pt x="265" y="-6" on="0"/>
        <pt x="230" y="-6" on="1"/>
        <pt x="189" y="-6" on="0"/>
        <pt x="119" y="24" on="0"/>
        <pt x="66" y="77" on="0"/>
        <pt x="36" y="147" on="0"/>
        <pt x="36" y="188" on="1"/>
        <pt x="36" y="228" on="0"/>
        <pt x="66" y="300" on="0"/>
        <pt x="119" y="352" on="0"/>
        <pt x="189" y="383" on="0"/>
        <pt x="230" y="383" on="1"/>
        <pt x="265" y="383" on="0"/>
        <pt x="328" y="360" on="0"/>
        <pt x="353" y="340" on="1"/>
        <pt x="351" y="337" on="0"/>
        <pt x="345" y="332" on="0"/>
        <pt x="343" y="329" on="1"/>
        <pt x="320" y="348" on="0"/>
        <pt x="262" y="369" on="0"/>
        <pt x="230" y="369" on="1"/>
        <pt x="192" y="369" on="0"/>
        <pt x="127" y="341" on="0"/>
        <pt x="78" y="291" on="0"/>
        <pt x="50" y="225" on="0"/>
        <pt x="50" y="188" on="1"/>
        <pt x="50" y="150" on="0"/>
        <pt x="78" y="85" on="0"/>
        <pt x="127" y="36" on="0"/>
        <pt x="192" y="8" on="0"/>
        <pt x="230" y="8" on="1"/>
        <pt x="262" y="8" on="0"/>
        <pt x="320" y="29" on="0"/>
      </contour>
    </TTGlyph>
    <TTGlyph name="ccedilla" xMin="36" yMin="-223" xMax="353" yMax="383">
      <contour>
        <pt x="343" y="47" on="1"/>
        <pt x="353" y="37" on="1"/>
        <pt x="304" y="-2" on="0"/>
        <pt x="240" y="-6" on="1"/>
        <pt x="240" y="-32" on="0"/>
        <pt x="268" y="-53" on="0"/>
        <pt x="281" y="-61" on="1"/>
        <pt x="304" y="-76" on="0"/>
        <pt x="323" y="-113" on="0"/>
        <pt x="323" y="-127" on="1"/>
        <pt x="323" y="-178" on="0"/>
        <pt x="272" y="-223" on="0"/>
        <pt x="239" y="-223" on="1"/>
        <pt x="221" y="-223" on="0"/>
        <pt x="205" y="-217" on="1"/>
        <pt x="189" y="-210" on="0"/>
        <pt x="165" y="-185" on="0"/>
        <pt x="158" y="-165" on="1"/>
        <pt x="162" y="-164" on="0"/>
        <pt x="169" y="-162" on="0"/>
        <pt x="173" y="-161" on="1"/>
        <pt x="179" y="-182" on="0"/>
        <pt x="214" y="-209" on="0"/>
        <pt x="239" y="-209" on="1"/>
        <pt x="270" y="-209" on="0"/>
        <pt x="309" y="-168" on="0"/>
        <pt x="309" y="-137" on="1"/>
        <pt x="309" y="-109" on="0"/>
        <pt x="283" y="-79" on="0"/>
        <pt x="252" y="-58" on="0"/>
        <pt x="226" y="-36" on="0"/>
        <pt x="226" y="-16" on="1"/>
        <pt x="226" y="-6" on="1"/>
        <pt x="186" y="-5" on="0"/>
        <pt x="117" y="25" on="0"/>
        <pt x="66" y="78" on="0"/>
        <pt x="36" y="148" on="0"/>
        <pt x="36" y="188" on="1"/>
        <pt x="36" y="228" on="0"/>
        <pt x="66" y="300" on="0"/>
        <pt x="119" y="352" on="0"/>
        <pt x="189" y="383" on="0"/>
        <pt x="230" y="383" on="1"/>
        <pt x="265" y="383" on="0"/>
        <pt x="328" y="360" on="0"/>
        <pt x="353" y="340" on="1"/>
        <pt x="351" y="337" on="0"/>
        <pt x="345" y="332" on="0"/>
        <pt x="343" y="329" on="1"/>
        <pt x="320" y="348" on="0"/>
        <pt x="262" y="369" on="0"/>
        <pt x="230" y="369" on="1"/>
        <pt x="192" y="369" on="0"/>
        <pt x="127" y="341" on="0"/>
        <pt x="78" y="291" on="0"/>
        <pt x="50" y="225" on="0"/>
        <pt x="50" y="188" on="1"/>
        <pt x="50" y="150" on="0"/>
        <pt x="78" y="85" on="0"/>
        <pt x="127" y="36" on="0"/>
        <pt x="192" y="8" on="0"/>
        <pt x="230" y="8" on="1"/>
        <pt x="262" y="8" on="0"/>
        <pt x="320" y="29" on="0"/>
      </contour>
    </TTGlyph>
    <TTGlyph name="cedilla" xMin="125" yMin="-223" xMax="290" yMax="0">
      <contour>
        <pt x="193" y="0" on="1"/>
        <pt x="207" y="0" on="1"/>
        <pt x="207" y="-6" on="1"/>
        <pt x="207" y="-32" on="0"/>
        <pt x="235" y="-53" on="0"/>
        <pt x="248" y="-61" on="1"/>
        <pt x="271" y="-76" on="0"/>
        <pt x="290" y="-113" on="0"/>
        <pt x="290" y="-127" on="1"/>
        <pt x="290" y="-178" on="0"/>
        <pt x="239" y="-223" on="0"/>
        <pt x="206" y="-223" on="1"/>
        <pt x="180" y="-223" on="0"/>
        <pt x="135" y="-194" on="0"/>
        <pt x="125" y="-165" on="1"/>
        <pt x="129" y="-164" on="0"/>
        <pt x="136" y="-162" on="0"/>
        <pt x="140" y="-161" on="1"/>
        <pt x="146" y="-182" on="0"/>
        <pt x="181" y="-209" on="0"/>
        <pt x="206" y="-209" on="1"/>
        <pt x="237" y="-209" on="0"/>
        <pt x="276" y="-168" on="0"/>
        <pt x="276" y="-137" on="1"/>
        <pt x="276" y="-109" on="0"/>
        <pt x="250" y="-79" on="0"/>
        <pt x="219" y="-58" on="0"/>
        <pt x="193" y="-36" on="0"/>
        <pt x="193" y="-16" on="1"/>
      </contour>
    </TTGlyph>
    <TTGlyph name="cent" xMin="36" yMin="-68" xMax="353" yMax="438">
      <contour>
        <pt x="50" y="188" on="1"/>
        <pt x="50" y="152" on="0"/>
        <pt x="75" y="89" on="0"/>
        <pt x="120" y="41" on="0"/>
        <pt x="180" y="11" on="0"/>
        <pt x="215" y="8" on="1"/>
        <pt x="215" y="368" on="1"/>
        <pt x="180" y="365" on="0"/>
        <pt x="120" y="335" on="0"/>
        <pt x="75" y="287" on="0"/>
        <pt x="50" y="224" on="0"/>
      </contour>
      <contour>
        <pt x="343" y="47" on="1"/>
        <pt x="353" y="37" on="1"/>
        <pt x="327" y="17" on="0"/>
        <pt x="264" y="-6" on="0"/>
        <pt x="229" y="-6" on="1"/>
        <pt x="229" y="-68" on="1"/>
        <pt x="215" y="-68" on="1"/>
        <pt x="215" y="-5" on="1"/>
        <pt x="177" y="-2" on="0"/>
        <pt x="112" y="30" on="0"/>
        <pt x="64" y="81" on="0"/>
        <pt x="36" y="149" on="0"/>
        <pt x="36" y="188" on="1"/>
        <pt x="36" y="227" on="0"/>
        <pt x="64" y="295" on="0"/>
        <pt x="112" y="347" on="0"/>
        <pt x="177" y="379" on="0"/>
        <pt x="215" y="382" on="1"/>
        <pt x="215" y="438" on="1"/>
        <pt x="229" y="438" on="1"/>
        <pt x="229" y="383" on="1"/>
        <pt x="264" y="383" on="0"/>
        <pt x="328" y="360" on="0"/>
        <pt x="353" y="340" on="1"/>
        <pt x="351" y="337" on="0"/>
        <pt x="345" y="332" on="0"/>
        <pt x="343" y="329" on="1"/>
        <pt x="320" y="348" on="0"/>
        <pt x="261" y="369" on="0"/>
        <pt x="229" y="369" on="1"/>
        <pt x="229" y="8" on="1"/>
        <pt x="261" y="8" on="0"/>
        <pt x="320" y="29" on="0"/>
      </contour>
    </TTGlyph>
    <TTGlyph name="colon" xMin="65" yMin="0" xMax="105" yMax="290">
      <contour>
        <pt x="65" y="270" on="1"/>
        <pt x="65" y="278" on="0"/>
        <pt x="77" y="290" on="0"/>
        <pt x="85" y="290" on="1"/>
        <pt x="93" y="290" on="0"/>
        <pt x="105" y="278" on="0"/>
        <pt x="105" y="270" on="1"/>
        <pt x="105" y="262" on="0"/>
        <pt x="93" y="250" on="0"/>
        <pt x="85" y="250" on="1"/>
        <pt x="77" y="250" on="0"/>
        <pt x="65" y="262" on="0"/>
      </contour>
      <contour>
        <pt x="65" y="20" on="1"/>
        <pt x="65" y="28" on="0"/>
        <pt x="77" y="40" on="0"/>
        <pt x="85" y="40" on="1"/>
        <pt x="93" y="40" on="0"/>
        <pt x="105" y="28" on="0"/>
        <pt x="105" y="20" on="1"/>
        <pt x="105" y="12" on="0"/>
        <pt x="93" y="0" on="0"/>
        <pt x="85" y="0" on="1"/>
        <pt x="77" y="0" on="0"/>
        <pt x="65" y="12" on="0"/>
      </contour>
    </TTGlyph>
    <TTGlyph name="comma" xMin="27" yMin="-120" xMax="127" yMax="86">
      <contour>
        <pt x="127" y="86" on="1"/>
        <pt x="105" y="34" on="0"/>
        <pt x="63" y="-68" on="0"/>
        <pt x="41" y="-120" on="1"/>
        <pt x="27" y="-120" on="1"/>
        <pt x="47" y="-68" on="0"/>
        <pt x="84" y="34" on="0"/>
        <pt x="104" y="86" on="1"/>
      </contour>
    </TTGlyph>
    <TTGlyph name="copyright" xMin="145" yMin="118" xMax="655" yMax="627">
      <contour>
        <pt x="399" y="132" on="1"/>
        <pt x="449" y="132" on="0"/>
        <pt x="537" y="168" on="0"/>
        <pt x="603" y="233" on="0"/>
        <pt x="641" y="320" on="0"/>
        <pt x="641" y="371" on="1"/>
        <pt x="641" y="423" on="0"/>
        <pt x="603" y="512" on="0"/>
        <pt x="537" y="577" on="0"/>
        <pt x="449" y="613" on="0"/>
        <pt x="399" y="613" on="1"/>
        <pt x="350" y="613" on="0"/>
        <pt x="263" y="577" on="0"/>
        <pt x="197" y="512" on="0"/>
        <pt x="159" y="423" on="0"/>
        <pt x="159" y="371" on="1"/>
        <pt x="159" y="320" on="0"/>
        <pt x="197" y="233" on="0"/>
        <pt x="263" y="168" on="0"/>
        <pt x="350" y="132" on="0"/>
      </contour>
      <contour>
        <pt x="400" y="118" on="1"/>
        <pt x="346" y="118" on="0"/>
        <pt x="253" y="156" on="0"/>
        <pt x="184" y="224" on="0"/>
        <pt x="145" y="317" on="0"/>
        <pt x="145" y="372" on="1"/>
        <pt x="145" y="427" on="0"/>
        <pt x="184" y="521" on="0"/>
        <pt x="253" y="589" on="0"/>
        <pt x="346" y="627" on="0"/>
        <pt x="400" y="627" on="1"/>
        <pt x="454" y="627" on="0"/>
        <pt x="547" y="589" on="0"/>
        <pt x="616" y="521" on="0"/>
        <pt x="655" y="427" on="0"/>
        <pt x="655" y="372" on="1"/>
        <pt x="655" y="317" on="0"/>
        <pt x="616" y="224" on="0"/>
        <pt x="547" y="156" on="0"/>
        <pt x="454" y="118" on="0"/>
      </contour>
      <contour>
        <pt x="483" y="241" on="1"/>
        <pt x="488" y="236" on="1"/>
        <pt x="470" y="225" on="0"/>
        <pt x="428" y="213" on="0"/>
        <pt x="405" y="213" on="1"/>
        <pt x="372" y="213" on="0"/>
        <pt x="313" y="239" on="0"/>
        <pt x="269" y="283" on="0"/>
        <pt x="244" y="342" on="0"/>
        <pt x="244" y="375" on="1"/>
        <pt x="244" y="409" on="0"/>
        <pt x="269" y="468" on="0"/>
        <pt x="313" y="512" on="0"/>
        <pt x="372" y="537" on="0"/>
        <pt x="405" y="537" on="1"/>
        <pt x="450" y="537" on="0"/>
        <pt x="488" y="515" on="1"/>
        <pt x="486" y="511" on="0"/>
        <pt x="484" y="509" on="1"/>
        <pt x="448" y="531" on="0"/>
        <pt x="405" y="531" on="1"/>
        <pt x="373" y="531" on="0"/>
        <pt x="317" y="506" on="0"/>
        <pt x="275" y="463" on="0"/>
        <pt x="250" y="406" on="0"/>
        <pt x="250" y="374" on="1"/>
        <pt x="250" y="342" on="0"/>
        <pt x="274" y="286" on="0"/>
        <pt x="316" y="244" on="0"/>
        <pt x="372" y="220" on="0"/>
        <pt x="404" y="220" on="1"/>
        <pt x="426" y="220" on="0"/>
        <pt x="466" y="231" on="0"/>
      </contour>
    </TTGlyph>
    <TTGlyph name="currency" xMin="109" yMin="219" xMax="385" yMax="496">
      <contour>
        <pt x="129" y="361" on="1"/>
        <pt x="129" y="336" on="0"/>
        <pt x="148" y="293" on="0"/>
        <pt x="180" y="261" on="0"/>
        <pt x="223" y="242" on="0"/>
        <pt x="247" y="242" on="1"/>
        <pt x="271" y="242" on="0"/>
        <pt x="314" y="261" on="0"/>
        <pt x="346" y="293" on="0"/>
        <pt x="365" y="336" on="0"/>
        <pt x="365" y="361" on="1"/>
        <pt x="365" y="386" on="0"/>
        <pt x="346" y="429" on="0"/>
        <pt x="314" y="461" on="0"/>
        <pt x="271" y="480" on="0"/>
        <pt x="247" y="480" on="1"/>
        <pt x="223" y="480" on="0"/>
        <pt x="180" y="461" on="0"/>
        <pt x="148" y="429" on="0"/>
        <pt x="129" y="386" on="0"/>
      </contour>
      <contour>
        <pt x="115" y="361" on="1"/>
        <pt x="115" y="386" on="0"/>
        <pt x="132" y="430" on="0"/>
        <pt x="147" y="448" on="1"/>
        <pt x="109" y="486" on="1"/>
        <pt x="119" y="496" on="1"/>
        <pt x="157" y="458" on="1"/>
        <pt x="174" y="475" on="0"/>
        <pt x="221" y="494" on="0"/>
        <pt x="247" y="494" on="1"/>
        <pt x="273" y="494" on="0"/>
        <pt x="320" y="474" on="0"/>
        <pt x="337" y="457" on="1"/>
        <pt x="375" y="495" on="1"/>
        <pt x="385" y="485" on="1"/>
        <pt x="347" y="447" on="1"/>
        <pt x="362" y="430" on="0"/>
        <pt x="379" y="386" on="0"/>
        <pt x="379" y="361" on="1"/>
        <pt x="379" y="335" on="0"/>
        <pt x="360" y="289" on="0"/>
        <pt x="344" y="271" on="1"/>
        <pt x="385" y="230" on="1"/>
        <pt x="375" y="220" on="1"/>
        <pt x="334" y="261" on="1"/>
        <pt x="298" y="228" on="0"/>
        <pt x="247" y="228" on="1"/>
        <pt x="222" y="228" on="0"/>
        <pt x="177" y="245" on="0"/>
        <pt x="160" y="260" on="1"/>
        <pt x="119" y="219" on="1"/>
        <pt x="109" y="229" on="1"/>
        <pt x="150" y="270" on="1"/>
        <pt x="115" y="308" on="0"/>
      </contour>
    </TTGlyph>
    <TTGlyph name="d" xMin="55" yMin="-6" xMax="444" yMax="750">
      <contour>
        <pt x="69" y="188" on="1"/>
        <pt x="69" y="150" on="0"/>
        <pt x="97" y="85" on="0"/>
        <pt x="146" y="36" on="0"/>
        <pt x="211" y="8" on="0"/>
        <pt x="249" y="8" on="1"/>
        <pt x="286" y="8" on="0"/>
        <pt x="352" y="36" on="0"/>
        <pt x="402" y="85" on="0"/>
        <pt x="430" y="150" on="0"/>
        <pt x="430" y="188" on="1"/>
        <pt x="430" y="225" on="0"/>
        <pt x="402" y="291" on="0"/>
        <pt x="352" y="341" on="0"/>
        <pt x="286" y="369" on="0"/>
        <pt x="249" y="369" on="1"/>
        <pt x="211" y="369" on="0"/>
        <pt x="146" y="341" on="0"/>
        <pt x="97" y="291" on="0"/>
        <pt x="69" y="225" on="0"/>
      </contour>
      <contour>
        <pt x="55" y="188" on="1"/>
        <pt x="55" y="228" on="0"/>
        <pt x="85" y="300" on="0"/>
        <pt x="138" y="352" on="0"/>
        <pt x="208" y="383" on="0"/>
        <pt x="249" y="383" on="1"/>
        <pt x="280" y="383" on="0"/>
        <pt x="337" y="365" on="0"/>
        <pt x="384" y="332" on="0"/>
        <pt x="419" y="287" on="0"/>
        <pt x="430" y="260" on="1"/>
        <pt x="430" y="314" on="1"/>
        <pt x="430" y="750" on="1"/>
        <pt x="444" y="750" on="1"/>
        <pt x="444" y="0" on="1"/>
        <pt x="430" y="0" on="1"/>
        <pt x="430" y="54" on="1"/>
        <pt x="430" y="70" on="0"/>
        <pt x="431" y="101" on="0"/>
        <pt x="431" y="117" on="1"/>
        <pt x="420" y="90" on="0"/>
        <pt x="384" y="45" on="0"/>
        <pt x="337" y="12" on="0"/>
        <pt x="280" y="-6" on="0"/>
        <pt x="249" y="-6" on="1"/>
        <pt x="208" y="-6" on="0"/>
        <pt x="138" y="24" on="0"/>
        <pt x="85" y="77" on="0"/>
        <pt x="55" y="147" on="0"/>
      </contour>
    </TTGlyph>
    <TTGlyph name="degree" xMin="61" yMin="484" xMax="214" yMax="636">
      <contour>
        <pt x="138" y="498" on="1"/>
        <pt x="164" y="498" on="0"/>
        <pt x="200" y="534" on="0"/>
        <pt x="200" y="560" on="1"/>
        <pt x="200" y="586" on="0"/>
        <pt x="164" y="622" on="0"/>
        <pt x="138" y="622" on="1"/>
        <pt x="112" y="622" on="0"/>
        <pt x="75" y="586" on="0"/>
        <pt x="75" y="560" on="1"/>
        <pt x="75" y="534" on="0"/>
        <pt x="112" y="498" on="0"/>
      </contour>
      <contour>
        <pt x="61" y="559" on="1"/>
        <pt x="61" y="592" on="0"/>
        <pt x="105" y="636" on="0"/>
        <pt x="138" y="636" on="1"/>
        <pt x="170" y="636" on="0"/>
        <pt x="214" y="592" on="0"/>
        <pt x="214" y="559" on="1"/>
        <pt x="214" y="527" on="0"/>
        <pt x="170" y="484" on="0"/>
        <pt x="138" y="484" on="1"/>
        <pt x="105" y="484" on="0"/>
        <pt x="61" y="527" on="0"/>
      </contour>
    </TTGlyph>
    <TTGlyph name="dieresis" xMin="82" yMin="480" xMax="287" yMax="520">
      <contour>
        <pt x="247" y="500" on="1"/>
        <pt x="247" y="508" on="0"/>
        <pt x="259" y="520" on="0"/>
        <pt x="267" y="520" on="1"/>
        <pt x="275" y="520" on="0"/>
        <pt x="287" y="508" on="0"/>
        <pt x="287" y="500" on="1"/>
        <pt x="287" y="492" on="0"/>
        <pt x="275" y="480" on="0"/>
        <pt x="267" y="480" on="1"/>
        <pt x="259" y="480" on="0"/>
        <pt x="247" y="492" on="0"/>
      </contour>
      <contour>
        <pt x="82" y="500" on="1"/>
        <pt x="82" y="508" on="0"/>
        <pt x="94" y="520" on="0"/>
        <pt x="102" y="520" on="1"/>
        <pt x="110" y="520" on="0"/>
        <pt x="122" y="508" on="0"/>
        <pt x="122" y="500" on="1"/>
        <pt x="122" y="492" on="0"/>
        <pt x="110" y="480" on="0"/>
        <pt x="102" y="480" on="1"/>
        <pt x="94" y="480" on="0"/>
        <pt x="82" y="492" on="0"/>
      </contour>
    </TTGlyph>
    <TTGlyph name="divide" xMin="68" yMin="71" xMax="428" yMax="361">
      <contour>
        <pt x="428" y="210" on="1"/>
        <pt x="68" y="210" on="1"/>
        <pt x="68" y="224" on="1"/>
        <pt x="428" y="224" on="1"/>
      </contour>
      <contour>
        <pt x="231" y="341" on="1"/>
        <pt x="231" y="349" on="0"/>
        <pt x="243" y="361" on="0"/>
        <pt x="251" y="361" on="1"/>
        <pt x="259" y="361" on="0"/>
        <pt x="271" y="349" on="0"/>
        <pt x="271" y="341" on="1"/>
        <pt x="271" y="333" on="0"/>
        <pt x="259" y="321" on="0"/>
        <pt x="251" y="321" on="1"/>
        <pt x="243" y="321" on="0"/>
        <pt x="231" y="333" on="0"/>
      </contour>
      <contour>
        <pt x="231" y="91" on="1"/>
        <pt x="231" y="99" on="0"/>
        <pt x="243" y="111" on="0"/>
        <pt x="251" y="111" on="1"/>
        <pt x="259" y="111" on="0"/>
        <pt x="271" y="99" on="0"/>
        <pt x="271" y="91" on="1"/>
        <pt x="271" y="83" on="0"/>
        <pt x="259" y="71" on="0"/>
        <pt x="251" y="71" on="1"/>
        <pt x="243" y="71" on="0"/>
        <pt x="231" y="83" on="0"/>
      </contour>
    </TTGlyph>
    <TTGlyph name="dollar" xMin="80" yMin="-68" xMax="484" yMax="764">
      <contour>
        <pt x="114" y="530" on="1"/>
        <pt x="114" y="499" on="0"/>
        <pt x="133" y="454" on="0"/>
        <pt x="167" y="422" on="0"/>
        <pt x="217" y="398" on="0"/>
        <pt x="249" y="388" on="1"/>
        <pt x="256" y="385" on="0"/>
        <pt x="264" y="383" on="1"/>
        <pt x="264" y="690" on="1"/>
        <pt x="226" y="689" on="0"/>
        <pt x="170" y="661" on="0"/>
        <pt x="133" y="617" on="0"/>
        <pt x="114" y="560" on="0"/>
      </contour>
      <contour>
        <pt x="470" y="182" on="1"/>
        <pt x="470" y="227" on="0"/>
        <pt x="435" y="287" on="0"/>
        <pt x="380" y="329" on="0"/>
        <pt x="311" y="355" on="0"/>
        <pt x="278" y="365" on="1"/>
        <pt x="278" y="6" on="1"/>
        <pt x="315" y="7" on="0"/>
        <pt x="385" y="33" on="0"/>
        <pt x="438" y="79" on="0"/>
        <pt x="470" y="143" on="0"/>
      </contour>
      <contour>
        <pt x="420" y="647" on="1"/>
        <pt x="418" y="644" on="0"/>
        <pt x="414" y="638" on="0"/>
        <pt x="412" y="635" on="1"/>
        <pt x="403" y="643" on="0"/>
        <pt x="377" y="661" on="0"/>
        <pt x="343" y="677" on="0"/>
        <pt x="302" y="689" on="0"/>
        <pt x="278" y="690" on="1"/>
        <pt x="278" y="378" on="1"/>
        <pt x="309" y="368" on="0"/>
        <pt x="382" y="343" on="0"/>
        <pt x="443" y="301" on="0"/>
        <pt x="484" y="235" on="0"/>
        <pt x="484" y="186" on="1"/>
        <pt x="484" y="142" on="0"/>
        <pt x="452" y="72" on="0"/>
        <pt x="396" y="21" on="0"/>
        <pt x="321" y="-7" on="0"/>
        <pt x="278" y="-8" on="1"/>
        <pt x="278" y="-68" on="1"/>
        <pt x="264" y="-68" on="1"/>
        <pt x="264" y="-8" on="1"/>
        <pt x="226" y="-7" on="0"/>
        <pt x="166" y="14" on="0"/>
        <pt x="120" y="41" on="0"/>
        <pt x="89" y="69" on="0"/>
        <pt x="80" y="78" on="1"/>
        <pt x="92" y="90" on="1"/>
        <pt x="120" y="61" on="0"/>
        <pt x="204" y="8" on="0"/>
        <pt x="264" y="6" on="1"/>
        <pt x="264" y="369" on="1"/>
        <pt x="262" y="370" on="0"/>
        <pt x="260" y="370" on="0"/>
        <pt x="258" y="371" on="1"/>
        <pt x="239" y="376" on="0"/>
        <pt x="187" y="394" on="0"/>
        <pt x="138" y="427" on="0"/>
        <pt x="102" y="478" on="0"/>
        <pt x="100" y="517" on="1"/>
        <pt x="98" y="550" on="0"/>
        <pt x="115" y="615" on="0"/>
        <pt x="156" y="668" on="0"/>
        <pt x="220" y="702" on="0"/>
        <pt x="264" y="704" on="1"/>
        <pt x="264" y="764" on="1"/>
        <pt x="278" y="764" on="1"/>
        <pt x="278" y="704" on="1"/>
        <pt x="314" y="703" on="0"/>
        <pt x="385" y="677" on="0"/>
      </contour>
    </TTGlyph>
    <TTGlyph name="e" xMin="36" yMin="-6" xMax="399" yMax="383">
      <contour>
        <pt x="230" y="369" on="1"/>
        <pt x="192" y="369" on="0"/>
        <pt x="127" y="341" on="0"/>
        <pt x="78" y="291" on="0"/>
        <pt x="50" y="225" on="0"/>
        <pt x="50" y="188" on="1"/>
        <pt x="50" y="159" on="0"/>
        <pt x="57" y="135" on="1"/>
        <pt x="138" y="168" on="0"/>
        <pt x="300" y="233" on="0"/>
        <pt x="381" y="266" on="1"/>
        <pt x="361" y="312" on="0"/>
        <pt x="280" y="369" on="0"/>
      </contour>
      <contour>
        <pt x="399" y="259" on="1"/>
        <pt x="314" y="224" on="0"/>
        <pt x="147" y="157" on="0"/>
        <pt x="62" y="122" on="1"/>
        <pt x="82" y="71" on="0"/>
        <pt x="172" y="8" on="0"/>
        <pt x="230" y="8" on="1"/>
        <pt x="266" y="8" on="0"/>
        <pt x="330" y="34" on="0"/>
        <pt x="354" y="57" on="1"/>
        <pt x="356" y="54" on="0"/>
        <pt x="361" y="49" on="0"/>
        <pt x="363" y="46" on="1"/>
        <pt x="337" y="22" on="0"/>
        <pt x="269" y="-6" on="0"/>
        <pt x="230" y="-6" on="1"/>
        <pt x="189" y="-6" on="0"/>
        <pt x="119" y="24" on="0"/>
        <pt x="66" y="77" on="0"/>
        <pt x="36" y="147" on="0"/>
        <pt x="36" y="188" on="1"/>
        <pt x="36" y="228" on="0"/>
        <pt x="66" y="300" on="0"/>
        <pt x="119" y="352" on="0"/>
        <pt x="189" y="383" on="0"/>
        <pt x="230" y="383" on="1"/>
        <pt x="288" y="383" on="0"/>
        <pt x="379" y="314" on="0"/>
      </contour>
    </TTGlyph>
    <TTGlyph name="eacute" xMin="36" yMin="-6" xMax="399" yMax="612">
      <component glyphName="e" x="0" y="0" flags="0x204"/>
      <component glyphName="acute" x="133" y="0" flags="0x4"/>
    </TTGlyph>
    <TTGlyph name="ecircumflex" xMin="36" yMin="-6" xMax="399" yMax="660">
      <component glyphName="e" x="0" y="0" flags="0x204"/>
      <component glyphName="asciicircum" x="0" y="0" flags="0x4"/>
    </TTGlyph>
    <TTGlyph name="edieresis" xMin="36" yMin="-6" xMax="399" yMax="520">
      <component glyphName="e" x="0" y="0" flags="0x204"/>
      <component glyphName="dieresis" x="45" y="0" flags="0x4"/>
    </TTGlyph>
    <TTGlyph name="egrave" xMin="36" yMin="-6" xMax="399" yMax="612">
      <component glyphName="e" x="0" y="0" flags="0x204"/>
      <component glyphName="grave" x="140" y="0" flags="0x4"/>
    </TTGlyph>
    <TTGlyph name="eight" xMin="53" yMin="-8" xMax="460" yMax="658">
      <contour>
        <pt x="122" y="511" on="1"/>
        <pt x="122" y="486" on="0"/>
        <pt x="142" y="444" on="0"/>
        <pt x="178" y="413" on="0"/>
        <pt x="226" y="396" on="0"/>
        <pt x="254" y="396" on="1"/>
        <pt x="281" y="396" on="0"/>
        <pt x="328" y="413" on="0"/>
        <pt x="363" y="444" on="0"/>
        <pt x="382" y="486" on="0"/>
        <pt x="382" y="511" on="1"/>
        <pt x="382" y="538" on="0"/>
        <pt x="363" y="586" on="0"/>
        <pt x="328" y="622" on="0"/>
        <pt x="281" y="644" on="0"/>
        <pt x="254" y="644" on="1"/>
        <pt x="226" y="644" on="0"/>
        <pt x="178" y="622" on="0"/>
        <pt x="142" y="586" on="0"/>
        <pt x="122" y="538" on="0"/>
      </contour>
      <contour>
        <pt x="67" y="195" on="1"/>
        <pt x="67" y="157" on="0"/>
        <pt x="96" y="88" on="0"/>
        <pt x="146" y="36" on="0"/>
        <pt x="214" y="5" on="0"/>
        <pt x="253" y="5" on="1"/>
        <pt x="293" y="5" on="0"/>
        <pt x="363" y="36" on="0"/>
        <pt x="415" y="88" on="0"/>
        <pt x="446" y="157" on="0"/>
        <pt x="446" y="195" on="1"/>
        <pt x="446" y="234" on="0"/>
        <pt x="415" y="301" on="0"/>
        <pt x="363" y="352" on="0"/>
        <pt x="293" y="381" on="0"/>
        <pt x="253" y="381" on="1"/>
        <pt x="214" y="381" on="0"/>
        <pt x="146" y="352" on="0"/>
        <pt x="96" y="301" on="0"/>
        <pt x="67" y="234" on="0"/>
      </contour>
      <contour>
        <pt x="53" y="195" on="1"/>
        <pt x="53" y="230" on="0"/>
        <pt x="76" y="293" on="0"/>
        <pt x="116" y="344" on="0"/>
        <pt x="171" y="381" on="0"/>
        <pt x="204" y="389" on="1"/>
        <pt x="162" y="403" on="0"/>
        <pt x="108" y="472" on="0"/>
        <pt x="108" y="518" on="1"/>
        <pt x="108" y="547" on="0"/>
        <pt x="131" y="598" on="0"/>
        <pt x="170" y="636" on="0"/>
        <pt x="222" y="658" on="0"/>
        <pt x="252" y="658" on="1"/>
        <pt x="282" y="658" on="0"/>
        <pt x="334" y="635" on="0"/>
        <pt x="373" y="596" on="0"/>
        <pt x="396" y="544" on="0"/>
        <pt x="396" y="514" on="1"/>
        <pt x="396" y="470" on="0"/>
        <pt x="345" y="403" on="0"/>
        <pt x="304" y="389" on="1"/>
        <pt x="337" y="381" on="0"/>
        <pt x="394" y="345" on="0"/>
        <pt x="436" y="294" on="0"/>
        <pt x="460" y="231" on="0"/>
        <pt x="460" y="195" on="1"/>
        <pt x="460" y="153" on="0"/>
        <pt x="427" y="79" on="0"/>
        <pt x="372" y="24" on="0"/>
        <pt x="297" y="-8" on="0"/>
        <pt x="255" y="-8" on="1"/>
        <pt x="213" y="-8" on="0"/>
        <pt x="140" y="24" on="0"/>
        <pt x="85" y="79" on="0"/>
        <pt x="53" y="153" on="0"/>
      </contour>
    </TTGlyph>
    <TTGlyph name="emdash" xMin="99" yMin="179" xMax="601" yMax="193">
      <contour>
        <pt x="99" y="179" on="1"/>
        <pt x="99" y="193" on="1"/>
        <pt x="601" y="193" on="1"/>
        <pt x="601" y="179" on="1"/>
      </contour>
    </TTGlyph>
    <TTGlyph name="endash" xMin="100" yMin="179" xMax="401" yMax="193">
      <contour>
        <pt x="100" y="179" on="1"/>
        <pt x="100" y="193" on="1"/>
        <pt x="401" y="193" on="1"/>
        <pt x="401" y="179" on="1"/>
      </contour>
    </TTGlyph>
    <TTGlyph name="equal" xMin="100" yMin="150" xMax="606" yMax="358">
      <contour>
        <pt x="606" y="164" on="1"/>
        <pt x="606" y="150" on="1"/>
        <pt x="100" y="150" on="1"/>
        <pt x="100" y="164" on="1"/>
      </contour>
      <contour>
        <pt x="606" y="358" on="1"/>
        <pt x="606" y="344" on="1"/>
        <pt x="100" y="344" on="1"/>
        <pt x="100" y="358" on="1"/>
      </contour>
    </TTGlyph>
    <TTGlyph name="eth" xMin="52" yMin="-6" xMax="441" yMax="726">
      <contour>
        <pt x="66" y="188" on="1"/>
        <pt x="66" y="150" on="0"/>
        <pt x="94" y="85" on="0"/>
        <pt x="143" y="36" on="0"/>
        <pt x="208" y="8" on="0"/>
        <pt x="246" y="8" on="1"/>
        <pt x="283" y="8" on="0"/>
        <pt x="349" y="36" on="0"/>
        <pt x="399" y="85" on="0"/>
        <pt x="427" y="150" on="0"/>
        <pt x="427" y="188" on="1"/>
        <pt x="427" y="225" on="0"/>
        <pt x="399" y="291" on="0"/>
        <pt x="349" y="341" on="0"/>
        <pt x="283" y="369" on="0"/>
        <pt x="246" y="369" on="1"/>
        <pt x="208" y="369" on="0"/>
        <pt x="143" y="341" on="0"/>
        <pt x="94" y="291" on="0"/>
        <pt x="66" y="225" on="0"/>
      </contour>
      <contour>
        <pt x="146" y="547" on="1"/>
        <pt x="165" y="567" on="0"/>
        <pt x="203" y="609" on="0"/>
        <pt x="222" y="629" on="1"/>
        <pt x="200" y="652" on="0"/>
        <pt x="154" y="697" on="0"/>
        <pt x="128" y="717" on="1"/>
        <pt x="134" y="726" on="1"/>
        <pt x="182" y="690" on="0"/>
        <pt x="230" y="637" on="1"/>
        <pt x="247" y="657" on="0"/>
        <pt x="283" y="694" on="0"/>
        <pt x="300" y="714" on="1"/>
        <pt x="302" y="712" on="0"/>
        <pt x="306" y="709" on="0"/>
        <pt x="308" y="707" on="1"/>
        <pt x="290" y="687" on="0"/>
        <pt x="255" y="649" on="0"/>
        <pt x="237" y="629" on="1"/>
        <pt x="278" y="581" on="0"/>
        <pt x="352" y="471" on="0"/>
        <pt x="408" y="357" on="0"/>
        <pt x="441" y="242" on="0"/>
        <pt x="441" y="188" on="1"/>
        <pt x="441" y="147" on="0"/>
        <pt x="410" y="77" on="0"/>
        <pt x="358" y="24" on="0"/>
        <pt x="286" y="-6" on="0"/>
        <pt x="246" y="-6" on="1"/>
        <pt x="205" y="-6" on="0"/>
        <pt x="135" y="24" on="0"/>
        <pt x="82" y="77" on="0"/>
        <pt x="52" y="147" on="0"/>
        <pt x="52" y="188" on="1"/>
        <pt x="52" y="228" on="0"/>
        <pt x="82" y="300" on="0"/>
        <pt x="135" y="352" on="0"/>
        <pt x="205" y="383" on="0"/>
        <pt x="246" y="383" on="1"/>
        <pt x="297" y="383" on="0"/>
        <pt x="383" y="335" on="0"/>
        <pt x="409" y="295" on="1"/>
        <pt x="403" y="323" on="0"/>
        <pt x="376" y="396" on="0"/>
        <pt x="332" y="480" on="0"/>
        <pt x="271" y="572" on="0"/>
        <pt x="229" y="620" on="1"/>
        <pt x="154" y="539" on="1"/>
      </contour>
    </TTGlyph>
    <TTGlyph name="exclam" xMin="81" yMin="36" xMax="120" yMax="750">
      <contour>
        <pt x="100" y="36" on="1"/>
        <pt x="93" y="36" on="0"/>
        <pt x="81" y="48" on="0"/>
        <pt x="81" y="56" on="1"/>
        <pt x="81" y="65" on="0"/>
        <pt x="93" y="76" on="0"/>
        <pt x="100" y="76" on="1"/>
        <pt x="108" y="76" on="0"/>
        <pt x="120" y="65" on="0"/>
        <pt x="120" y="56" on="1"/>
        <pt x="120" y="48" on="0"/>
        <pt x="108" y="36" on="0"/>
        <pt x="100" y="36" on="1"/>
      </contour>
      <contour>
        <pt x="93" y="750" on="1"/>
        <pt x="107" y="750" on="1"/>
        <pt x="107" y="166" on="1"/>
        <pt x="93" y="166" on="1"/>
      </contour>
    </TTGlyph>
    <TTGlyph name="exclamdown" xMin="81" yMin="-210" xMax="120" yMax="504">
      <component glyphName="exclam" x="0" y="540" scalex="1.0" scaley="-0.999938964844" flags="0x4"/>
    </TTGlyph>
    <TTGlyph name="f" xMin="22" yMin="0" xMax="272" yMax="750">
      <contour>
        <pt x="22" y="358" on="1"/>
        <pt x="22" y="372" on="1"/>
        <pt x="87" y="372" on="1"/>
        <pt x="87" y="518" on="1"/>
        <pt x="87" y="573" on="0"/>
        <pt x="116" y="659" on="0"/>
        <pt x="167" y="717" on="0"/>
        <pt x="234" y="748" on="0"/>
        <pt x="272" y="750" on="1"/>
        <pt x="272" y="736" on="1"/>
        <pt x="238" y="736" on="0"/>
        <pt x="176" y="706" on="0"/>
        <pt x="129" y="650" on="0"/>
        <pt x="101" y="571" on="0"/>
        <pt x="101" y="522" on="1"/>
        <pt x="101" y="372" on="1"/>
        <pt x="231" y="372" on="1"/>
        <pt x="231" y="358" on="1"/>
        <pt x="101" y="358" on="1"/>
        <pt x="101" y="0" on="1"/>
        <pt x="87" y="0" on="1"/>
        <pt x="87" y="358" on="1"/>
      </contour>
    </TTGlyph>
    <TTGlyph name="five" xMin="115" yMin="-8" xMax="460" yMax="650">
      <contour>
        <pt x="143" y="341" on="1"/>
        <pt x="143" y="650" on="1"/>
        <pt x="430" y="650" on="1"/>
        <pt x="430" y="636" on="1"/>
        <pt x="157" y="636" on="1"/>
        <pt x="157" y="372" on="1"/>
        <pt x="180" y="383" on="0"/>
        <pt x="229" y="395" on="0"/>
        <pt x="255" y="395" on="1"/>
        <pt x="297" y="395" on="0"/>
        <pt x="372" y="364" on="0"/>
        <pt x="427" y="310" on="0"/>
        <pt x="460" y="237" on="0"/>
        <pt x="460" y="195" on="1"/>
        <pt x="460" y="153" on="0"/>
        <pt x="427" y="79" on="0"/>
        <pt x="372" y="24" on="0"/>
        <pt x="297" y="-8" on="0"/>
        <pt x="255" y="-8" on="1"/>
        <pt x="214" y="-8" on="0"/>
        <pt x="143" y="22" on="0"/>
        <pt x="115" y="48" on="1"/>
        <pt x="118" y="50" on="0"/>
        <pt x="123" y="56" on="0"/>
        <pt x="126" y="58" on="1"/>
        <pt x="150" y="33" on="0"/>
        <pt x="215" y="6" on="0"/>
        <pt x="253" y="6" on="1"/>
        <pt x="293" y="6" on="0"/>
        <pt x="363" y="36" on="0"/>
        <pt x="415" y="88" on="0"/>
        <pt x="446" y="157" on="0"/>
        <pt x="446" y="195" on="1"/>
        <pt x="446" y="234" on="0"/>
        <pt x="415" y="301" on="0"/>
        <pt x="363" y="352" on="0"/>
        <pt x="293" y="381" on="0"/>
        <pt x="253" y="381" on="1"/>
        <pt x="218" y="381" on="0"/>
        <pt x="160" y="358" on="0"/>
      </contour>
    </TTGlyph>
    <TTGlyph name="four" xMin="37" yMin="0" xMax="500" yMax="658">
      <contour>
        <pt x="389" y="617" on="1"/>
        <pt x="308" y="511" on="0"/>
        <pt x="148" y="303" on="0"/>
        <pt x="67" y="197" on="1"/>
        <pt x="389" y="197" on="1"/>
      </contour>
      <contour>
        <pt x="37" y="183" on="1"/>
        <pt x="129" y="302" on="0"/>
        <pt x="311" y="539" on="0"/>
        <pt x="403" y="658" on="1"/>
        <pt x="403" y="197" on="1"/>
        <pt x="500" y="197" on="1"/>
        <pt x="500" y="183" on="1"/>
        <pt x="403" y="183" on="1"/>
        <pt x="403" y="0" on="1"/>
        <pt x="389" y="0" on="1"/>
        <pt x="389" y="183" on="1"/>
      </contour>
    </TTGlyph>
    <TTGlyph name="g" xMin="49" yMin="-250" xMax="438" yMax="383">
      <contour>
        <pt x="63" y="188" on="1"/>
        <pt x="63" y="150" on="0"/>
        <pt x="91" y="85" on="0"/>
        <pt x="140" y="36" on="0"/>
        <pt x="205" y="8" on="0"/>
        <pt x="243" y="8" on="1"/>
        <pt x="280" y="8" on="0"/>
        <pt x="346" y="36" on="0"/>
        <pt x="396" y="85" on="0"/>
        <pt x="424" y="150" on="0"/>
        <pt x="424" y="188" on="1"/>
        <pt x="424" y="225" on="0"/>
        <pt x="396" y="291" on="0"/>
        <pt x="346" y="341" on="0"/>
        <pt x="280" y="369" on="0"/>
        <pt x="243" y="369" on="1"/>
        <pt x="205" y="369" on="0"/>
        <pt x="140" y="341" on="0"/>
        <pt x="91" y="291" on="0"/>
        <pt x="63" y="225" on="0"/>
      </contour>
      <contour>
        <pt x="428" y="375" on="1"/>
        <pt x="438" y="375" on="1"/>
        <pt x="438" y="-18" on="1"/>
        <pt x="438" y="-74" on="0"/>
        <pt x="409" y="-159" on="0"/>
        <pt x="358" y="-217" on="0"/>
        <pt x="291" y="-249" on="0"/>
        <pt x="253" y="-250" on="1"/>
        <pt x="212" y="-248" on="0"/>
        <pt x="128" y="-223" on="0"/>
        <pt x="102" y="-190" on="1"/>
        <pt x="105" y="-188" on="0"/>
        <pt x="112" y="-185" on="0"/>
        <pt x="115" y="-183" on="1"/>
        <pt x="139" y="-213" on="0"/>
        <pt x="217" y="-236" on="0"/>
        <pt x="253" y="-236" on="1"/>
        <pt x="287" y="-236" on="0"/>
        <pt x="350" y="-206" on="0"/>
        <pt x="396" y="-150" on="0"/>
        <pt x="424" y="-71" on="0"/>
        <pt x="424" y="-22" on="1"/>
        <pt x="424" y="54" on="1"/>
        <pt x="424" y="70" on="0"/>
        <pt x="425" y="101" on="0"/>
        <pt x="425" y="117" on="1"/>
        <pt x="414" y="90" on="0"/>
        <pt x="378" y="45" on="0"/>
        <pt x="331" y="12" on="0"/>
        <pt x="274" y="-6" on="0"/>
        <pt x="243" y="-6" on="1"/>
        <pt x="202" y="-6" on="0"/>
        <pt x="132" y="24" on="0"/>
        <pt x="79" y="77" on="0"/>
        <pt x="49" y="147" on="0"/>
        <pt x="49" y="188" on="1"/>
        <pt x="49" y="228" on="0"/>
        <pt x="79" y="300" on="0"/>
        <pt x="132" y="352" on="0"/>
        <pt x="202" y="383" on="0"/>
        <pt x="243" y="383" on="1"/>
        <pt x="305" y="383" on="0"/>
        <pt x="402" y="314" on="0"/>
        <pt x="424" y="260" on="1"/>
        <pt x="424" y="289" on="0"/>
        <pt x="426" y="346" on="0"/>
      </contour>
    </TTGlyph>
    <TTGlyph name="germandbls" xMin="31" yMin="-8" xMax="485" yMax="658">
      <contour>
        <pt x="174" y="22" on="1"/>
        <pt x="176" y="25" on="0"/>
        <pt x="178" y="30" on="0"/>
        <pt x="180" y="33" on="1"/>
        <pt x="224" y="5" on="0"/>
        <pt x="278" y="5" on="1"/>
        <pt x="318" y="5" on="0"/>
        <pt x="388" y="36" on="0"/>
        <pt x="440" y="88" on="0"/>
        <pt x="471" y="157" on="0"/>
        <pt x="471" y="195" on="1"/>
        <pt x="471" y="233" on="0"/>
        <pt x="441" y="300" on="0"/>
        <pt x="390" y="351" on="0"/>
        <pt x="320" y="381" on="0"/>
        <pt x="281" y="381" on="1"/>
        <pt x="281" y="388" on="1"/>
        <pt x="281" y="396" on="1"/>
        <pt x="307" y="396" on="0"/>
        <pt x="353" y="413" on="0"/>
        <pt x="387" y="444" on="0"/>
        <pt x="407" y="486" on="0"/>
        <pt x="407" y="511" on="1"/>
        <pt x="407" y="537" on="0"/>
        <pt x="388" y="585" on="0"/>
        <pt x="355" y="622" on="0"/>
        <pt x="308" y="644" on="0"/>
        <pt x="281" y="644" on="1"/>
        <pt x="247" y="644" on="0"/>
        <pt x="185" y="614" on="0"/>
        <pt x="138" y="558" on="0"/>
        <pt x="110" y="479" on="0"/>
        <pt x="110" y="430" on="1"/>
        <pt x="110" y="0" on="1"/>
        <pt x="96" y="0" on="1"/>
        <pt x="96" y="370" on="1"/>
        <pt x="31" y="370" on="1"/>
        <pt x="31" y="384" on="1"/>
        <pt x="96" y="384" on="1"/>
        <pt x="96" y="426" on="1"/>
        <pt x="96" y="481" on="0"/>
        <pt x="125" y="567" on="0"/>
        <pt x="176" y="625" on="0"/>
        <pt x="243" y="656" on="0"/>
        <pt x="281" y="658" on="1"/>
        <pt x="310" y="657" on="0"/>
        <pt x="361" y="634" on="0"/>
        <pt x="399" y="595" on="0"/>
        <pt x="421" y="543" on="0"/>
        <pt x="421" y="514" on="1"/>
        <pt x="421" y="470" on="0"/>
        <pt x="370" y="403" on="0"/>
        <pt x="329" y="389" on="1"/>
        <pt x="362" y="381" on="0"/>
        <pt x="419" y="345" on="0"/>
        <pt x="461" y="294" on="0"/>
        <pt x="485" y="231" on="0"/>
        <pt x="485" y="195" on="1"/>
        <pt x="485" y="153" on="0"/>
        <pt x="452" y="79" on="0"/>
        <pt x="397" y="24" on="0"/>
        <pt x="322" y="-8" on="0"/>
        <pt x="280" y="-8" on="1"/>
        <pt x="251" y="-8" on="0"/>
        <pt x="197" y="8" on="0"/>
      </contour>
    </TTGlyph>
    <TTGlyph name="grave" xMin="-14" yMin="479" xMax="92" yMax="612">
      <contour>
        <pt x="2" y="612" on="1"/>
        <pt x="25" y="579" on="0"/>
        <pt x="69" y="512" on="0"/>
        <pt x="92" y="479" on="1"/>
        <pt x="76" y="479" on="1"/>
        <pt x="53" y="512" on="0"/>
        <pt x="9" y="579" on="0"/>
        <pt x="-14" y="612" on="1"/>
      </contour>
    </TTGlyph>
    <TTGlyph name="greater" xMin="115" yMin="-15" xMax="553" yMax="491">
      <contour>
        <pt x="115" y="-15" on="1"/>
        <pt x="115" y="1" on="1"/>
        <pt x="218" y="61" on="0"/>
        <pt x="424" y="178" on="0"/>
        <pt x="527" y="238" on="1"/>
        <pt x="424" y="298" on="0"/>
        <pt x="218" y="415" on="0"/>
        <pt x="115" y="475" on="1"/>
        <pt x="115" y="491" on="1"/>
        <pt x="225" y="428" on="0"/>
        <pt x="443" y="301" on="0"/>
        <pt x="553" y="238" on="1"/>
        <pt x="443" y="175" on="0"/>
        <pt x="225" y="48" on="0"/>
      </contour>
    </TTGlyph>
    <TTGlyph name="guillemotleft" xMin="117" yMin="77" xMax="459" yMax="400">
      <contour>
        <pt x="459" y="77" on="1"/>
        <pt x="288" y="239" on="1"/>
        <pt x="331" y="280" on="0"/>
        <pt x="416" y="359" on="0"/>
        <pt x="459" y="400" on="1"/>
        <pt x="459" y="383" on="1"/>
        <pt x="424" y="347" on="0"/>
        <pt x="352" y="275" on="0"/>
        <pt x="317" y="239" on="1"/>
        <pt x="352" y="202" on="0"/>
        <pt x="424" y="130" on="0"/>
        <pt x="459" y="93" on="1"/>
      </contour>
      <contour>
        <pt x="288" y="77" on="1"/>
        <pt x="117" y="239" on="1"/>
        <pt x="160" y="280" on="0"/>
        <pt x="245" y="359" on="0"/>
        <pt x="288" y="400" on="1"/>
        <pt x="288" y="383" on="1"/>
        <pt x="253" y="347" on="0"/>
        <pt x="181" y="275" on="0"/>
        <pt x="146" y="239" on="1"/>
        <pt x="181" y="202" on="0"/>
        <pt x="253" y="130" on="0"/>
        <pt x="288" y="93" on="1"/>
      </contour>
    </TTGlyph>
    <TTGlyph name="guillemotright" xMin="117" yMin="77" xMax="459" yMax="400">
      <component glyphName="guillemotleft" x="576" y="0" scalex="-0.999938964844" scaley="1.0" flags="0x4"/>
    </TTGlyph>
    <TTGlyph name="guilsinglleft" xMin="117" yMin="77" xMax="288" yMax="400">
      <contour>
        <pt x="288" y="77" on="1"/>
        <pt x="117" y="239" on="1"/>
        <pt x="160" y="280" on="0"/>
        <pt x="245" y="359" on="0"/>
        <pt x="288" y="400" on="1"/>
        <pt x="288" y="383" on="1"/>
        <pt x="253" y="347" on="0"/>
        <pt x="181" y="275" on="0"/>
        <pt x="146" y="239" on="1"/>
        <pt x="181" y="202" on="0"/>
        <pt x="253" y="130" on="0"/>
        <pt x="288" y="93" on="1"/>
      </contour>
    </TTGlyph>
    <TTGlyph name="guilsinglright" xMin="117" yMin="77" xMax="288" yMax="400">
      <component glyphName="guilsinglleft" x="405" y="0" scalex="-0.999938964844" scaley="1.0" flags="0x4"/>
    </TTGlyph>
    <TTGlyph name="h" xMin="117" yMin="0" xMax="409" yMax="750">
      <contour>
        <pt x="117" y="750" on="1"/>
        <pt x="131" y="750" on="1"/>
        <pt x="131" y="322" on="1"/>
        <pt x="128" y="277" on="1"/>
        <pt x="148" y="324" on="0"/>
        <pt x="236" y="382" on="0"/>
        <pt x="293" y="382" on="1"/>
        <pt x="346" y="382" on="0"/>
        <pt x="407" y="320" on="0"/>
        <pt x="409" y="270" on="1"/>
        <pt x="409" y="0" on="1"/>
        <pt x="395" y="0" on="1"/>
        <pt x="395" y="277" on="1"/>
        <pt x="393" y="313" on="0"/>
        <pt x="344" y="366" on="0"/>
        <pt x="300" y="368" on="1"/>
        <pt x="266" y="368" on="0"/>
        <pt x="205" y="346" on="0"/>
        <pt x="158" y="307" on="0"/>
        <pt x="131" y="252" on="0"/>
        <pt x="131" y="220" on="1"/>
        <pt x="131" y="0" on="1"/>
        <pt x="117" y="0" on="1"/>
      </contour>
    </TTGlyph>
    <TTGlyph name="hyphen" xMin="53" yMin="184" xMax="237" yMax="198">
      <contour>
        <pt x="53" y="184" on="1"/>
        <pt x="53" y="198" on="1"/>
        <pt x="237" y="198" on="1"/>
        <pt x="237" y="184" on="1"/>
      </contour>
    </TTGlyph>
    <TTGlyph name="i" xMin="73" yMin="0" xMax="113" yMax="520">
      <contour>
        <pt x="73" y="500" on="1"/>
        <pt x="73" y="508" on="0"/>
        <pt x="85" y="520" on="0"/>
        <pt x="93" y="520" on="1"/>
        <pt x="101" y="520" on="0"/>
        <pt x="113" y="508" on="0"/>
        <pt x="113" y="500" on="1"/>
        <pt x="113" y="492" on="0"/>
        <pt x="101" y="480" on="0"/>
        <pt x="93" y="480" on="1"/>
        <pt x="85" y="480" on="0"/>
        <pt x="73" y="492" on="0"/>
      </contour>
      <contour>
        <pt x="100" y="0" on="1"/>
        <pt x="86" y="0" on="1"/>
        <pt x="86" y="375" on="1"/>
        <pt x="100" y="375" on="1"/>
      </contour>
    </TTGlyph>
    <TTGlyph name="iacute" xMin="77" yMin="0" xMax="183" yMax="612">
      <contour>
        <pt x="93" y="0" on="1"/>
        <pt x="79" y="0" on="1"/>
        <pt x="79" y="375" on="1"/>
        <pt x="93" y="375" on="1"/>
      </contour>
      <contour>
        <pt x="77" y="479" on="1"/>
        <pt x="100" y="512" on="0"/>
        <pt x="144" y="579" on="0"/>
        <pt x="167" y="612" on="1"/>
        <pt x="183" y="612" on="1"/>
        <pt x="160" y="579" on="0"/>
        <pt x="116" y="512" on="0"/>
        <pt x="93" y="479" on="1"/>
      </contour>
    </TTGlyph>
    <TTGlyph name="icircumflex" xMin="-4" yMin="0" xMax="236" yMax="660">
      <contour>
        <pt x="123" y="0" on="1"/>
        <pt x="109" y="0" on="1"/>
        <pt x="109" y="375" on="1"/>
        <pt x="123" y="375" on="1"/>
      </contour>
      <contour>
        <pt x="116" y="660" on="1"/>
        <pt x="146" y="615" on="0"/>
        <pt x="206" y="524" on="0"/>
        <pt x="236" y="479" on="1"/>
        <pt x="220" y="479" on="1"/>
        <pt x="194" y="517" on="0"/>
        <pt x="142" y="595" on="0"/>
        <pt x="116" y="633" on="1"/>
        <pt x="90" y="595" on="0"/>
        <pt x="38" y="517" on="0"/>
        <pt x="12" y="479" on="1"/>
        <pt x="-4" y="479" on="1"/>
        <pt x="26" y="524" on="0"/>
        <pt x="86" y="615" on="0"/>
      </contour>
    </TTGlyph>
    <TTGlyph name="idieresis" xMin="39" yMin="0" xMax="244" yMax="520">
      <contour>
        <pt x="153" y="0" on="1"/>
        <pt x="139" y="0" on="1"/>
        <pt x="139" y="375" on="1"/>
        <pt x="153" y="375" on="1"/>
      </contour>
      <contour>
        <pt x="204" y="500" on="1"/>
        <pt x="204" y="508" on="0"/>
        <pt x="216" y="520" on="0"/>
        <pt x="224" y="520" on="1"/>
        <pt x="232" y="520" on="0"/>
        <pt x="244" y="508" on="0"/>
        <pt x="244" y="500" on="1"/>
        <pt x="244" y="492" on="0"/>
        <pt x="232" y="480" on="0"/>
        <pt x="224" y="480" on="1"/>
        <pt x="216" y="480" on="0"/>
        <pt x="204" y="492" on="0"/>
      </contour>
      <contour>
        <pt x="39" y="500" on="1"/>
        <pt x="39" y="508" on="0"/>
        <pt x="51" y="520" on="0"/>
        <pt x="59" y="520" on="1"/>
        <pt x="67" y="520" on="0"/>
        <pt x="79" y="508" on="0"/>
        <pt x="79" y="500" on="1"/>
        <pt x="79" y="492" on="0"/>
        <pt x="67" y="480" on="0"/>
        <pt x="59" y="480" on="1"/>
        <pt x="51" y="480" on="0"/>
        <pt x="39" y="492" on="0"/>
      </contour>
    </TTGlyph>
    <TTGlyph name="igrave" xMin="-2" yMin="0" xMax="104" yMax="612">
      <contour>
        <pt x="100" y="0" on="1"/>
        <pt x="86" y="0" on="1"/>
        <pt x="86" y="375" on="1"/>
        <pt x="100" y="375" on="1"/>
      </contour>
      <contour>
        <pt x="14" y="612" on="1"/>
        <pt x="37" y="579" on="0"/>
        <pt x="81" y="512" on="0"/>
        <pt x="104" y="479" on="1"/>
        <pt x="88" y="479" on="1"/>
        <pt x="65" y="512" on="0"/>
        <pt x="21" y="579" on="0"/>
        <pt x="-2" y="612" on="1"/>
      </contour>
    </TTGlyph>
    <TTGlyph name="j" xMin="56" yMin="-180" xMax="138" yMax="520">
      <contour>
        <pt x="98" y="500" on="1"/>
        <pt x="98" y="508" on="0"/>
        <pt x="110" y="520" on="0"/>
        <pt x="118" y="520" on="1"/>
        <pt x="126" y="520" on="0"/>
        <pt x="138" y="508" on="0"/>
        <pt x="138" y="500" on="1"/>
        <pt x="138" y="492" on="0"/>
        <pt x="126" y="480" on="0"/>
        <pt x="118" y="480" on="1"/>
        <pt x="110" y="480" on="0"/>
        <pt x="98" y="492" on="0"/>
      </contour>
      <contour>
        <pt x="68" y="-180" on="1"/>
        <pt x="56" y="-171" on="1"/>
        <pt x="81" y="-143" on="0"/>
        <pt x="111" y="-62" on="0"/>
        <pt x="111" y="-11" on="1"/>
        <pt x="111" y="375" on="1"/>
        <pt x="125" y="375" on="1"/>
        <pt x="125" y="-7" on="1"/>
        <pt x="125" y="-64" on="0"/>
        <pt x="94" y="-151" on="0"/>
      </contour>
    </TTGlyph>
    <TTGlyph name="k" xMin="90" yMin="0" xMax="362" yMax="750">
      <contour>
        <pt x="327" y="384" on="1"/>
        <pt x="329" y="382" on="0"/>
        <pt x="334" y="376" on="0"/>
        <pt x="336" y="374" on="1"/>
        <pt x="298" y="338" on="0"/>
        <pt x="228" y="271" on="0"/>
        <pt x="190" y="235" on="1"/>
        <pt x="233" y="176" on="0"/>
        <pt x="319" y="59" on="0"/>
        <pt x="362" y="0" on="1"/>
        <pt x="344" y="0" on="1"/>
        <pt x="302" y="57" on="0"/>
        <pt x="220" y="168" on="0"/>
        <pt x="178" y="225" on="1"/>
        <pt x="159" y="208" on="0"/>
        <pt x="123" y="172" on="0"/>
        <pt x="104" y="155" on="1"/>
        <pt x="104" y="0" on="1"/>
        <pt x="90" y="0" on="1"/>
        <pt x="90" y="750" on="1"/>
        <pt x="104" y="750" on="1"/>
        <pt x="104" y="176" on="1"/>
        <pt x="161" y="230" on="0"/>
        <pt x="270" y="330" on="0"/>
      </contour>
    </TTGlyph>
    <TTGlyph name="l" xMin="86" yMin="0" xMax="100" yMax="750">
      <contour>
        <pt x="100" y="0" on="1"/>
        <pt x="86" y="0" on="1"/>
        <pt x="86" y="750" on="1"/>
        <pt x="100" y="750" on="1"/>
      </contour>
    </TTGlyph>
    <TTGlyph name="less" xMin="115" yMin="-15" xMax="553" yMax="491">
      <contour>
        <pt x="553" y="1" on="1"/>
        <pt x="553" y="-15" on="1"/>
        <pt x="443" y="48" on="0"/>
        <pt x="225" y="175" on="0"/>
        <pt x="115" y="238" on="1"/>
        <pt x="225" y="301" on="0"/>
        <pt x="443" y="428" on="0"/>
        <pt x="553" y="491" on="1"/>
        <pt x="553" y="475" on="1"/>
        <pt x="450" y="415" on="0"/>
        <pt x="244" y="298" on="0"/>
        <pt x="141" y="238" on="1"/>
        <pt x="244" y="178" on="0"/>
        <pt x="450" y="61" on="0"/>
      </contour>
    </TTGlyph>
    <TTGlyph name="logicalnot" xMin="100" yMin="148" xMax="460" yMax="241">
      <contour>
        <pt x="446" y="148" on="1"/>
        <pt x="446" y="227" on="1"/>
        <pt x="100" y="227" on="1"/>
        <pt x="100" y="241" on="1"/>
        <pt x="460" y="241" on="1"/>
        <pt x="460" y="148" on="1"/>
      </contour>
    </TTGlyph>
    <TTGlyph name="m" xMin="117" yMin="0" xMax="687" yMax="382">
      <contour>
        <pt x="117" y="375" on="1"/>
        <pt x="131" y="375" on="1"/>
        <pt x="131" y="322" on="1"/>
        <pt x="128" y="277" on="1"/>
        <pt x="148" y="324" on="0"/>
        <pt x="236" y="382" on="0"/>
        <pt x="293" y="382" on="1"/>
        <pt x="342" y="382" on="0"/>
        <pt x="403" y="327" on="0"/>
        <pt x="408" y="282" on="1"/>
        <pt x="429" y="327" on="0"/>
        <pt x="516" y="382" on="0"/>
        <pt x="571" y="382" on="1"/>
        <pt x="624" y="382" on="0"/>
        <pt x="685" y="320" on="0"/>
        <pt x="687" y="270" on="1"/>
        <pt x="687" y="0" on="1"/>
        <pt x="673" y="0" on="1"/>
        <pt x="673" y="277" on="1"/>
        <pt x="671" y="313" on="0"/>
        <pt x="622" y="366" on="0"/>
        <pt x="578" y="368" on="1"/>
        <pt x="545" y="368" on="0"/>
        <pt x="485" y="347" on="0"/>
        <pt x="439" y="309" on="0"/>
        <pt x="410" y="257" on="0"/>
        <pt x="409" y="226" on="1"/>
        <pt x="409" y="0" on="1"/>
        <pt x="395" y="0" on="1"/>
        <pt x="395" y="277" on="1"/>
        <pt x="393" y="313" on="0"/>
        <pt x="344" y="366" on="0"/>
        <pt x="300" y="368" on="1"/>
        <pt x="266" y="368" on="0"/>
        <pt x="205" y="346" on="0"/>
        <pt x="158" y="307" on="0"/>
        <pt x="131" y="252" on="0"/>
        <pt x="131" y="220" on="1"/>
        <pt x="131" y="0" on="1"/>
        <pt x="117" y="0" on="1"/>
      </contour>
    </TTGlyph>
    <TTGlyph name="macron" xMin="85" yMin="492" xMax="315" yMax="506">
      <contour>
        <pt x="85" y="492" on="1"/>
        <pt x="85" y="506" on="1"/>
        <pt x="315" y="506" on="1"/>
        <pt x="315" y="492" on="1"/>
      </contour>
    </TTGlyph>
    <TTGlyph name="mu" xMin="117" yMin="-201" xMax="409" yMax="375">
      <contour>
        <pt x="409" y="0" on="1"/>
        <pt x="395" y="0" on="1"/>
        <pt x="395" y="53" on="1"/>
        <pt x="398" y="98" on="1"/>
        <pt x="378" y="50" on="0"/>
        <pt x="289" y="-7" on="0"/>
        <pt x="233" y="-7" on="1"/>
        <pt x="197" y="-7" on="0"/>
        <pt x="145" y="23" on="0"/>
        <pt x="131" y="49" on="1"/>
        <pt x="131" y="-201" on="1"/>
        <pt x="117" y="-201" on="1"/>
        <pt x="117" y="375" on="1"/>
        <pt x="131" y="375" on="1"/>
        <pt x="131" y="98" on="1"/>
        <pt x="133" y="62" on="0"/>
        <pt x="182" y="9" on="0"/>
        <pt x="226" y="7" on="1"/>
        <pt x="260" y="7" on="0"/>
        <pt x="321" y="29" on="0"/>
        <pt x="367" y="68" on="0"/>
        <pt x="395" y="123" on="0"/>
        <pt x="395" y="155" on="1"/>
        <pt x="395" y="375" on="1"/>
        <pt x="409" y="375" on="1"/>
      </contour>
    </TTGlyph>
    <TTGlyph name="multiply" xMin="130" yMin="0" xMax="395" yMax="265">
      <contour>
        <pt x="385" y="0" on="1"/>
        <pt x="262" y="123" on="1"/>
        <pt x="231" y="92" on="0"/>
        <pt x="171" y="31" on="0"/>
        <pt x="140" y="0" on="1"/>
        <pt x="130" y="10" on="1"/>
        <pt x="161" y="41" on="0"/>
        <pt x="221" y="102" on="0"/>
        <pt x="252" y="133" on="1"/>
        <pt x="131" y="254" on="1"/>
        <pt x="141" y="264" on="1"/>
        <pt x="262" y="143" on="1"/>
        <pt x="293" y="174" on="0"/>
        <pt x="354" y="234" on="0"/>
        <pt x="385" y="265" on="1"/>
        <pt x="395" y="255" on="1"/>
        <pt x="364" y="224" on="0"/>
        <pt x="303" y="164" on="0"/>
        <pt x="272" y="133" on="1"/>
        <pt x="395" y="10" on="1"/>
      </contour>
    </TTGlyph>
    <TTGlyph name="n" xMin="117" yMin="0" xMax="409" yMax="382">
      <contour>
        <pt x="117" y="375" on="1"/>
        <pt x="131" y="375" on="1"/>
        <pt x="131" y="322" on="1"/>
        <pt x="128" y="277" on="1"/>
        <pt x="148" y="324" on="0"/>
        <pt x="236" y="382" on="0"/>
        <pt x="293" y="382" on="1"/>
        <pt x="346" y="382" on="0"/>
        <pt x="407" y="320" on="0"/>
        <pt x="409" y="270" on="1"/>
        <pt x="409" y="0" on="1"/>
        <pt x="395" y="0" on="1"/>
        <pt x="395" y="277" on="1"/>
        <pt x="393" y="313" on="0"/>
        <pt x="344" y="366" on="0"/>
        <pt x="300" y="368" on="1"/>
        <pt x="266" y="368" on="0"/>
        <pt x="205" y="346" on="0"/>
        <pt x="158" y="307" on="0"/>
        <pt x="131" y="252" on="0"/>
        <pt x="131" y="220" on="1"/>
        <pt x="131" y="0" on="1"/>
        <pt x="117" y="0" on="1"/>
      </contour>
    </TTGlyph>
    <TTGlyph name="nine" xMin="55" yMin="-8" xMax="463" yMax="633">
      <contour>
        <pt x="450" y="432" on="1"/>
        <pt x="450" y="471" on="0"/>
        <pt x="420" y="539" on="0"/>
        <pt x="369" y="590" on="0"/>
        <pt x="299" y="619" on="0"/>
        <pt x="260" y="619" on="1"/>
        <pt x="221" y="619" on="0"/>
        <pt x="151" y="590" on="0"/>
        <pt x="99" y="539" on="0"/>
        <pt x="69" y="471" on="0"/>
        <pt x="69" y="432" on="1"/>
        <pt x="69" y="393" on="0"/>
        <pt x="99" y="324" on="0"/>
        <pt x="151" y="273" on="0"/>
        <pt x="221" y="244" on="0"/>
        <pt x="260" y="244" on="1"/>
        <pt x="299" y="244" on="0"/>
        <pt x="369" y="273" on="0"/>
        <pt x="420" y="324" on="0"/>
        <pt x="450" y="393" on="0"/>
      </contour>
      <contour>
        <pt x="463" y="432" on="1"/>
        <pt x="463" y="359" on="0"/>
        <pt x="401" y="234" on="0"/>
        <pt x="305" y="126" on="0"/>
        <pt x="187" y="33" on="0"/>
        <pt x="131" y="-8" on="1"/>
        <pt x="129" y="-5" on="0"/>
        <pt x="123" y="2" on="0"/>
        <pt x="121" y="5" on="1"/>
        <pt x="188" y="49" on="0"/>
        <pt x="290" y="135" on="0"/>
        <pt x="363" y="214" on="0"/>
        <pt x="410" y="283" on="0"/>
        <pt x="422" y="311" on="1"/>
        <pt x="394" y="274" on="0"/>
        <pt x="310" y="230" on="0"/>
        <pt x="259" y="230" on="1"/>
        <pt x="217" y="230" on="0"/>
        <pt x="142" y="262" on="0"/>
        <pt x="87" y="317" on="0"/>
        <pt x="55" y="390" on="0"/>
        <pt x="55" y="432" on="1"/>
        <pt x="55" y="474" on="0"/>
        <pt x="87" y="547" on="0"/>
        <pt x="142" y="601" on="0"/>
        <pt x="217" y="633" on="0"/>
        <pt x="259" y="633" on="1"/>
        <pt x="301" y="633" on="0"/>
        <pt x="376" y="601" on="0"/>
        <pt x="431" y="547" on="0"/>
        <pt x="463" y="474" on="0"/>
      </contour>
    </TTGlyph>
    <TTGlyph name="ntilde" xMin="117" yMin="0" xMax="422" yMax="530">
      <component glyphName="n" x="0" y="0" flags="0x4"/>
      <component glyphName="asciitilde" x="6" y="-11" flags="0x4"/>
    </TTGlyph>
    <TTGlyph name="numbersign" xMin="29" yMin="0" xMax="504" yMax="643">
      <contour>
        <pt x="182" y="407" on="1"/>
        <pt x="177" y="365" on="0"/>
        <pt x="167" y="281" on="0"/>
        <pt x="162" y="239" on="1"/>
        <pt x="332" y="239" on="1"/>
        <pt x="337" y="281" on="0"/>
        <pt x="347" y="365" on="0"/>
        <pt x="352" y="407" on="1"/>
      </contour>
      <contour>
        <pt x="304" y="0" on="1"/>
        <pt x="311" y="57" on="0"/>
        <pt x="323" y="168" on="0"/>
        <pt x="330" y="225" on="1"/>
        <pt x="160" y="225" on="1"/>
        <pt x="153" y="168" on="0"/>
        <pt x="141" y="57" on="0"/>
        <pt x="134" y="0" on="1"/>
        <pt x="120" y="0" on="1"/>
        <pt x="127" y="57" on="0"/>
        <pt x="139" y="168" on="0"/>
        <pt x="146" y="225" on="1"/>
        <pt x="29" y="225" on="1"/>
        <pt x="29" y="229" on="0"/>
        <pt x="30" y="235" on="0"/>
        <pt x="30" y="239" on="1"/>
        <pt x="148" y="239" on="1"/>
        <pt x="153" y="281" on="0"/>
        <pt x="163" y="365" on="0"/>
        <pt x="168" y="407" on="1"/>
        <pt x="52" y="407" on="1"/>
        <pt x="52" y="411" on="0"/>
        <pt x="53" y="417" on="0"/>
        <pt x="53" y="421" on="1"/>
        <pt x="170" y="421" on="1"/>
        <pt x="197" y="643" on="1"/>
        <pt x="211" y="643" on="1"/>
        <pt x="184" y="421" on="1"/>
        <pt x="354" y="421" on="1"/>
        <pt x="381" y="643" on="1"/>
        <pt x="395" y="643" on="1"/>
        <pt x="368" y="421" on="1"/>
        <pt x="504" y="421" on="1"/>
        <pt x="504" y="417" on="0"/>
        <pt x="503" y="411" on="0"/>
        <pt x="503" y="407" on="1"/>
        <pt x="366" y="407" on="1"/>
        <pt x="361" y="365" on="0"/>
        <pt x="351" y="281" on="0"/>
        <pt x="346" y="239" on="1"/>
        <pt x="481" y="239" on="1"/>
        <pt x="481" y="235" on="0"/>
        <pt x="480" y="229" on="0"/>
        <pt x="480" y="225" on="1"/>
        <pt x="344" y="225" on="1"/>
        <pt x="337" y="168" on="0"/>
        <pt x="325" y="57" on="0"/>
        <pt x="318" y="0" on="1"/>
      </contour>
    </TTGlyph>
    <TTGlyph name="o" xMin="36" yMin="-6" xMax="426" yMax="384">
      <contour>
        <pt x="36" y="188" on="1"/>
        <pt x="36" y="228" on="0"/>
        <pt x="66" y="300" on="0"/>
        <pt x="119" y="353" on="0"/>
        <pt x="189" y="384" on="0"/>
        <pt x="230" y="384" on="1"/>
        <pt x="270" y="384" on="0"/>
        <pt x="342" y="353" on="0"/>
        <pt x="395" y="300" on="0"/>
        <pt x="426" y="228" on="0"/>
        <pt x="426" y="188" on="1"/>
        <pt x="426" y="147" on="0"/>
        <pt x="395" y="77" on="0"/>
        <pt x="342" y="24" on="0"/>
        <pt x="270" y="-6" on="0"/>
        <pt x="230" y="-6" on="1"/>
        <pt x="189" y="-6" on="0"/>
        <pt x="119" y="24" on="0"/>
        <pt x="66" y="77" on="0"/>
        <pt x="36" y="147" on="0"/>
      </contour>
      <contour>
        <pt x="50" y="188" on="1"/>
        <pt x="50" y="150" on="0"/>
        <pt x="78" y="85" on="0"/>
        <pt x="127" y="36" on="0"/>
        <pt x="192" y="8" on="0"/>
        <pt x="230" y="8" on="1"/>
        <pt x="267" y="8" on="0"/>
        <pt x="333" y="36" on="0"/>
        <pt x="383" y="85" on="0"/>
        <pt x="411" y="150" on="0"/>
        <pt x="411" y="188" on="1"/>
        <pt x="411" y="225" on="0"/>
        <pt x="383" y="291" on="0"/>
        <pt x="333" y="341" on="0"/>
        <pt x="267" y="369" on="0"/>
        <pt x="230" y="369" on="1"/>
        <pt x="192" y="369" on="0"/>
        <pt x="127" y="341" on="0"/>
        <pt x="78" y="291" on="0"/>
        <pt x="50" y="225" on="0"/>
      </contour>
    </TTGlyph>
    <TTGlyph name="oacute" xMin="36" yMin="-6" xMax="426" yMax="612">
      <component glyphName="o" x="0" y="0" flags="0x4"/>
      <component glyphName="acute" x="131" y="0" flags="0x4"/>
    </TTGlyph>
    <TTGlyph name="ocircumflex" xMin="36" yMin="-6" xMax="426" yMax="660">
      <component glyphName="o" x="0" y="0" flags="0x4"/>
      <component glyphName="asciicircum" x="-1" y="0" flags="0x4"/>
    </TTGlyph>
    <TTGlyph name="odieresis" xMin="36" yMin="-6" xMax="426" yMax="520">
      <component glyphName="o" x="0" y="0" flags="0x4"/>
      <component glyphName="dieresis" x="50" y="0" flags="0x4"/>
    </TTGlyph>
    <TTGlyph name="ograve" xMin="36" yMin="-6" xMax="426" yMax="612">
      <component glyphName="o" x="0" y="0" flags="0x4"/>
      <component glyphName="grave" x="138" y="0" flags="0x4"/>
    </TTGlyph>
    <TTGlyph name="one" xMin="34" yMin="0" xMax="161" yMax="650">
      <contour>
        <pt x="34" y="636" on="1"/>
        <pt x="34" y="650" on="1"/>
        <pt x="161" y="650" on="1"/>
        <pt x="161" y="0" on="1"/>
        <pt x="147" y="0" on="1"/>
        <pt x="147" y="636" on="1"/>
      </contour>
    </TTGlyph>
    <TTGlyph name="onehalf" xMin="121" yMin="-19" xMax="870" yMax="735">
      <component glyphName="one" x="97" y="234" scalex="0.709899902344" scaley="0.709716796875" flags="0x4"/>
      <component glyphName="two" x="553" y="0" scalex="0.706787109375" scaley="0.706665039062" flags="0x4"/>
      <component glyphName="slash" x="278" y="0" scalex="1.0" scaley="0.998657226562" flags="0x4"/>
    </TTGlyph>
    <TTGlyph name="onequarter" xMin="138" yMin="-19" xMax="845" yMax="735">
      <component glyphName="slash" x="278" y="0" scalex="1.0" scaley="0.998657226562" flags="0x4"/>
      <component glyphName="four" x="474" y="0" scalex="0.742980957031" scaley="0.744689941406" flags="0x4"/>
      <component glyphName="one" x="114" y="234" scalex="0.708679199219" scaley="0.709228515625" flags="0x4"/>
    </TTGlyph>
    <TTGlyph name="onesuperior" xMin="69" yMin="401" xMax="127" yMax="700">
      <component glyphName="one" x="54" y="401" scalex="0.45751953125" scaley="0.460021972656" flags="0x4"/>
    </TTGlyph>
    <TTGlyph name="ordfeminine" xMin="93" yMin="301" xMax="373" yMax="582">
      <component glyphName="a" x="58" y="306" scalex="0.721374511719" scaley="0.721252441406" flags="0x4"/>
    </TTGlyph>
    <TTGlyph name="ordmasculine" xMin="90" yMin="301" xMax="372" yMax="582">
      <component glyphName="o" x="65" y="306" scale="0.721252441406" flags="0x4"/>
    </TTGlyph>
    <TTGlyph name="oslash" xMin="36" yMin="-8" xMax="425" yMax="383">
      <contour>
        <pt x="50" y="188" on="1"/>
        <pt x="50" y="150" on="0"/>
        <pt x="79" y="83" on="0"/>
        <pt x="104" y="58" on="1"/>
        <pt x="162" y="127" on="0"/>
        <pt x="277" y="266" on="0"/>
        <pt x="335" y="335" on="1"/>
        <pt x="313" y="351" on="0"/>
        <pt x="259" y="369" on="0"/>
        <pt x="230" y="369" on="1"/>
        <pt x="192" y="369" on="0"/>
        <pt x="127" y="341" on="0"/>
        <pt x="78" y="291" on="0"/>
        <pt x="50" y="225" on="0"/>
      </contour>
      <contour>
        <pt x="230" y="8" on="1"/>
        <pt x="267" y="8" on="0"/>
        <pt x="333" y="36" on="0"/>
        <pt x="383" y="85" on="0"/>
        <pt x="411" y="150" on="0"/>
        <pt x="411" y="188" on="1"/>
        <pt x="411" y="230" on="0"/>
        <pt x="375" y="302" on="0"/>
        <pt x="345" y="327" on="1"/>
        <pt x="287" y="258" on="0"/>
        <pt x="171" y="119" on="0"/>
        <pt x="113" y="50" on="1"/>
        <pt x="163" y="8" on="0"/>
      </contour>
      <contour>
        <pt x="36" y="188" on="1"/>
        <pt x="36" y="228" on="0"/>
        <pt x="66" y="300" on="0"/>
        <pt x="119" y="352" on="0"/>
        <pt x="189" y="383" on="0"/>
        <pt x="230" y="383" on="1"/>
        <pt x="262" y="383" on="0"/>
        <pt x="321" y="363" on="0"/>
        <pt x="345" y="346" on="1"/>
        <pt x="353" y="355" on="0"/>
        <pt x="368" y="374" on="0"/>
        <pt x="376" y="383" on="1"/>
        <pt x="378" y="381" on="0"/>
        <pt x="383" y="377" on="0"/>
        <pt x="385" y="375" on="1"/>
        <pt x="377" y="366" on="0"/>
        <pt x="362" y="347" on="0"/>
        <pt x="354" y="338" on="1"/>
        <pt x="386" y="312" on="0"/>
        <pt x="425" y="233" on="0"/>
        <pt x="425" y="188" on="1"/>
        <pt x="425" y="147" on="0"/>
        <pt x="394" y="77" on="0"/>
        <pt x="342" y="24" on="0"/>
        <pt x="270" y="-6" on="0"/>
        <pt x="230" y="-6" on="1"/>
        <pt x="194" y="-6" on="0"/>
        <pt x="130" y="18" on="0"/>
        <pt x="104" y="39" on="1"/>
        <pt x="94" y="27" on="0"/>
        <pt x="75" y="4" on="0"/>
        <pt x="65" y="-8" on="1"/>
        <pt x="63" y="-6" on="0"/>
        <pt x="58" y="-2" on="0"/>
        <pt x="56" y="0" on="1"/>
        <pt x="66" y="12" on="0"/>
        <pt x="85" y="35" on="0"/>
        <pt x="95" y="47" on="1"/>
        <pt x="67" y="73" on="0"/>
        <pt x="36" y="146" on="0"/>
      </contour>
    </TTGlyph>
    <TTGlyph name="otilde" xMin="36" yMin="-6" xMax="426" yMax="541">
      <component glyphName="o" x="0" y="0" flags="0x4"/>
      <component glyphName="asciitilde" x="-40" y="0" flags="0x4"/>
    </TTGlyph>
    <TTGlyph name="p" xMin="67" yMin="-250" xMax="456" yMax="381">
      <contour>
        <pt x="442" y="187" on="1"/>
        <pt x="442" y="224" on="0"/>
        <pt x="414" y="290" on="0"/>
        <pt x="365" y="339" on="0"/>
        <pt x="299" y="367" on="0"/>
        <pt x="262" y="367" on="1"/>
        <pt x="224" y="367" on="0"/>
        <pt x="159" y="339" on="0"/>
        <pt x="109" y="290" on="0"/>
        <pt x="81" y="224" on="0"/>
        <pt x="81" y="187" on="1"/>
        <pt x="81" y="149" on="0"/>
        <pt x="109" y="84" on="0"/>
        <pt x="159" y="34" on="0"/>
        <pt x="224" y="6" on="0"/>
        <pt x="262" y="6" on="1"/>
        <pt x="299" y="6" on="0"/>
        <pt x="365" y="34" on="0"/>
        <pt x="414" y="84" on="0"/>
        <pt x="442" y="149" on="0"/>
      </contour>
      <contour>
        <pt x="456" y="187" on="1"/>
        <pt x="456" y="146" on="0"/>
        <pt x="426" y="75" on="0"/>
        <pt x="373" y="23" on="0"/>
        <pt x="302" y="-8" on="0"/>
        <pt x="262" y="-8" on="1"/>
        <pt x="231" y="-8" on="0"/>
        <pt x="174" y="10" on="0"/>
        <pt x="127" y="43" on="0"/>
        <pt x="91" y="88" on="0"/>
        <pt x="81" y="115" on="1"/>
        <pt x="81" y="101" on="0"/>
        <pt x="82" y="75" on="0"/>
        <pt x="82" y="61" on="1"/>
        <pt x="82" y="-250" on="1"/>
        <pt x="67" y="-250" on="1"/>
        <pt x="67" y="375" on="1"/>
        <pt x="81" y="375" on="1"/>
        <pt x="81" y="346" on="0"/>
        <pt x="80" y="286" on="0"/>
        <pt x="80" y="257" on="1"/>
        <pt x="101" y="312" on="0"/>
        <pt x="199" y="381" on="0"/>
        <pt x="262" y="381" on="1"/>
        <pt x="302" y="381" on="0"/>
        <pt x="373" y="351" on="0"/>
        <pt x="426" y="298" on="0"/>
        <pt x="456" y="227" on="0"/>
      </contour>
    </TTGlyph>
    <TTGlyph name="paragraph" xMin="38" yMin="0" xMax="378" yMax="750">
      <contour>
        <pt x="215" y="0" on="1"/>
        <pt x="201" y="0" on="1"/>
        <pt x="201" y="423" on="1"/>
        <pt x="167" y="423" on="0"/>
        <pt x="107" y="448" on="0"/>
        <pt x="63" y="492" on="0"/>
        <pt x="38" y="552" on="0"/>
        <pt x="38" y="586" on="1"/>
        <pt x="38" y="620" on="0"/>
        <pt x="63" y="680" on="0"/>
        <pt x="107" y="724" on="0"/>
        <pt x="167" y="750" on="0"/>
        <pt x="201" y="750" on="1"/>
        <pt x="378" y="750" on="1"/>
        <pt x="378" y="0" on="1"/>
        <pt x="364" y="0" on="1"/>
        <pt x="364" y="736" on="1"/>
        <pt x="215" y="736" on="1"/>
      </contour>
    </TTGlyph>
    <TTGlyph name="parenleft" xMin="147" yMin="-163" xMax="315" yMax="747">
      <contour>
        <pt x="147" y="292" on="1"/>
        <pt x="147" y="367" on="0"/>
        <pt x="175" y="503" on="0"/>
        <pt x="221" y="619" on="0"/>
        <pt x="280" y="714" on="0"/>
        <pt x="312" y="747" on="1"/>
        <pt x="313" y="741" on="0"/>
        <pt x="314" y="730" on="0"/>
        <pt x="315" y="724" on="1"/>
        <pt x="286" y="691" on="0"/>
        <pt x="231" y="601" on="0"/>
        <pt x="187" y="491" on="0"/>
        <pt x="161" y="363" on="0"/>
        <pt x="161" y="292" on="1"/>
        <pt x="161" y="221" on="0"/>
        <pt x="187" y="93" on="0"/>
        <pt x="231" y="-17" on="0"/>
        <pt x="286" y="-107" on="0"/>
        <pt x="315" y="-140" on="1"/>
        <pt x="314" y="-146" on="0"/>
        <pt x="313" y="-157" on="0"/>
        <pt x="312" y="-163" on="1"/>
        <pt x="280" y="-130" on="0"/>
        <pt x="221" y="-35" on="0"/>
        <pt x="175" y="81" on="0"/>
        <pt x="147" y="217" on="0"/>
      </contour>
    </TTGlyph>
    <TTGlyph name="parenright" xMin="111" yMin="-163" xMax="279" yMax="747">
      <contour>
        <pt x="279" y="292" on="1"/>
        <pt x="279" y="217" on="0"/>
        <pt x="251" y="81" on="0"/>
        <pt x="205" y="-35" on="0"/>
        <pt x="145" y="-130" on="0"/>
        <pt x="114" y="-163" on="1"/>
        <pt x="113" y="-157" on="0"/>
        <pt x="112" y="-146" on="0"/>
        <pt x="111" y="-140" on="1"/>
        <pt x="140" y="-107" on="0"/>
        <pt x="195" y="-17" on="0"/>
        <pt x="239" y="93" on="0"/>
        <pt x="265" y="221" on="0"/>
        <pt x="265" y="292" on="1"/>
        <pt x="265" y="363" on="0"/>
        <pt x="239" y="491" on="0"/>
        <pt x="195" y="601" on="0"/>
        <pt x="140" y="691" on="0"/>
        <pt x="111" y="724" on="1"/>
        <pt x="112" y="730" on="0"/>
        <pt x="113" y="741" on="0"/>
        <pt x="114" y="747" on="1"/>
        <pt x="145" y="714" on="0"/>
        <pt x="205" y="619" on="0"/>
        <pt x="251" y="503" on="0"/>
        <pt x="279" y="367" on="0"/>
      </contour>
    </TTGlyph>
    <TTGlyph name="percent" xMin="108" yMin="0" xMax="632" yMax="500">
      <contour>
        <pt x="426" y="112" on="1"/>
        <pt x="426" y="92" on="0"/>
        <pt x="441" y="58" on="0"/>
        <pt x="467" y="33" on="0"/>
        <pt x="502" y="18" on="0"/>
        <pt x="522" y="18" on="1"/>
        <pt x="542" y="18" on="0"/>
        <pt x="577" y="33" on="0"/>
        <pt x="603" y="58" on="0"/>
        <pt x="618" y="92" on="0"/>
        <pt x="618" y="112" on="1"/>
        <pt x="618" y="131" on="0"/>
        <pt x="603" y="166" on="0"/>
        <pt x="577" y="192" on="0"/>
        <pt x="542" y="207" on="0"/>
        <pt x="522" y="207" on="1"/>
        <pt x="502" y="207" on="0"/>
        <pt x="467" y="192" on="0"/>
        <pt x="441" y="166" on="0"/>
        <pt x="426" y="131" on="0"/>
      </contour>
      <contour>
        <pt x="522" y="4" on="1"/>
        <pt x="499" y="4" on="0"/>
        <pt x="459" y="21" on="0"/>
        <pt x="429" y="50" on="0"/>
        <pt x="412" y="90" on="0"/>
        <pt x="412" y="113" on="1"/>
        <pt x="412" y="135" on="0"/>
        <pt x="429" y="175" on="0"/>
        <pt x="459" y="204" on="0"/>
        <pt x="499" y="221" on="0"/>
        <pt x="522" y="221" on="1"/>
        <pt x="544" y="221" on="0"/>
        <pt x="584" y="204" on="0"/>
        <pt x="614" y="175" on="0"/>
        <pt x="632" y="135" on="0"/>
        <pt x="632" y="113" on="1"/>
        <pt x="632" y="90" on="0"/>
        <pt x="614" y="50" on="0"/>
        <pt x="584" y="21" on="0"/>
        <pt x="544" y="4" on="0"/>
      </contour>
      <contour>
        <pt x="122" y="388" on="1"/>
        <pt x="122" y="368" on="0"/>
        <pt x="137" y="334" on="0"/>
        <pt x="163" y="309" on="0"/>
        <pt x="198" y="294" on="0"/>
        <pt x="218" y="294" on="1"/>
        <pt x="238" y="294" on="0"/>
        <pt x="273" y="309" on="0"/>
        <pt x="299" y="334" on="0"/>
        <pt x="314" y="368" on="0"/>
        <pt x="314" y="388" on="1"/>
        <pt x="314" y="407" on="0"/>
        <pt x="299" y="442" on="0"/>
        <pt x="273" y="468" on="0"/>
        <pt x="238" y="483" on="0"/>
        <pt x="218" y="483" on="1"/>
        <pt x="198" y="483" on="0"/>
        <pt x="163" y="468" on="0"/>
        <pt x="137" y="442" on="0"/>
        <pt x="122" y="407" on="0"/>
      </contour>
      <contour>
        <pt x="218" y="280" on="1"/>
        <pt x="195" y="280" on="0"/>
        <pt x="155" y="297" on="0"/>
        <pt x="125" y="326" on="0"/>
        <pt x="108" y="366" on="0"/>
        <pt x="108" y="389" on="1"/>
        <pt x="108" y="411" on="0"/>
        <pt x="125" y="451" on="0"/>
        <pt x="155" y="480" on="0"/>
        <pt x="195" y="497" on="0"/>
        <pt x="218" y="497" on="1"/>
        <pt x="240" y="497" on="0"/>
        <pt x="280" y="480" on="0"/>
        <pt x="310" y="451" on="0"/>
        <pt x="328" y="411" on="0"/>
        <pt x="328" y="389" on="1"/>
        <pt x="328" y="366" on="0"/>
        <pt x="310" y="326" on="0"/>
        <pt x="280" y="297" on="0"/>
        <pt x="240" y="280" on="0"/>
      </contour>
      <contour>
        <pt x="208" y="0" on="1"/>
        <pt x="283" y="126" on="0"/>
        <pt x="431" y="374" on="0"/>
        <pt x="506" y="500" on="1"/>
        <pt x="522" y="500" on="1"/>
        <pt x="447" y="374" on="0"/>
        <pt x="299" y="126" on="0"/>
        <pt x="224" y="0" on="1"/>
      </contour>
    </TTGlyph>
    <TTGlyph name="period" xMin="66" yMin="0" xMax="106" yMax="40">
      <contour>
        <pt x="66" y="20" on="1"/>
        <pt x="66" y="28" on="0"/>
        <pt x="78" y="40" on="0"/>
        <pt x="86" y="40" on="1"/>
        <pt x="94" y="40" on="0"/>
        <pt x="106" y="28" on="0"/>
        <pt x="106" y="20" on="1"/>
        <pt x="106" y="12" on="0"/>
        <pt x="94" y="0" on="0"/>
        <pt x="86" y="0" on="1"/>
        <pt x="78" y="0" on="0"/>
        <pt x="66" y="12" on="0"/>
      </contour>
    </TTGlyph>
    <TTGlyph name="periodcentered" xMin="66" yMin="260" xMax="106" yMax="300">
      <component glyphName="period" x="0" y="260" flags="0x204"/>
    </TTGlyph>
    <TTGlyph name="plus" xMin="86" yMin="51" xMax="446" yMax="411">
      <contour>
        <pt x="259" y="51" on="1"/>
        <pt x="259" y="225" on="1"/>
        <pt x="86" y="225" on="1"/>
        <pt x="86" y="239" on="1"/>
        <pt x="259" y="239" on="1"/>
        <pt x="259" y="411" on="1"/>
        <pt x="273" y="411" on="1"/>
        <pt x="273" y="239" on="1"/>
        <pt x="446" y="239" on="1"/>
        <pt x="446" y="225" on="1"/>
        <pt x="273" y="225" on="1"/>
        <pt x="273" y="51" on="1"/>
      </contour>
    </TTGlyph>
    <TTGlyph name="plusminus" xMin="86" yMin="136" xMax="446" yMax="571">
      <contour>
        <pt x="259" y="211" on="1"/>
        <pt x="259" y="385" on="1"/>
        <pt x="86" y="385" on="1"/>
        <pt x="86" y="399" on="1"/>
        <pt x="259" y="399" on="1"/>
        <pt x="259" y="571" on="1"/>
        <pt x="273" y="571" on="1"/>
        <pt x="273" y="399" on="1"/>
        <pt x="446" y="399" on="1"/>
        <pt x="446" y="385" on="1"/>
        <pt x="273" y="385" on="1"/>
        <pt x="273" y="211" on="1"/>
      </contour>
      <contour>
        <pt x="446" y="136" on="1"/>
        <pt x="86" y="136" on="1"/>
        <pt x="86" y="150" on="1"/>
        <pt x="446" y="150" on="1"/>
      </contour>
    </TTGlyph>
    <TTGlyph name="q" xMin="53" yMin="-250" xMax="442" yMax="381">
      <contour>
        <pt x="67" y="187" on="1"/>
        <pt x="67" y="149" on="0"/>
        <pt x="95" y="84" on="0"/>
        <pt x="144" y="34" on="0"/>
        <pt x="209" y="6" on="0"/>
        <pt x="247" y="6" on="1"/>
        <pt x="284" y="6" on="0"/>
        <pt x="350" y="34" on="0"/>
        <pt x="400" y="84" on="0"/>
        <pt x="428" y="149" on="0"/>
        <pt x="428" y="187" on="1"/>
        <pt x="428" y="224" on="0"/>
        <pt x="400" y="290" on="0"/>
        <pt x="350" y="339" on="0"/>
        <pt x="284" y="367" on="0"/>
        <pt x="247" y="367" on="1"/>
        <pt x="209" y="367" on="0"/>
        <pt x="144" y="339" on="0"/>
        <pt x="95" y="290" on="0"/>
        <pt x="67" y="224" on="0"/>
      </contour>
      <contour>
        <pt x="53" y="187" on="1"/>
        <pt x="53" y="227" on="0"/>
        <pt x="83" y="298" on="0"/>
        <pt x="136" y="351" on="0"/>
        <pt x="206" y="381" on="0"/>
        <pt x="247" y="381" on="1"/>
        <pt x="310" y="381" on="0"/>
        <pt x="408" y="312" on="0"/>
        <pt x="429" y="257" on="1"/>
        <pt x="429" y="286" on="0"/>
        <pt x="428" y="346" on="0"/>
        <pt x="428" y="375" on="1"/>
        <pt x="442" y="375" on="1"/>
        <pt x="442" y="-250" on="1"/>
        <pt x="427" y="-250" on="1"/>
        <pt x="427" y="61" on="1"/>
        <pt x="427" y="75" on="0"/>
        <pt x="428" y="101" on="0"/>
        <pt x="428" y="115" on="1"/>
        <pt x="417" y="88" on="0"/>
        <pt x="382" y="43" on="0"/>
        <pt x="335" y="10" on="0"/>
        <pt x="278" y="-8" on="0"/>
        <pt x="247" y="-8" on="1"/>
        <pt x="206" y="-8" on="0"/>
        <pt x="136" y="23" on="0"/>
        <pt x="83" y="75" on="0"/>
        <pt x="53" y="146" on="0"/>
      </contour>
    </TTGlyph>
    <TTGlyph name="question" xMin="31" yMin="25" xMax="412" yMax="732">
      <contour>
        <pt x="44" y="596" on="1"/>
        <pt x="41" y="597" on="0"/>
        <pt x="34" y="598" on="0"/>
        <pt x="31" y="599" on="1"/>
        <pt x="51" y="657" on="0"/>
        <pt x="151" y="732" on="0"/>
        <pt x="216" y="732" on="1"/>
        <pt x="257" y="732" on="0"/>
        <pt x="329" y="701" on="0"/>
        <pt x="382" y="648" on="0"/>
        <pt x="412" y="577" on="0"/>
        <pt x="412" y="537" on="1"/>
        <pt x="412" y="483" on="0"/>
        <pt x="359" y="402" on="0"/>
        <pt x="314" y="370" on="1"/>
        <pt x="294" y="356" on="0"/>
        <pt x="261" y="337" on="0"/>
        <pt x="236" y="313" on="0"/>
        <pt x="222" y="275" on="0"/>
        <pt x="222" y="242" on="1"/>
        <pt x="222" y="164" on="1"/>
        <pt x="208" y="164" on="1"/>
        <pt x="208" y="261" on="1"/>
        <pt x="208" y="292" on="0"/>
        <pt x="231" y="329" on="0"/>
        <pt x="268" y="358" on="0"/>
        <pt x="315" y="387" on="0"/>
        <pt x="339" y="408" on="1"/>
        <pt x="370" y="435" on="0"/>
        <pt x="398" y="500" on="0"/>
        <pt x="398" y="537" on="1"/>
        <pt x="398" y="576" on="0"/>
        <pt x="370" y="642" on="0"/>
        <pt x="321" y="691" on="0"/>
        <pt x="254" y="718" on="0"/>
        <pt x="216" y="718" on="1"/>
        <pt x="186" y="718" on="0"/>
        <pt x="132" y="700" on="0"/>
        <pt x="86" y="668" on="0"/>
        <pt x="53" y="623" on="0"/>
      </contour>
      <contour>
        <pt x="215" y="25" on="1"/>
        <pt x="208" y="25" on="0"/>
        <pt x="196" y="37" on="0"/>
        <pt x="196" y="45" on="1"/>
        <pt x="196" y="54" on="0"/>
        <pt x="208" y="65" on="0"/>
        <pt x="215" y="65" on="1"/>
        <pt x="223" y="65" on="0"/>
        <pt x="235" y="54" on="0"/>
        <pt x="235" y="45" on="1"/>
        <pt x="235" y="37" on="0"/>
        <pt x="223" y="25" on="0"/>
      </contour>
    </TTGlyph>
    <TTGlyph name="questiondown" xMin="37" yMin="-193" xMax="418" yMax="514">
      <component glyphName="question" x="449" y="539" scale="-0.999938964844" flags="0x4"/>
    </TTGlyph>
    <TTGlyph name="quotedbl" xMin="63" yMin="472" xMax="214" yMax="720">
      <contour>
        <pt x="196" y="472" on="1"/>
        <pt x="196" y="720" on="1"/>
        <pt x="214" y="720" on="1"/>
        <pt x="213" y="657" on="0"/>
        <pt x="211" y="535" on="0"/>
        <pt x="210" y="472" on="1"/>
      </contour>
      <contour>
        <pt x="63" y="472" on="1"/>
        <pt x="63" y="720" on="1"/>
        <pt x="81" y="720" on="1"/>
        <pt x="80" y="657" on="0"/>
        <pt x="78" y="535" on="0"/>
        <pt x="77" y="472" on="1"/>
      </contour>
    </TTGlyph>
    <TTGlyph name="quotedblbase" xMin="20" yMin="-47" xMax="184" yMax="92">
      <contour>
        <pt x="26" y="-47" on="1"/>
        <pt x="20" y="-29" on="1"/>
        <pt x="41" y="-9" on="0"/>
        <pt x="60" y="50" on="0"/>
        <pt x="53" y="85" on="1"/>
        <pt x="58" y="87" on="0"/>
        <pt x="67" y="90" on="0"/>
        <pt x="72" y="92" on="1"/>
        <pt x="80" y="52" on="0"/>
        <pt x="55" y="-21" on="0"/>
      </contour>
      <contour>
        <pt x="130" y="-47" on="1"/>
        <pt x="124" y="-29" on="1"/>
        <pt x="145" y="-9" on="0"/>
        <pt x="164" y="50" on="0"/>
        <pt x="157" y="85" on="1"/>
        <pt x="162" y="87" on="0"/>
        <pt x="171" y="90" on="0"/>
        <pt x="176" y="92" on="1"/>
        <pt x="184" y="52" on="0"/>
        <pt x="159" y="-21" on="0"/>
      </contour>
    </TTGlyph>
    <TTGlyph name="quotedblleft" xMin="23" yMin="572" xMax="187" yMax="711">
      <contour>
        <pt x="187" y="590" on="1"/>
        <pt x="181" y="572" on="1"/>
        <pt x="152" y="598" on="0"/>
        <pt x="127" y="671" on="0"/>
        <pt x="135" y="711" on="1"/>
        <pt x="140" y="709" on="0"/>
        <pt x="149" y="706" on="0"/>
        <pt x="154" y="704" on="1"/>
        <pt x="147" y="669" on="0"/>
        <pt x="166" y="610" on="0"/>
      </contour>
      <contour>
        <pt x="83" y="590" on="1"/>
        <pt x="77" y="572" on="1"/>
        <pt x="48" y="598" on="0"/>
        <pt x="23" y="671" on="0"/>
        <pt x="31" y="711" on="1"/>
        <pt x="36" y="709" on="0"/>
        <pt x="45" y="706" on="0"/>
        <pt x="50" y="704" on="1"/>
        <pt x="43" y="669" on="0"/>
        <pt x="62" y="610" on="0"/>
      </contour>
    </TTGlyph>
    <TTGlyph name="quotedblright" xMin="44" yMin="572" xMax="208" yMax="711">
      <contour>
        <pt x="50" y="572" on="1"/>
        <pt x="44" y="590" on="1"/>
        <pt x="65" y="610" on="0"/>
        <pt x="84" y="669" on="0"/>
        <pt x="77" y="704" on="1"/>
        <pt x="82" y="706" on="0"/>
        <pt x="91" y="709" on="0"/>
        <pt x="96" y="711" on="1"/>
        <pt x="104" y="671" on="0"/>
        <pt x="79" y="598" on="0"/>
      </contour>
      <contour>
        <pt x="154" y="572" on="1"/>
        <pt x="148" y="590" on="1"/>
        <pt x="169" y="610" on="0"/>
        <pt x="188" y="669" on="0"/>
        <pt x="181" y="704" on="1"/>
        <pt x="186" y="706" on="0"/>
        <pt x="195" y="709" on="0"/>
        <pt x="200" y="711" on="1"/>
        <pt x="208" y="671" on="0"/>
        <pt x="183" y="598" on="0"/>
      </contour>
    </TTGlyph>
    <TTGlyph name="quoteleft" xMin="32" yMin="572" xMax="92" yMax="711">
      <contour>
        <pt x="92" y="590" on="1"/>
        <pt x="86" y="572" on="1"/>
        <pt x="57" y="598" on="0"/>
        <pt x="32" y="671" on="0"/>
        <pt x="40" y="711" on="1"/>
        <pt x="45" y="709" on="0"/>
        <pt x="54" y="706" on="0"/>
        <pt x="59" y="704" on="1"/>
        <pt x="52" y="669" on="0"/>
        <pt x="71" y="610" on="0"/>
      </contour>
    </TTGlyph>
    <TTGlyph name="quoteright" xMin="59" yMin="572" xMax="119" yMax="711">
      <contour>
        <pt x="65" y="572" on="1"/>
        <pt x="59" y="590" on="1"/>
        <pt x="80" y="610" on="0"/>
        <pt x="99" y="669" on="0"/>
        <pt x="92" y="704" on="1"/>
        <pt x="97" y="706" on="0"/>
        <pt x="106" y="709" on="0"/>
        <pt x="111" y="711" on="1"/>
        <pt x="119" y="671" on="0"/>
        <pt x="94" y="598" on="0"/>
      </contour>
    </TTGlyph>
    <TTGlyph name="quotesinglbase" xMin="20" yMin="-47" xMax="80" yMax="92">
      <contour>
        <pt x="26" y="-47" on="1"/>
        <pt x="20" y="-29" on="1"/>
        <pt x="41" y="-9" on="0"/>
        <pt x="60" y="50" on="0"/>
        <pt x="53" y="85" on="1"/>
        <pt x="58" y="87" on="0"/>
        <pt x="67" y="90" on="0"/>
        <pt x="72" y="92" on="1"/>
        <pt x="80" y="52" on="0"/>
        <pt x="55" y="-21" on="0"/>
      </contour>
    </TTGlyph>
    <TTGlyph name="quotesingle" xMin="67" yMin="472" xMax="85" yMax="720">
      <contour>
        <pt x="67" y="472" on="1"/>
        <pt x="67" y="720" on="1"/>
        <pt x="85" y="720" on="1"/>
        <pt x="84" y="657" on="0"/>
        <pt x="82" y="535" on="0"/>
        <pt x="81" y="472" on="1"/>
      </contour>
    </TTGlyph>
    <TTGlyph name="r" xMin="117" yMin="0" xMax="294" yMax="382">
      <contour>
        <pt x="294" y="368" on="1"/>
        <pt x="261" y="367" on="0"/>
        <pt x="202" y="344" on="0"/>
        <pt x="157" y="305" on="0"/>
        <pt x="131" y="251" on="0"/>
        <pt x="131" y="220" on="1"/>
        <pt x="131" y="0" on="1"/>
        <pt x="117" y="0" on="1"/>
        <pt x="117" y="375" on="1"/>
        <pt x="131" y="375" on="1"/>
        <pt x="131" y="322" on="1"/>
        <pt x="128" y="277" on="1"/>
        <pt x="149" y="325" on="0"/>
        <pt x="237" y="380" on="0"/>
        <pt x="294" y="382" on="1"/>
      </contour>
    </TTGlyph>
    <TTGlyph name="registered" xMin="145" yMin="118" xMax="655" yMax="627">
      <contour>
        <pt x="399" y="132" on="1"/>
        <pt x="449" y="132" on="0"/>
        <pt x="537" y="168" on="0"/>
        <pt x="603" y="233" on="0"/>
        <pt x="641" y="320" on="0"/>
        <pt x="641" y="371" on="1"/>
        <pt x="641" y="423" on="0"/>
        <pt x="603" y="512" on="0"/>
        <pt x="537" y="577" on="0"/>
        <pt x="449" y="613" on="0"/>
        <pt x="399" y="613" on="1"/>
        <pt x="350" y="613" on="0"/>
        <pt x="263" y="577" on="0"/>
        <pt x="197" y="512" on="0"/>
        <pt x="159" y="423" on="0"/>
        <pt x="159" y="371" on="1"/>
        <pt x="159" y="320" on="0"/>
        <pt x="197" y="233" on="0"/>
        <pt x="263" y="168" on="0"/>
        <pt x="350" y="132" on="0"/>
      </contour>
      <contour>
        <pt x="400" y="118" on="1"/>
        <pt x="346" y="118" on="0"/>
        <pt x="253" y="156" on="0"/>
        <pt x="184" y="224" on="0"/>
        <pt x="145" y="317" on="0"/>
        <pt x="145" y="372" on="1"/>
        <pt x="145" y="427" on="0"/>
        <pt x="184" y="521" on="0"/>
        <pt x="253" y="589" on="0"/>
        <pt x="346" y="627" on="0"/>
        <pt x="400" y="627" on="1"/>
        <pt x="454" y="627" on="0"/>
        <pt x="547" y="589" on="0"/>
        <pt x="616" y="521" on="0"/>
        <pt x="655" y="427" on="0"/>
        <pt x="655" y="372" on="1"/>
        <pt x="655" y="317" on="0"/>
        <pt x="616" y="224" on="0"/>
        <pt x="547" y="156" on="0"/>
        <pt x="454" y="118" on="0"/>
      </contour>
      <contour>
        <pt x="340" y="378" on="1"/>
        <pt x="395" y="378" on="1"/>
        <pt x="422" y="378" on="0"/>
        <pt x="458" y="393" on="0"/>
        <pt x="479" y="416" on="0"/>
        <pt x="487" y="444" on="0"/>
        <pt x="487" y="457" on="1"/>
        <pt x="487" y="488" on="0"/>
        <pt x="434" y="534" on="0"/>
        <pt x="395" y="534" on="1"/>
        <pt x="340" y="534" on="1"/>
      </contour>
      <contour>
        <pt x="334" y="210" on="1"/>
        <pt x="334" y="541" on="1"/>
        <pt x="400" y="541" on="1"/>
        <pt x="413" y="541" on="0"/>
        <pt x="446" y="532" on="0"/>
        <pt x="475" y="511" on="0"/>
        <pt x="494" y="479" on="0"/>
        <pt x="494" y="457" on="1"/>
        <pt x="494" y="424" on="0"/>
        <pt x="457" y="381" on="0"/>
        <pt x="422" y="374" on="1"/>
        <pt x="442" y="332" on="0"/>
        <pt x="480" y="251" on="0"/>
        <pt x="499" y="210" on="1"/>
        <pt x="492" y="210" on="1"/>
        <pt x="473" y="251" on="0"/>
        <pt x="435" y="331" on="0"/>
        <pt x="415" y="373" on="1"/>
        <pt x="410" y="372" on="0"/>
        <pt x="399" y="371" on="0"/>
        <pt x="393" y="371" on="1"/>
        <pt x="340" y="371" on="1"/>
        <pt x="340" y="210" on="1"/>
      </contour>
    </TTGlyph>
    <TTGlyph name="s" xMin="57" yMin="-8" xMax="286" yMax="379">
      <contour>
        <pt x="271" y="336" on="1"/>
        <pt x="261" y="326" on="1"/>
        <pt x="244" y="346" on="0"/>
        <pt x="191" y="365" on="0"/>
        <pt x="170" y="365" on="1"/>
        <pt x="157" y="365" on="0"/>
        <pt x="128" y="357" on="0"/>
        <pt x="102" y="338" on="0"/>
        <pt x="85" y="307" on="0"/>
        <pt x="85" y="285" on="1"/>
        <pt x="84" y="256" on="0"/>
        <pt x="114" y="225" on="0"/>
        <pt x="159" y="206" on="0"/>
        <pt x="211" y="193" on="0"/>
        <pt x="256" y="171" on="0"/>
        <pt x="286" y="134" on="0"/>
        <pt x="286" y="101" on="1"/>
        <pt x="286" y="82" on="0"/>
        <pt x="272" y="43" on="0"/>
        <pt x="243" y="12" on="0"/>
        <pt x="200" y="-8" on="0"/>
        <pt x="170" y="-8" on="1"/>
        <pt x="144" y="-8" on="0"/>
        <pt x="78" y="13" on="0"/>
        <pt x="57" y="39" on="1"/>
        <pt x="60" y="41" on="0"/>
        <pt x="65" y="46" on="0"/>
        <pt x="68" y="48" on="1"/>
        <pt x="74" y="39" on="0"/>
        <pt x="100" y="23" on="0"/>
        <pt x="130" y="12" on="0"/>
        <pt x="161" y="6" on="0"/>
        <pt x="174" y="6" on="1"/>
        <pt x="189" y="6" on="0"/>
        <pt x="223" y="18" on="0"/>
        <pt x="252" y="41" on="0"/>
        <pt x="272" y="75" on="0"/>
        <pt x="272" y="98" on="1"/>
        <pt x="272" y="129" on="0"/>
        <pt x="242" y="163" on="0"/>
        <pt x="198" y="182" on="0"/>
        <pt x="145" y="196" on="0"/>
        <pt x="101" y="215" on="0"/>
        <pt x="71" y="249" on="0"/>
        <pt x="71" y="280" on="1"/>
        <pt x="71" y="304" on="0"/>
        <pt x="88" y="340" on="0"/>
        <pt x="117" y="366" on="0"/>
        <pt x="153" y="379" on="0"/>
        <pt x="172" y="379" on="1"/>
        <pt x="193" y="379" on="0"/>
        <pt x="250" y="360" on="0"/>
      </contour>
    </TTGlyph>
    <TTGlyph name="section" xMin="143" yMin="-10" xMax="370" yMax="730">
      <contour>
        <pt x="173" y="311" on="1"/>
        <pt x="188" y="284" on="0"/>
        <pt x="241" y="260" on="0"/>
        <pt x="270" y="262" on="1"/>
        <pt x="291" y="264" on="0"/>
        <pt x="324" y="285" on="0"/>
        <pt x="346" y="315" on="0"/>
        <pt x="357" y="353" on="0"/>
        <pt x="354" y="371" on="1"/>
        <pt x="351" y="393" on="0"/>
        <pt x="330" y="427" on="0"/>
        <pt x="299" y="450" on="0"/>
        <pt x="262" y="460" on="0"/>
        <pt x="244" y="459" on="1"/>
        <pt x="215" y="456" on="0"/>
        <pt x="177" y="425" on="0"/>
        <pt x="158" y="382" on="0"/>
        <pt x="161" y="332" on="0"/>
      </contour>
      <contour>
        <pt x="248" y="154" on="1"/>
        <pt x="161" y="304" on="1"/>
        <pt x="149" y="324" on="0"/>
        <pt x="143" y="369" on="0"/>
        <pt x="154" y="411" on="0"/>
        <pt x="180" y="447" on="0"/>
        <pt x="200" y="459" on="1"/>
        <pt x="227" y="474" on="0"/>
        <pt x="287" y="471" on="0"/>
        <pt x="313" y="456" on="1"/>
        <pt x="296" y="483" on="0"/>
        <pt x="266" y="538" on="0"/>
        <pt x="250" y="566" on="1"/>
        <pt x="222" y="615" on="0"/>
        <pt x="216" y="665" on="0"/>
        <pt x="226" y="681" on="1"/>
        <pt x="236" y="697" on="0"/>
        <pt x="281" y="721" on="0"/>
        <pt x="298" y="730" on="1"/>
        <pt x="300" y="727" on="0"/>
        <pt x="303" y="721" on="0"/>
        <pt x="305" y="718" on="1"/>
        <pt x="292" y="710" on="0"/>
        <pt x="268" y="697" on="0"/>
        <pt x="255" y="689" on="1"/>
        <pt x="229" y="674" on="0"/>
        <pt x="236" y="618" on="0"/>
        <pt x="266" y="566" on="1"/>
        <pt x="288" y="528" on="0"/>
        <pt x="331" y="453" on="0"/>
        <pt x="353" y="415" on="1"/>
        <pt x="365" y="395" on="0"/>
        <pt x="370" y="351" on="0"/>
        <pt x="359" y="309" on="0"/>
        <pt x="333" y="274" on="0"/>
        <pt x="313" y="262" on="1"/>
        <pt x="286" y="246" on="0"/>
        <pt x="226" y="248" on="0"/>
        <pt x="200" y="264" on="1"/>
        <pt x="216" y="236" on="0"/>
        <pt x="248" y="182" on="0"/>
        <pt x="264" y="154" on="1"/>
        <pt x="278" y="130" on="0"/>
        <pt x="292" y="93" on="0"/>
        <pt x="297" y="66" on="0"/>
        <pt x="292" y="47" on="0"/>
        <pt x="288" y="39" on="1"/>
        <pt x="278" y="22" on="0"/>
        <pt x="233" y="-2" on="0"/>
        <pt x="216" y="-10" on="1"/>
        <pt x="214" y="-7" on="0"/>
        <pt x="211" y="-1" on="0"/>
        <pt x="209" y="2" on="1"/>
        <pt x="222" y="10" on="0"/>
        <pt x="246" y="23" on="0"/>
        <pt x="259" y="31" on="1"/>
        <pt x="285" y="46" on="0"/>
        <pt x="278" y="102" on="0"/>
      </contour>
    </TTGlyph>
    <TTGlyph name="semicolon" xMin="12" yMin="-120" xMax="128" yMax="290">
      <contour>
        <pt x="88" y="270" on="1"/>
        <pt x="88" y="278" on="0"/>
        <pt x="100" y="290" on="0"/>
        <pt x="108" y="290" on="1"/>
        <pt x="116" y="290" on="0"/>
        <pt x="128" y="278" on="0"/>
        <pt x="128" y="270" on="1"/>
        <pt x="128" y="262" on="0"/>
        <pt x="116" y="250" on="0"/>
        <pt x="108" y="250" on="1"/>
        <pt x="100" y="250" on="0"/>
        <pt x="88" y="262" on="0"/>
      </contour>
      <contour>
        <pt x="112" y="86" on="1"/>
        <pt x="90" y="34" on="0"/>
        <pt x="48" y="-68" on="0"/>
        <pt x="26" y="-120" on="1"/>
        <pt x="12" y="-120" on="1"/>
        <pt x="32" y="-68" on="0"/>
        <pt x="69" y="34" on="0"/>
        <pt x="89" y="86" on="1"/>
      </contour>
    </TTGlyph>
    <TTGlyph name="seven" xMin="14" yMin="0" xMax="415" yMax="650">
      <contour>
        <pt x="14" y="636" on="1"/>
        <pt x="14" y="650" on="1"/>
        <pt x="415" y="650" on="1"/>
        <pt x="342" y="486" on="0"/>
        <pt x="196" y="164" on="0"/>
        <pt x="123" y="0" on="1"/>
        <pt x="105" y="0" on="1"/>
        <pt x="177" y="160" on="0"/>
        <pt x="320" y="476" on="0"/>
        <pt x="392" y="636" on="1"/>
      </contour>
    </TTGlyph>
    <TTGlyph name="six" xMin="50" yMin="-8" xMax="458" yMax="633">
      <contour>
        <pt x="63" y="193" on="1"/>
        <pt x="63" y="154" on="0"/>
        <pt x="93" y="86" on="0"/>
        <pt x="144" y="35" on="0"/>
        <pt x="214" y="6" on="0"/>
        <pt x="253" y="6" on="1"/>
        <pt x="292" y="6" on="0"/>
        <pt x="362" y="35" on="0"/>
        <pt x="414" y="86" on="0"/>
        <pt x="444" y="154" on="0"/>
        <pt x="444" y="193" on="1"/>
        <pt x="444" y="232" on="0"/>
        <pt x="414" y="300" on="0"/>
        <pt x="362" y="351" on="0"/>
        <pt x="292" y="381" on="0"/>
        <pt x="253" y="381" on="1"/>
        <pt x="214" y="381" on="0"/>
        <pt x="144" y="351" on="0"/>
        <pt x="93" y="300" on="0"/>
        <pt x="63" y="232" on="0"/>
      </contour>
      <contour>
        <pt x="50" y="193" on="1"/>
        <pt x="50" y="266" on="0"/>
        <pt x="112" y="391" on="0"/>
        <pt x="208" y="499" on="0"/>
        <pt x="326" y="592" on="0"/>
        <pt x="382" y="633" on="1"/>
        <pt x="384" y="630" on="0"/>
        <pt x="390" y="623" on="0"/>
        <pt x="392" y="620" on="1"/>
        <pt x="325" y="576" on="0"/>
        <pt x="223" y="490" on="0"/>
        <pt x="150" y="411" on="0"/>
        <pt x="103" y="342" on="0"/>
        <pt x="91" y="314" on="1"/>
        <pt x="119" y="351" on="0"/>
        <pt x="203" y="395" on="0"/>
        <pt x="254" y="395" on="1"/>
        <pt x="296" y="395" on="0"/>
        <pt x="371" y="363" on="0"/>
        <pt x="426" y="308" on="0"/>
        <pt x="458" y="235" on="0"/>
        <pt x="458" y="193" on="1"/>
        <pt x="458" y="151" on="0"/>
        <pt x="426" y="78" on="0"/>
        <pt x="371" y="24" on="0"/>
        <pt x="296" y="-8" on="0"/>
        <pt x="254" y="-8" on="1"/>
        <pt x="212" y="-8" on="0"/>
        <pt x="137" y="24" on="0"/>
        <pt x="82" y="78" on="0"/>
        <pt x="50" y="151" on="0"/>
      </contour>
    </TTGlyph>
    <TTGlyph name="slash" xMin="17" yMin="-19" xMax="309" yMax="736">
      <contour>
        <pt x="17" y="-19" on="1"/>
        <pt x="87" y="171" on="0"/>
        <pt x="225" y="546" on="0"/>
        <pt x="295" y="736" on="1"/>
        <pt x="309" y="736" on="1"/>
        <pt x="239" y="546" on="0"/>
        <pt x="101" y="171" on="0"/>
        <pt x="31" y="-19" on="1"/>
      </contour>
    </TTGlyph>
    <TTGlyph name="sterling" xMin="26" yMin="0" xMax="486" yMax="634">
      <contour>
        <pt x="113" y="14" on="1"/>
        <pt x="319" y="14" on="1"/>
        <pt x="360" y="14" on="1"/>
        <pt x="420" y="14" on="0"/>
        <pt x="472" y="35" on="0"/>
        <pt x="472" y="66" on="1"/>
        <pt x="472" y="123" on="1"/>
        <pt x="486" y="123" on="1"/>
        <pt x="486" y="86" on="1"/>
        <pt x="486" y="70" on="0"/>
        <pt x="483" y="39" on="0"/>
        <pt x="462" y="15" on="0"/>
        <pt x="414" y="0" on="0"/>
        <pt x="368" y="0" on="1"/>
        <pt x="26" y="0" on="1"/>
        <pt x="26" y="14" on="1"/>
        <pt x="70" y="14" on="1"/>
        <pt x="88" y="14" on="0"/>
        <pt x="109" y="29" on="0"/>
        <pt x="119" y="63" on="0"/>
        <pt x="122" y="121" on="0"/>
        <pt x="122" y="164" on="1"/>
        <pt x="122" y="311" on="1"/>
        <pt x="57" y="311" on="1"/>
        <pt x="57" y="325" on="1"/>
        <pt x="122" y="325" on="1"/>
        <pt x="122" y="500" on="1"/>
        <pt x="122" y="570" on="0"/>
        <pt x="209" y="634" on="0"/>
        <pt x="281" y="634" on="1"/>
        <pt x="348" y="634" on="0"/>
        <pt x="417" y="585" on="0"/>
        <pt x="437" y="545" on="1"/>
        <pt x="435" y="543" on="0"/>
        <pt x="429" y="541" on="0"/>
        <pt x="427" y="539" on="1"/>
        <pt x="414" y="563" on="0"/>
        <pt x="388" y="594" on="0"/>
        <pt x="354" y="612" on="0"/>
        <pt x="311" y="620" on="0"/>
        <pt x="281" y="620" on="1"/>
        <pt x="239" y="620" on="0"/>
        <pt x="183" y="601" on="0"/>
        <pt x="150" y="569" on="0"/>
        <pt x="136" y="527" on="0"/>
        <pt x="136" y="504" on="1"/>
        <pt x="136" y="325" on="1"/>
        <pt x="265" y="325" on="1"/>
        <pt x="265" y="311" on="1"/>
        <pt x="136" y="311" on="1"/>
        <pt x="136" y="149" on="1"/>
        <pt x="136" y="109" on="1"/>
        <pt x="136" y="80" on="0"/>
        <pt x="127" y="28" on="0"/>
      </contour>
    </TTGlyph>
    <TTGlyph name="t" xMin="46" yMin="0" xMax="276" yMax="619">
      <contour>
        <pt x="135" y="619" on="1"/>
        <pt x="149" y="619" on="1"/>
        <pt x="149" y="367" on="1"/>
        <pt x="276" y="367" on="1"/>
        <pt x="276" y="353" on="1"/>
        <pt x="149" y="353" on="1"/>
        <pt x="149" y="0" on="1"/>
        <pt x="135" y="0" on="1"/>
        <pt x="135" y="353" on="1"/>
        <pt x="46" y="353" on="1"/>
        <pt x="46" y="367" on="1"/>
        <pt x="135" y="367" on="1"/>
      </contour>
    </TTGlyph>
    <TTGlyph name="thorn" xMin="67" yMin="-250" xMax="456" yMax="750">
      <contour>
        <pt x="442" y="187" on="1"/>
        <pt x="442" y="224" on="0"/>
        <pt x="414" y="290" on="0"/>
        <pt x="365" y="339" on="0"/>
        <pt x="299" y="367" on="0"/>
        <pt x="262" y="367" on="1"/>
        <pt x="224" y="367" on="0"/>
        <pt x="159" y="339" on="0"/>
        <pt x="109" y="290" on="0"/>
        <pt x="81" y="224" on="0"/>
        <pt x="81" y="187" on="1"/>
        <pt x="81" y="149" on="0"/>
        <pt x="109" y="84" on="0"/>
        <pt x="159" y="34" on="0"/>
        <pt x="224" y="6" on="0"/>
        <pt x="262" y="6" on="1"/>
        <pt x="299" y="6" on="0"/>
        <pt x="365" y="34" on="0"/>
        <pt x="414" y="84" on="0"/>
        <pt x="442" y="149" on="0"/>
      </contour>
      <contour>
        <pt x="456" y="187" on="1"/>
        <pt x="456" y="146" on="0"/>
        <pt x="426" y="75" on="0"/>
        <pt x="373" y="23" on="0"/>
        <pt x="302" y="-8" on="0"/>
        <pt x="262" y="-8" on="1"/>
        <pt x="231" y="-8" on="0"/>
        <pt x="174" y="10" on="0"/>
        <pt x="127" y="43" on="0"/>
        <pt x="91" y="88" on="0"/>
        <pt x="81" y="115" on="1"/>
        <pt x="81" y="101" on="0"/>
        <pt x="82" y="75" on="0"/>
        <pt x="82" y="61" on="1"/>
        <pt x="82" y="-250" on="1"/>
        <pt x="67" y="-250" on="1"/>
        <pt x="67" y="750" on="1"/>
        <pt x="81" y="750" on="1"/>
        <pt x="81" y="321" on="1"/>
        <pt x="81" y="305" on="0"/>
        <pt x="80" y="273" on="0"/>
        <pt x="80" y="257" on="1"/>
        <pt x="101" y="312" on="0"/>
        <pt x="199" y="381" on="0"/>
        <pt x="262" y="381" on="1"/>
        <pt x="302" y="381" on="0"/>
        <pt x="373" y="351" on="0"/>
        <pt x="426" y="298" on="0"/>
        <pt x="456" y="227" on="0"/>
      </contour>
    </TTGlyph>
    <TTGlyph name="three" xMin="93" yMin="-8" xMax="446" yMax="650">
      <contour>
        <pt x="178" y="361" on="1"/>
        <pt x="232" y="430" on="0"/>
        <pt x="336" y="567" on="0"/>
        <pt x="390" y="636" on="1"/>
        <pt x="103" y="636" on="1"/>
        <pt x="103" y="650" on="1"/>
        <pt x="422" y="650" on="1"/>
        <pt x="372" y="587" on="0"/>
        <pt x="273" y="461" on="0"/>
        <pt x="223" y="398" on="1"/>
        <pt x="268" y="400" on="0"/>
        <pt x="349" y="371" on="0"/>
        <pt x="410" y="317" on="0"/>
        <pt x="446" y="240" on="0"/>
        <pt x="446" y="195" on="1"/>
        <pt x="446" y="153" on="0"/>
        <pt x="414" y="79" on="0"/>
        <pt x="358" y="24" on="0"/>
        <pt x="284" y="-8" on="0"/>
        <pt x="242" y="-8" on="1"/>
        <pt x="197" y="-8" on="0"/>
        <pt x="121" y="28" on="0"/>
        <pt x="93" y="58" on="1"/>
        <pt x="95" y="61" on="0"/>
        <pt x="101" y="68" on="0"/>
        <pt x="103" y="71" on="1"/>
        <pt x="127" y="42" on="0"/>
        <pt x="197" y="6" on="0"/>
        <pt x="239" y="6" on="1"/>
        <pt x="278" y="6" on="0"/>
        <pt x="349" y="36" on="0"/>
        <pt x="401" y="88" on="0"/>
        <pt x="432" y="157" on="0"/>
        <pt x="432" y="195" on="1"/>
        <pt x="432" y="234" on="0"/>
        <pt x="401" y="303" on="0"/>
        <pt x="349" y="354" on="0"/>
        <pt x="278" y="384" on="0"/>
        <pt x="239" y="384" on="1"/>
        <pt x="223" y="384" on="0"/>
        <pt x="192" y="372" on="0"/>
      </contour>
    </TTGlyph>
    <TTGlyph name="threequarters" xMin="153" yMin="-19" xMax="1044" yMax="736">
      <component glyphName="three" x="82" y="206" scalex="0.7705078125" scaley="0.772033691406" flags="0x4"/>
      <component glyphName="slash" x="443" y="0" flags="0x4"/>
      <component glyphName="four" x="672" y="0" scalex="0.7451171875" scaley="0.744689941406" flags="0x4"/>
    </TTGlyph>
    <TTGlyph name="threesuperior" xMin="95" yMin="376" xMax="269" yMax="700">
      <component glyphName="three" x="50" y="380" scalex="0.492919921875" scaley="0.492431640625" flags="0x4"/>
    </TTGlyph>
    <TTGlyph name="two" xMin="50" yMin="0" xMax="449" yMax="658">
      <contour>
        <pt x="89" y="14" on="1"/>
        <pt x="449" y="14" on="1"/>
        <pt x="449" y="0" on="1"/>
        <pt x="53" y="0" on="1"/>
        <pt x="117" y="62" on="0"/>
        <pt x="239" y="183" on="0"/>
        <pt x="332" y="298" on="0"/>
        <pt x="389" y="405" on="0"/>
        <pt x="389" y="452" on="1"/>
        <pt x="389" y="508" on="0"/>
        <pt x="357" y="582" on="0"/>
        <pt x="309" y="626" on="0"/>
        <pt x="253" y="644" on="0"/>
        <pt x="228" y="644" on="1"/>
        <pt x="178" y="644" on="0"/>
        <pt x="115" y="609" on="0"/>
        <pt x="78" y="556" on="0"/>
        <pt x="64" y="495" on="0"/>
        <pt x="64" y="469" on="1"/>
        <pt x="64" y="398" on="0"/>
        <pt x="104" y="355" on="1"/>
        <pt x="102" y="353" on="0"/>
        <pt x="97" y="349" on="0"/>
        <pt x="95" y="347" on="1"/>
        <pt x="74" y="371" on="0"/>
        <pt x="50" y="428" on="0"/>
        <pt x="50" y="469" on="1"/>
        <pt x="50" y="509" on="0"/>
        <pt x="73" y="578" on="0"/>
        <pt x="118" y="629" on="0"/>
        <pt x="185" y="658" on="0"/>
        <pt x="228" y="658" on="1"/>
        <pt x="267" y="658" on="0"/>
        <pt x="331" y="629" on="0"/>
        <pt x="378" y="577" on="0"/>
        <pt x="403" y="506" on="0"/>
        <pt x="403" y="464" on="1"/>
        <pt x="403" y="406" on="0"/>
        <pt x="344" y="291" on="0"/>
        <pt x="252" y="179" on="0"/>
        <pt x="141" y="68" on="0"/>
      </contour>
    </TTGlyph>
    <TTGlyph name="twosuperior" xMin="100" yMin="375" xMax="298" yMax="699">
      <component glyphName="two" x="76" y="375" scalex="0.495422363281" scaley="0.493896484375" flags="0x4"/>
    </TTGlyph>
    <TTGlyph name="u" xMin="117" yMin="-7" xMax="409" yMax="375">
      <contour>
        <pt x="409" y="0" on="1"/>
        <pt x="395" y="0" on="1"/>
        <pt x="395" y="53" on="1"/>
        <pt x="398" y="98" on="1"/>
        <pt x="378" y="50" on="0"/>
        <pt x="289" y="-7" on="0"/>
        <pt x="233" y="-7" on="1"/>
        <pt x="180" y="-7" on="0"/>
        <pt x="119" y="55" on="0"/>
        <pt x="117" y="105" on="1"/>
        <pt x="117" y="375" on="1"/>
        <pt x="131" y="375" on="1"/>
        <pt x="131" y="98" on="1"/>
        <pt x="133" y="62" on="0"/>
        <pt x="182" y="9" on="0"/>
        <pt x="226" y="7" on="1"/>
        <pt x="260" y="7" on="0"/>
        <pt x="321" y="29" on="0"/>
        <pt x="367" y="68" on="0"/>
        <pt x="395" y="123" on="0"/>
        <pt x="395" y="155" on="1"/>
        <pt x="395" y="375" on="1"/>
        <pt x="409" y="375" on="1"/>
      </contour>
    </TTGlyph>
    <TTGlyph name="uacute" xMin="117" yMin="-7" xMax="409" yMax="612">
      <component glyphName="u" x="0" y="0" flags="0x204"/>
      <component glyphName="acute" x="131" y="0" flags="0x4"/>
    </TTGlyph>
    <TTGlyph name="ucircumflex" xMin="117" yMin="-7" xMax="409" yMax="660">
      <component glyphName="u" x="0" y="0" flags="0x204"/>
      <component glyphName="asciicircum" x="34" y="0" flags="0x4"/>
    </TTGlyph>
    <TTGlyph name="udieresis" xMin="117" yMin="-7" xMax="409" yMax="520">
      <component glyphName="u" x="0" y="0" flags="0x204"/>
      <component glyphName="dieresis" x="75" y="0" flags="0x4"/>
    </TTGlyph>
    <TTGlyph name="ugrave" xMin="117" yMin="-7" xMax="409" yMax="612">
      <component glyphName="u" x="0" y="0" flags="0x204"/>
      <component glyphName="grave" x="190" y="0" flags="0x4"/>
    </TTGlyph>
    <TTGlyph name="underscore" xMin="100" yMin="0" xMax="500" yMax="14">
      <contour>
        <pt x="500" y="0" on="1"/>
        <pt x="100" y="0" on="1"/>
        <pt x="100" y="14" on="1"/>
        <pt x="500" y="14" on="1"/>
      </contour>
    </TTGlyph>
    <TTGlyph name="v" xMin="54" yMin="-23" xMax="450" yMax="375">
      <contour>
        <pt x="252" y="-23" on="1"/>
        <pt x="202" y="77" on="0"/>
        <pt x="104" y="275" on="0"/>
        <pt x="54" y="375" on="1"/>
        <pt x="69" y="375" on="1"/>
        <pt x="115" y="284" on="0"/>
        <pt x="206" y="100" on="0"/>
        <pt x="252" y="8" on="1"/>
        <pt x="298" y="100" on="0"/>
        <pt x="389" y="283" on="0"/>
        <pt x="435" y="375" on="1"/>
        <pt x="450" y="375" on="1"/>
        <pt x="400" y="275" on="0"/>
        <pt x="302" y="77" on="0"/>
      </contour>
    </TTGlyph>
    <TTGlyph name="w" xMin="57" yMin="-23" xMax="725" yMax="375">
      <contour>
        <pt x="383" y="266" on="1"/>
        <pt x="369" y="293" on="0"/>
        <pt x="343" y="348" on="0"/>
        <pt x="329" y="375" on="1"/>
        <pt x="344" y="375" on="1"/>
        <pt x="389" y="283" on="0"/>
        <pt x="481" y="99" on="0"/>
        <pt x="527" y="8" on="1"/>
        <pt x="573" y="100" on="0"/>
        <pt x="664" y="283" on="0"/>
        <pt x="710" y="375" on="1"/>
        <pt x="725" y="375" on="1"/>
        <pt x="675" y="275" on="0"/>
        <pt x="577" y="77" on="0"/>
        <pt x="527" y="-23" on="1"/>
        <pt x="493" y="46" on="0"/>
        <pt x="425" y="182" on="0"/>
        <pt x="391" y="251" on="1"/>
        <pt x="357" y="182" on="0"/>
        <pt x="289" y="46" on="0"/>
        <pt x="255" y="-23" on="1"/>
        <pt x="205" y="77" on="0"/>
        <pt x="107" y="275" on="0"/>
        <pt x="57" y="375" on="1"/>
        <pt x="72" y="375" on="1"/>
        <pt x="117" y="283" on="0"/>
        <pt x="209" y="99" on="0"/>
        <pt x="255" y="8" on="1"/>
        <pt x="287" y="73" on="0"/>
        <pt x="351" y="201" on="0"/>
      </contour>
    </TTGlyph>
    <TTGlyph name="x" xMin="42" yMin="0" xMax="334" yMax="375">
      <contour>
        <pt x="180" y="187" on="1"/>
        <pt x="145" y="235" on="0"/>
        <pt x="77" y="327" on="0"/>
        <pt x="42" y="375" on="1"/>
        <pt x="60" y="375" on="1"/>
        <pt x="189" y="198" on="1"/>
        <pt x="221" y="243" on="0"/>
        <pt x="283" y="329" on="0"/>
        <pt x="315" y="374" on="1"/>
        <pt x="332" y="374" on="1"/>
        <pt x="298" y="326" on="0"/>
        <pt x="231" y="234" on="0"/>
        <pt x="197" y="186" on="1"/>
        <pt x="232" y="139" on="0"/>
        <pt x="299" y="47" on="0"/>
        <pt x="334" y="0" on="1"/>
        <pt x="318" y="0" on="1"/>
        <pt x="286" y="44" on="0"/>
        <pt x="221" y="131" on="0"/>
        <pt x="189" y="175" on="1"/>
        <pt x="157" y="131" on="0"/>
        <pt x="96" y="44" on="0"/>
        <pt x="64" y="0" on="1"/>
        <pt x="46" y="0" on="1"/>
        <pt x="80" y="47" on="0"/>
        <pt x="146" y="140" on="0"/>
      </contour>
    </TTGlyph>
    <TTGlyph name="y" xMin="46" yMin="-250" xMax="442" yMax="375">
      <contour>
        <pt x="131" y="-250" on="1"/>
        <pt x="112" y="-250" on="1"/>
        <pt x="235" y="-4" on="1"/>
        <pt x="187" y="91" on="0"/>
        <pt x="94" y="280" on="0"/>
        <pt x="46" y="375" on="1"/>
        <pt x="64" y="375" on="1"/>
        <pt x="109" y="284" on="0"/>
        <pt x="199" y="105" on="0"/>
        <pt x="244" y="14" on="1"/>
        <pt x="289" y="105" on="0"/>
        <pt x="379" y="284" on="0"/>
        <pt x="424" y="375" on="1"/>
        <pt x="442" y="375" on="1"/>
        <pt x="364" y="218" on="0"/>
        <pt x="209" y="-93" on="0"/>
      </contour>
    </TTGlyph>
    <TTGlyph name="yacute" xMin="46" yMin="-250" xMax="442" yMax="612">
      <component glyphName="y" x="0" y="0" flags="0x4"/>
      <component glyphName="acute" x="141" y="0" flags="0x4"/>
    </TTGlyph>
    <TTGlyph name="ydieresis" xMin="46" yMin="-250" xMax="442" yMax="520">
      <component glyphName="y" x="0" y="0" flags="0x4"/>
      <component glyphName="dieresis" x="71" y="0" flags="0x4"/>
    </TTGlyph>
    <TTGlyph name="yen" xMin="48" yMin="0" xMax="587" yMax="700">
      <contour>
        <pt x="483" y="114" on="1"/>
        <pt x="483" y="100" on="1"/>
        <pt x="325" y="100" on="1"/>
        <pt x="325" y="0" on="1"/>
        <pt x="311" y="0" on="1"/>
        <pt x="311" y="100" on="1"/>
        <pt x="150" y="100" on="1"/>
        <pt x="150" y="114" on="1"/>
        <pt x="311" y="114" on="1"/>
        <pt x="311" y="263" on="1"/>
        <pt x="150" y="263" on="1"/>
        <pt x="150" y="277" on="1"/>
        <pt x="302" y="277" on="1"/>
        <pt x="238" y="383" on="0"/>
        <pt x="112" y="594" on="0"/>
        <pt x="48" y="700" on="1"/>
        <pt x="65" y="700" on="1"/>
        <pt x="125" y="599" on="0"/>
        <pt x="246" y="399" on="0"/>
        <pt x="306" y="298" on="1"/>
        <pt x="309" y="291" on="0"/>
        <pt x="315" y="279" on="0"/>
        <pt x="318" y="272" on="1"/>
        <pt x="319" y="272" on="1"/>
        <pt x="322" y="279" on="0"/>
        <pt x="327" y="291" on="0"/>
        <pt x="330" y="298" on="1"/>
        <pt x="570" y="700" on="1"/>
        <pt x="587" y="700" on="1"/>
        <pt x="523" y="594" on="0"/>
        <pt x="397" y="383" on="0"/>
        <pt x="333" y="277" on="1"/>
        <pt x="483" y="277" on="1"/>
        <pt x="483" y="263" on="1"/>
        <pt x="325" y="263" on="1"/>
        <pt x="325" y="114" on="1"/>
      </contour>
    </TTGlyph>
    <TTGlyph name="z" xMin="42" yMin="0" xMax="401" yMax="410">
      <contour>
        <pt x="111" y="375" on="1"/>
        <pt x="384" y="375" on="1"/>
        <pt x="384" y="361" on="1"/>
        <pt x="300" y="273" on="0"/>
        <pt x="144" y="102" on="0"/>
        <pt x="60" y="14" on="1"/>
        <pt x="401" y="14" on="1"/>
        <pt x="401" y="0" on="1"/>
        <pt x="42" y="0" on="1"/>
        <pt x="42" y="14" on="1"/>
        <pt x="126" y="102" on="0"/>
        <pt x="282" y="273" on="0"/>
        <pt x="366" y="361" on="1"/>
        <pt x="125" y="361" on="1"/>
        <pt x="94" y="361" on="0"/>
        <pt x="65" y="377" on="0"/>
        <pt x="65" y="406" on="1"/>
        <pt x="65" y="410" on="1"/>
        <pt x="81" y="410" on="1"/>
        <pt x="81" y="398" on="1"/>
        <pt x="81" y="389" on="0"/>
        <pt x="94" y="375" on="0"/>
      </contour>
    </TTGlyph>
    <TTGlyph name="zero" xMin="36" yMin="-7" xMax="573" yMax="658">
      <contour>
        <pt x="36" y="327" on="1"/>
        <pt x="36" y="375" on="0"/>
        <pt x="65" y="490" on="0"/>
        <pt x="129" y="591" on="0"/>
        <pt x="233" y="658" on="0"/>
        <pt x="308" y="658" on="1"/>
        <pt x="382" y="658" on="0"/>
        <pt x="484" y="589" on="0"/>
        <pt x="546" y="488" on="0"/>
        <pt x="573" y="372" on="0"/>
        <pt x="573" y="324" on="1"/>
        <pt x="573" y="255" on="0"/>
        <pt x="529" y="134" on="0"/>
        <pt x="455" y="44" on="0"/>
        <pt x="356" y="-7" on="0"/>
        <pt x="301" y="-7" on="1"/>
        <pt x="246" y="-7" on="0"/>
        <pt x="149" y="46" on="0"/>
        <pt x="77" y="136" on="0"/>
        <pt x="36" y="257" on="0"/>
      </contour>
      <contour>
        <pt x="51" y="328" on="1"/>
        <pt x="51" y="255" on="0"/>
        <pt x="93" y="137" on="0"/>
        <pt x="163" y="53" on="0"/>
        <pt x="255" y="7" on="0"/>
        <pt x="303" y="7" on="1"/>
        <pt x="351" y="7" on="0"/>
        <pt x="443" y="51" on="0"/>
        <pt x="515" y="133" on="0"/>
        <pt x="559" y="251" on="0"/>
        <pt x="559" y="323" on="1"/>
        <pt x="559" y="396" on="0"/>
        <pt x="521" y="515" on="0"/>
        <pt x="453" y="598" on="0"/>
        <pt x="361" y="644" on="0"/>
        <pt x="307" y="644" on="1"/>
        <pt x="253" y="644" on="0"/>
        <pt x="160" y="601" on="0"/>
        <pt x="91" y="518" on="0"/>
        <pt x="51" y="401" on="0"/>
      </contour>
    </TTGlyph>
</ttFont>
